<?xml version="1.0" encoding="utf-8"?>
<!-- Generator: Adobe Illustrator 21.0.0, SVG Export Plug-In . SVG Version: 6.00 Build 0)  -->
<svg version="1.1" id="图层_1" xmlns="http://www.w3.org/2000/svg" xmlns:xlink="http://www.w3.org/1999/xlink" x="0px" y="0px"
	 viewBox="0 0 16 16" style="enable-background:new 0 0 16 16;" xml:space="preserve">
<style type="text/css">
	.st0{fill:none;}
	.st1{fill:#FF8976;}
	.st2{fill:#FFD0C8;}
	.st3{fill:#FFFFFF;}
</style>
<g id="Page-1">
	<g id="教师-打开文件2" transform="translate(-493.000000, -517.000000)">
		<g id="Group-7-Copy" transform="translate(493.000000, 517.000000)">
			<g id="ico_ppt">
				<rect id="Rectangle-6" class="st0" width="16" height="16"/>
				<g id="ppt" transform="translate(2.500000, 0.833333)">
					<path id="Shape" class="st1" d="M0.2-0.2C0-0.2-0.2-0.1-0.3,0.1s-0.2,0.3-0.2,0.5v13.2c0,0.2,0.1,0.4,0.2,0.5
						c0.1,0.1,0.3,0.2,0.5,0.2h10.6c0.2,0,0.4-0.1,0.5-0.2c0.1-0.1,0.2-0.3,0.2-0.5V4L7.4-0.2H0.2z"/>
					<path id="Shape_1_" class="st2" d="M11.5,4H8.1C8,4,7.8,3.9,7.6,3.8C7.5,3.6,7.4,3.4,7.4,3.3v-3.4L11.5,4z"/>
					<path id="Shape_2_" class="st3" d="M3.6,5.2h2.6c1.1,0,1.4,0.7,1.4,1.5c0,0.7-0.4,1.5-1.4,1.5H4.5V10H3.6V5.2z M4.5,7.5H6
						c0.5,0,0.8-0.2,0.8-0.7C6.7,6.2,6.4,6,6,6H4.5V7.5z"/>
				</g>
			</g>
		</g>
	</g>
</g>
</svg>
