<?xml version="1.0" encoding="utf-8"?>
<!-- Generator: Adobe Illustrator 21.0.0, SVG Export Plug-In . SVG Version: 6.00 Build 0)  -->
<svg version="1.1" id="图层_1" xmlns="http://www.w3.org/2000/svg" xmlns:xlink="http://www.w3.org/1999/xlink" x="0px" y="0px"
	 viewBox="0 0 16 16" style="enable-background:new 0 0 16 16;" xml:space="preserve">
<style type="text/css">
	.st0{fill:none;}
	.st1{fill:#71D0FF;}
</style>
<g id="Page-1">
	<g id="教师-打开文件2" transform="translate(-503.000000, -427.000000)">
		<g id="Group-6" transform="translate(503.000000, 427.000000)">
			<g id="ico_pic">
				<rect id="Rectangle-7" x="0" class="st0" width="16" height="16"/>
				<g id="图片" transform="translate(1.000000, 1.000000)">
					<path id="Shape" class="st1" d="M12.6,0.3H1.4C0.5,0.3-0.2,1-0.2,1.9v9.9c0,0.9,0.7,1.6,1.6,1.6h11.2c0.9,0,1.6-0.7,1.6-1.6
						V1.9C14.2,1,13.5,0.3,12.6,0.3z M3.4,2.2c0.8,0,1.4,0.7,1.4,1.4S4.2,5,3.4,5S2,4.4,2,3.6S2.6,2.2,3.4,2.2z M1.4,11l2.8-3.7
						l2,2.4L9,6.2l3.6,4.8H1.4z"/>
				</g>
			</g>
		</g>
	</g>
</g>
</svg>
