<?xml version="1.0" encoding="utf-8"?>
<!-- Generator: Adobe Illustrator 21.0.0, SVG Export Plug-In . SVG Version: 6.00 Build 0)  -->
<svg version="1.1" id="图层_1" xmlns="http://www.w3.org/2000/svg" xmlns:xlink="http://www.w3.org/1999/xlink" x="0px" y="0px"
	 viewBox="0 0 16 16" style="enable-background:new 0 0 16 16;" xml:space="preserve">
<style type="text/css">
	.st0{fill:none;}
	.st1{fill:#FFFFFF;}
	.st2{fill:#DBBF49;}
	.st3{fill:#FFDD50;}
	.st4{fill:#D2EDF7;}
	.st5{fill:#F9ECB7;}
</style>
<title>maikefeng-01-01</title>
<g id="Page-1">
	<g id="教师-打开文件2" transform="translate(-493.000000, -307.000000)">
		<g id="Group-2" transform="translate(479.000000, 307.000000)">
			<g id="icon_文件夹" transform="translate(14.000000, 0.000000)">
				<rect id="Rectangle-2" class="st0" width="16" height="16"/>
				<g id="Group" transform="translate(0.833333, 2.500000)">
					<g id="_x32_2-文件夹">
						<path id="Shape" class="st1" d="M2.1,8.3H1.1c0,0-0.1,0-0.1,0.1s0,0.1,0.1,0.1h0.9c0,0,0,0,0,0c0,0,0,0,0-0.1
							C2.2,8.3,2.2,8.3,2.1,8.3z M5.7,8.3H2.8c0,0-0.1,0-0.1,0.1s0,0.1,0.1,0.1h2.9c0,0,0,0,0,0C5.7,8.4,5.7,8.4,5.7,8.3
							C5.7,8.3,5.7,8.3,5.7,8.3z"/>
						<path id="Shape_1_" class="st2" d="M11.8,0.9H6.2L5.5-0.1c0,0-0.1-0.1-0.2-0.1H2.2c-1,0-1.8,0.8-1.8,1.8v6.8
							c0,1,0.8,1.8,1.8,1.8h9.6c1,0,1.8-0.8,1.8-1.8V2.6C13.6,1.7,12.7,0.9,11.8,0.9z"/>
						<polygon id="Shape_2_" class="st1" points="1.1,1.1 12.5,1.1 12.5,2.1 1.1,2.1 						"/>
						<path id="Shape_3_" class="st3" d="M12.1,1.8H6.2l-0.7-1c0,0-0.1-0.1-0.3-0.1H1.8c-1,0-1.9,0.8-1.9,1.9v7.3
							c0,1,0.9,1.9,1.9,1.9h10.3c1,0,1.9-0.8,1.9-1.9V3.7C14,2.7,13.1,1.8,12.1,1.8z"/>
						<path id="Shape_4_" class="st4" d="M14,3.4c-0.1-0.9-0.9-1.6-1.9-1.6H6.2l-0.7-1c0,0-0.1-0.1-0.3-0.1H1.8
							c-1,0-1.9,0.8-1.9,1.9v0.8H14z"/>
						<path id="Shape_5_" class="st5" d="M14,3.4c-0.1-0.9-0.9-1.6-1.9-1.6H6.2l-0.7-1c0,0-0.1-0.1-0.3-0.1H1.8
							c-1,0-1.9,0.8-1.9,1.9v0.8H14z"/>
					</g>
				</g>
			</g>
		</g>
	</g>
</g>
</svg>
