<?xml version="1.0" encoding="UTF-8"?>
<svg width="32px" height="32px" viewBox="0 0 32 32" version="1.1" xmlns="http://www.w3.org/2000/svg" xmlns:xlink="http://www.w3.org/1999/xlink">
    <!-- Generator: Sketch 52.4 (67378) - http://www.bohemiancoding.com/sketch -->
    <title>btn_退出</title>
    <desc>Created with Sketch.</desc>
    <g id="迷你教室2.0" stroke="none" stroke-width="1" fill="none" fill-rule="evenodd">
        <g id="1920*1080（实际1920*970）" transform="translate(-1660.000000, -396.000000)">
            <g id="btn_退出" transform="translate(1660.000000, 396.000000)">
                <rect id="矩形-copy-7" stroke="#FFFFFF" fill-rule="nonzero" x="0.5" y="0.5" width="31" height="31" rx="15.5"></rect>
                <g id="Group-12-whtie" transform="translate(6.000000, 6.000000)">
                    <path d="M3.33333333,10 C3.33333333,13.6818983 6.31810167,16.6666667 10,16.6666667 C13.6818983,16.6666667 16.6666667,13.6818983 16.6666667,10 C16.6666667,6.31810167 13.6818983,3.33333333 10,3.33333333" id="Oval-8" stroke="#FFFFFF" stroke-width="3.33333333" stroke-linecap="round" transform="translate(10.000000, 10.000000) rotate(-315.000000) translate(-10.000000, -10.000000) "></path>
                    <path d="M10,0.833333333 L10,0.833333333 C10.9204746,0.833333333 11.6666667,1.57952542 11.6666667,2.5 L11.6666667,9.16666667 C11.6666667,10.0871412 10.9204746,10.8333333 10,10.8333333 L10,10.8333333 C9.07952542,10.8333333 8.33333333,10.0871412 8.33333333,9.16666667 L8.33333333,2.5 C8.33333333,1.57952542 9.07952542,0.833333333 10,0.833333333 Z" id="Rectangle-29" fill="#FFFFFF"></path>
                </g>
            </g>
        </g>
    </g>
</svg>