<?xml version="1.0" encoding="UTF-8"?>
<svg width="24px" height="24px" viewBox="0 0 24 24" version="1.1" xmlns="http://www.w3.org/2000/svg" xmlns:xlink="http://www.w3.org/1999/xlink">
    <!-- Generator: Sketch 52.2 (67145) - http://www.bohemiancoding.com/sketch -->
    <title>icon_24_delete_disable</title>
    <desc>Created with Sketch.</desc>
    <g id="Page-1" stroke="none" stroke-width="1" fill="none" fill-rule="evenodd">
        <g id="主界面0928" transform="translate(-30.000000, -529.000000)" fill="#949494">
            <g id="bar_left-side" transform="translate(16.000000, 201.000000)">
                <g id="icon_24_delete_disable" transform="translate(14.000000, 328.000000)">
                    <path d="M4,7 L20,7 L20,20 C20,21.1045695 19.1045695,22 18,22 L6,22 C4.8954305,22 4,21.1045695 4,20 L4,7 Z M9,10 C8.44771525,10 8,10.4477153 8,11 L8,17 C8,17.5522847 8.44771525,18 9,18 L10,18 C10.5522847,18 11,17.5522847 11,17 L11,11 C11,10.4477153 10.5522847,10 10,10 L9,10 Z M14,10 C13.4477153,10 13,10.4477153 13,11 L13,17 C13,17.5522847 13.4477153,18 14,18 L15,18 C15.5522847,18 16,17.5522847 16,17 L16,11 C16,10.4477153 15.5522847,10 15,10 L14,10 Z" id="合并形状"></path>
                    <path d="M9,2 L15,2 C15.5522847,2 16,2.44771525 16,3 L16,5 L8,5 L8,3 C8,2.44771525 8.44771525,2 9,2 Z" id="Rectangle-63"></path>
                    <rect id="Rectangle-63-Copy" x="3" y="4" width="18" height="3" rx="1"></rect>
                </g>
            </g>
        </g>
    </g>
</svg>