<?xml version="1.0" encoding="UTF-8"?>
<svg width="32px" height="32px" viewBox="0 0 32 32" version="1.1" xmlns="http://www.w3.org/2000/svg" xmlns:xlink="http://www.w3.org/1999/xlink">
    <!-- Generator: Sketch 52.4 (67378) - http://www.bohemiancoding.com/sketch -->
    <title>btn_设置</title>
    <desc>Created with Sketch.</desc>
    <g id="迷你教室2.0" stroke="none" stroke-width="1" fill="none" fill-rule="evenodd">
        <g id="1920*1080（实际1920*970）教师" transform="translate(-1612.000000, -401.000000)" fill-rule="nonzero">
            <g id="分组-7" transform="translate(1500.000000, 401.000000)">
                <g id="btn_设置" transform="translate(112.000000, 0.000000)">
                    <g id="分组" transform="translate(5.000000, 5.000000)">
                        <rect id="矩形" x="0" y="0" width="22" height="22"></rect>
                        <path d="M3.86006779,8.57371437 C4.80473338,9.21932485 5.39827865,10.3051415 5.39827865,11.5 C5.39827865,12.6951224 4.80447162,13.7811207 3.85951332,14.426666 C3.99341169,14.7602283 4.15077901,15.0859797 4.33126463,15.4021615 C4.50960043,15.7145772 4.707189,16.0118377 4.92274138,16.2928055 C5.94872312,15.7918693 7.17678867,15.8165782 8.20212645,16.4153206 C9.22801825,17.0143865 9.86109497,18.077133 9.94156343,19.2247822 C10.643468,19.3239298 11.3558051,19.3250149 12.0583036,19.2266635 C12.1382098,18.0783407 12.7713877,17.0147333 13.7978735,16.4153206 C14.8235855,15.8163597 16.0521638,15.7918565 17.0783577,16.293342 C17.516184,15.723757 17.8730903,15.0951598 18.1399322,14.4262856 C17.1952666,13.7806751 16.6017214,12.6948585 16.6017214,11.5 C16.6017214,10.3048776 17.1955284,9.21887927 18.1404867,8.57333402 C18.0065883,8.23977166 17.849221,7.91402028 17.6687354,7.59783846 C17.4903996,7.28542279 17.292811,6.98816232 17.0772586,6.70719447 C16.0512769,7.20813075 14.8232113,7.18342178 13.7978735,6.58467942 C12.7719818,5.98561354 12.138905,4.92286699 12.0584366,3.77521782 C11.356532,3.67607019 10.6441949,3.67498515 9.94169637,3.77333646 C9.86179018,4.92165931 9.22861228,5.98526666 8.20212645,6.58467942 C7.17641446,7.18364031 5.94783619,7.2081435 4.9216423,6.70665801 C4.48381598,7.27624295 4.12690971,7.90484022 3.86006779,8.57371437 Z M11,15.2262251 C8.95914882,15.2262251 7.30795638,13.5561678 7.30795638,11.5 C7.30795638,9.44383215 8.95914882,7.77377495 11,7.77377495 C13.0408512,7.77377495 14.6920436,9.44383215 14.6920436,11.5 C14.6920436,13.5561678 13.0408512,15.2262251 11,15.2262251 Z" id="合并形状" stroke="#FFFFFF" stroke-width="1.40043034" fill="#FFFFFF"></path>
                    </g>
                    <circle id="椭圆形-copy" stroke="#FFFFFF" cx="16" cy="16" r="15.5"></circle>
                </g>
            </g>
        </g>
    </g>
</svg>