<?xml version="1.0" encoding="UTF-8"?>
<svg width="24px" height="24px" viewBox="0 0 24 24" version="1.1" xmlns="http://www.w3.org/2000/svg" xmlns:xlink="http://www.w3.org/1999/xlink">
    <!-- Generator: Sketch 52.4 (67378) - http://www.bohemiancoding.com/sketch -->
    <title>icon_24_selete 2</title>
    <desc>Created with Sketch.</desc>
    <g id="迷你教室2.0" stroke="none" stroke-width="1" fill="none" fill-rule="evenodd">
        <g id="1920*1080（实际1920*970）" transform="translate(-772.000000, -902.000000)">
            <g id="分组-copy-2" transform="translate(750.000000, 890.000000)">
                <g id="icon_24_selete-2" transform="translate(22.000000, 12.000000)">
                    <g id="icon_24_selete">
                        <g>
                            <rect id="bbg" x="0" y="0" width="24" height="24"></rect>
                            <g id="分组-2" transform="translate(4.285714, 3.428571)">
                                <path d="M1.63125282,5.57058389 C1.65886267,5.5711461 1.6865412,5.57142857 1.71428571,5.57142857 C3.88950718,5.57142857 5.65919593,3.83513661 5.71302424,1.6728804 L13.0551228,4.0568075 C13.540005,4.21424529 13.8054511,4.73494849 13.6480133,5.21983066 C13.5699352,5.46029843 13.396642,5.65821619 13.1685947,5.7673737 L9.92893177,7.31807596 L15.5468531,12.9359973 C15.9073371,13.2964813 15.9073371,13.8809413 15.5468531,14.2414252 L14.2414252,15.5468531 C13.8809413,15.9073371 13.2964813,15.9073371 12.9359973,15.5468531 L7.33410974,9.94496555 L5.77297723,13.1785368 C5.55133029,13.6376338 4.99947833,13.8301251 4.54038139,13.6084781 C4.31366928,13.499024 4.14149805,13.3017213 4.06375184,13.0622759 L1.63125282,5.57058389 Z" id="合并形状" fill="#BCBCBC"></path>
                                <path d="M9.92893177,7.31807596 L15.5468531,12.9359973 C15.9073371,13.2964813 15.9073371,13.8809413 15.5468531,14.2414252 L14.2414252,15.5468531 C13.8809413,15.9073371 13.2964813,15.9073371 12.9359973,15.5468531 L7.33410974,9.94496555 L5.77297723,13.1785368 C5.55133029,13.6376338 4.99947833,13.8301251 4.54038139,13.6084781 C4.31366928,13.499024 4.14149805,13.3017213 4.06375184,13.0622759 L0.294705054,1.45423926 C0.137267269,0.969357091 0.402713389,0.448653887 0.887595557,0.291216102 C1.07287872,0.231055978 1.27244504,0.231055978 1.45772821,0.291216102 L13.0551228,4.0568075 C13.540005,4.21424529 13.8054511,4.73494849 13.6480133,5.21983066 C13.5699352,5.46029843 13.396642,5.65821619 13.1685947,5.7673737 L9.92893177,7.31807596 Z" id="合并形状" stroke="#666666" stroke-width="2" stroke-linejoin="round"></path>
                            </g>
                        </g>
                    </g>
                </g>
            </g>
        </g>
    </g>
</svg>