<?xml version="1.0" encoding="UTF-8"?>
<svg width="25px" height="24px" viewBox="0 0 25 24" version="1.1" xmlns="http://www.w3.org/2000/svg" xmlns:xlink="http://www.w3.org/1999/xlink">
    <!-- Generator: Sketch 52.4 (67378) - http://www.bohemiancoding.com/sketch -->
    <title>icon_24_delete 2</title>
    <desc>Created with Sketch.</desc>
    <g id="迷你教室2.0" stroke="none" stroke-width="1" fill="none" fill-rule="evenodd">
        <g id="1920*1080（实际1920*970）" transform="translate(-916.000000, -902.000000)">
            <g id="分组-copy-2" transform="translate(750.000000, 890.000000)">
                <g id="icon_24_delete-2" transform="translate(166.000000, 12.000000)">
                    <g id="icon_24_delete">
                        <g>
                            <path d="M6,8 L6,20 C6,20.5522847 6.44771525,21 7,21 L18,21 C18.5522847,21 19,20.5522847 19,20 L19,8 L6,8 Z" id="Rectangle-63-Copy-2" stroke="#666666" stroke-width="2"></path>
                            <rect id="Rectangle-64" fill="#666666" x="9" y="11" width="2" height="6" rx="1"></rect>
                            <rect id="Rectangle-64-Copy" fill="#666666" x="14" y="11" width="2" height="6" rx="1"></rect>
                            <path d="M16.7222222,5 L21,5 C21.5522847,5 22,5.44771525 22,6 L22,7 C22,7.55228475 21.5522847,8 21,8 L4,8 C3.44771525,8 3,7.55228475 3,7 L3,6 C3,5.44771525 3.44771525,5 4,5 L8.27777778,5 L8.27777778,4 C8.27777778,3.44771525 8.72549303,3 9.27777778,3 L15.7222222,3 C16.274507,3 16.7222222,3.44771525 16.7222222,4 L16.7222222,5 Z" id="合并形状" stroke="#666666" stroke-width="2" fill="#BCBCBC" stroke-linejoin="round"></path>
                        </g>
                    </g>
                </g>
            </g>
        </g>
    </g>
</svg>