<?xml version="1.0" encoding="UTF-8"?>
<svg width="14px" height="14px" viewBox="0 0 14 14" version="1.1" xmlns="http://www.w3.org/2000/svg" xmlns:xlink="http://www.w3.org/1999/xlink">
    <!-- Generator: Sketch 51.2 (57519) - http://www.bohemiancoding.com/sketch -->
    <title>btn_close</title>
    <desc>Created with Sketch.</desc>
    <defs></defs>
    <g id="Page-1" stroke="none" stroke-width="1" fill="none" fill-rule="evenodd">
        <g id="弹窗" transform="translate(-845.000000, -116.000000)" fill="#A8A8A8">
            <g id="pop_cam&amp;mic-ban" transform="translate(213.000000, 104.000000)">
                <g id="btn_close" transform="translate(632.000000, 12.000000)">
                    <g id="icon_14_close">
                        <g id="Combined-Shape">
                            <path d="M8.41421356,7 L11.9497475,10.5355339 C12.3402718,10.9260582 12.3402718,11.5592232 11.9497475,11.9497475 C11.5592232,12.3402718 10.9260582,12.3402718 10.5355339,11.9497475 L7,8.41421356 L3.46446609,11.9497475 C3.0739418,12.3402718 2.44077682,12.3402718 2.05025253,11.9497475 C1.65972824,11.5592232 1.65972824,10.9260582 2.05025253,10.5355339 L5.58578644,7 L2.05025253,3.46446609 C1.65972824,3.0739418 1.65972824,2.44077682 2.05025253,2.05025253 C2.44077682,1.65972824 3.0739418,1.65972824 3.46446609,2.05025253 L7,5.58578644 L10.5355339,2.05025253 C10.9260582,1.65972824 11.5592232,1.65972824 11.9497475,2.05025253 C12.3402718,2.44077682 12.3402718,3.0739418 11.9497475,3.46446609 L8.41421356,7 Z" transform="translate(7.000000, 7.000000) rotate(-360.000000) translate(-7.000000, -7.000000) "></path>
                        </g>
                    </g>
                </g>
            </g>
        </g>
    </g>
</svg>