<?xml version="1.0" encoding="UTF-8"?>
<svg width="78px" height="78px" viewBox="0 0 78 78" version="1.1" xmlns="http://www.w3.org/2000/svg" xmlns:xlink="http://www.w3.org/1999/xlink">
    <!-- Generator: Sketch 51.2 (57519) - http://www.bohemiancoding.com/sketch -->
    <title>btn_播放视频</title>
    <desc>Created with Sketch.</desc>
    <defs></defs>
    <g id="设计稿" stroke="none" stroke-width="1" fill="none" fill-rule="evenodd">
        <g id="ImClass官网--功能概述" transform="translate(-616.000000, -1136.000000)" fill-rule="nonzero">
            <g id="申请试用" transform="translate(0.000000, 900.000000)">
                <g id="btn_播放视频" transform="translate(616.000000, 236.000000)">
                    <circle id="Oval-3" fill="#D95043" cx="39" cy="39" r="39"></circle>
                    <path d="M44.9961509,31.5775597 L54.7239329,46.1692327 C55.6429903,47.5478188 55.2704687,49.4104268 53.8918826,50.3294842 C53.3990801,50.6580193 52.820057,50.8333333 52.2277821,50.8333333 L32.7722179,50.8333333 C31.1153637,50.8333333 29.7722179,49.4901876 29.7722179,47.8333333 C29.7722179,47.2410584 29.947532,46.6620353 30.2760671,46.1692327 L40.0038491,31.5775597 C40.9229065,30.1989736 42.7855145,29.826452 44.1641006,30.7455094 C44.4936575,30.9652139 44.7764463,31.2480028 44.9961509,31.5775597 Z" id="Triangle" fill="#FFFFFF" transform="translate(42.500000, 39.333333) rotate(-270.000000) translate(-42.500000, -39.333333) "></path>
                </g>
            </g>
        </g>
    </g>
</svg>