<?xml version="1.0" encoding="UTF-8"?>
<svg width="160px" height="48px" viewBox="0 0 160 48" version="1.1" xmlns="http://www.w3.org/2000/svg" xmlns:xlink="http://www.w3.org/1999/xlink">
    <!-- Generator: Sketch 51.2 (57519) - http://www.bohemiancoding.com/sketch -->
    <title>header_logo</title>
    <desc>Created with Sketch.</desc>
    <defs>
        <polygon id="path-1" points="0 48 160 48 160 0 0 0"></polygon>
    </defs>
    <g id="设计稿" stroke="none" stroke-width="1" fill="none" fill-rule="evenodd">
        <g id="ImClass官网--功能概述" transform="translate(-360.000000, -12.000000)">
            <g id="header">
                <g id="header_logo" transform="translate(360.000000, 12.000000)">
                    <path d="M64.00798,18.3784 C64.00798,19.2339 63.31448,19.9274 62.45898,19.9274 C61.60348,19.9274 60.90998,19.2339 60.90998,18.3784 C60.90998,17.5229 61.60348,16.8294 62.45898,16.8294 C63.31448,16.8294 64.00798,17.5229 64.00798,18.3784" id="Fill-1" fill="#FFFFFF"></path>
                    <mask id="mask-2" fill="white">
                        <use xlink:href="#path-1"></use>
                    </mask>
                    <g id="Clip-4"></g>
                    <polygon id="Fill-3" fill="#FFFFFF" mask="url(#mask-2)" points="105.4328 35.9596 108.5308 35.9596 108.5308 12.0276 105.4328 12.0276"></polygon>
                    <path d="M81.63845,21.1619 C79.78025,21.1298 78.10495,21.931 76.96135,23.2154 C75.83985,21.9558 74.20705,21.161 72.39175,21.161 C69.01805,21.161 66.27325,23.9057 66.27325,27.2795 L66.27325,35.9596 L69.37125,35.9596 L69.37125,27.2795 C69.37125,25.614 70.72625,24.259 72.39175,24.259 C74.05735,24.259 75.41235,25.614 75.41235,27.2795 L75.41235,35.9596 L78.51035,35.9596 L78.51035,27.2795 C78.51035,25.5768 79.92645,24.1987 81.64275,24.261 C83.27275,24.3202 84.55145,25.6858 84.55145,27.3169 L84.55145,35.9596 L87.64945,35.9596 L87.64945,27.3349 C87.64945,24.0277 84.94515,21.219 81.63845,21.1619" id="Fill-5" fill="#FFFFFF" mask="url(#mask-2)"></path>
                    <path d="M102.56904,32.86156 C100.20034,32.86156 97.97334,31.93906 96.29844,30.26416 C94.62344,28.58916 93.70104,26.36226 93.70104,23.99356 C93.70104,21.62476 94.62344,19.39786 96.29844,17.72286 C97.97334,16.04796 100.20034,15.12556 102.56904,15.12556 L102.56904,12.02756 C95.96044,12.02756 90.60304,17.38486 90.60304,23.99356 C90.60304,30.60216 95.96044,35.95956 102.56904,35.95956 L102.56904,32.86156 Z" id="Fill-6" fill="#FFFFFF" mask="url(#mask-2)"></path>
                    <path d="M120.7804,31.60257 C119.9685,32.41447 118.8891,32.86157 117.7409,32.86157 C116.5928,32.86157 115.5133,32.41447 114.7015,31.60257 C113.8795,30.78067 113.4314,29.68447 113.4427,28.52037 C113.4534,27.41247 113.8955,26.34497 114.6714,25.55397 C115.4866,24.72287 116.5785,24.26457 117.7409,24.26457 C118.8891,24.26457 119.9685,24.71177 120.7804,25.52357 C121.5923,26.33547 122.0394,27.41497 122.0394,28.56307 C122.0394,29.71117 121.5923,30.79067 120.7804,31.60257 Z M125.1374,28.56307 C125.1374,23.92437 120.8672,20.28307 116.0434,21.35547 C113.2989,21.96567 111.1436,24.12097 110.5334,26.86547 C109.4609,31.68937 113.1022,35.95957 117.7409,35.95957 C119.344,35.95957 120.8279,35.44937 122.0394,34.58267 L122.0394,35.95957 L125.1374,35.95957 L125.1374,28.56307 Z" id="Fill-7" fill="#FFFFFF" mask="url(#mask-2)"></path>
                    <polygon id="Fill-8" fill="#FFFFFF" mask="url(#mask-2)" points="60.91 35.9596 64.008 35.9596 64.008 21.1667 60.91 21.1667"></polygon>
                    <path d="M131.86201,27.01576 C131.07351,27.01576 130.43781,26.34936 130.48841,25.55026 C130.53321,24.84116 131.17671,24.26286 131.88721,24.26286 L134.08311,24.26286 L134.08311,21.16096 L131.90951,21.16096 C129.47461,21.16096 127.44851,23.08586 127.38521,25.51996 C127.31941,28.04776 129.34901,30.11766 131.86201,30.11766 C132.65051,30.11766 133.28621,30.78396 133.23571,31.58306 C133.19081,32.29226 132.54741,32.87056 131.83681,32.87056 L128.38881,32.87056 L128.38881,35.97246 L131.81461,35.97246 C134.24941,35.97246 136.27551,34.04756 136.33881,31.61346 C136.40451,29.08566 134.37501,27.01576 131.86201,27.01576" id="Fill-9" fill="#FFFFFF" mask="url(#mask-2)"></path>
                    <path d="M141.31089,27.01576 C140.52239,27.01576 139.88669,26.34936 139.93729,25.55026 C139.98209,24.84116 140.62559,24.26286 141.33609,24.26286 L143.53199,24.26286 L143.53199,21.16096 L141.35839,21.16096 C138.92349,21.16096 136.89739,23.08586 136.83409,25.51996 C136.76829,28.04776 138.79789,30.11766 141.31089,30.11766 C142.09939,30.11766 142.73509,30.78396 142.68459,31.58306 C142.63969,32.29226 141.99629,32.87056 141.28569,32.87056 L137.83769,32.87056 L137.83769,35.97246 L141.26349,35.97246 C143.69829,35.97246 145.72439,34.04756 145.78769,31.61346 C145.85339,29.08566 143.82389,27.01576 141.31089,27.01576" id="Fill-10" fill="#FFFFFF" mask="url(#mask-2)"></path>
                    <path d="M42.58369,38.69779 C42.56059,38.66649 42.53829,38.63429 42.51749,38.60119 L42.58369,38.69779 Z" id="Fill-11" fill="#FFFFFF" mask="url(#mask-2)"></path>
                    <path d="M51.26301,15.23397 L51.26301,32.76227 L45.10901,38.91637 C44.80571,39.20547 44.39471,39.38307 43.94281,39.38307 C43.86011,39.38307 43.77911,39.37707 43.69961,39.36567 L43.69961,8.27167 C44.10111,8.29507 44.46511,8.45857 44.74321,8.71437 L44.84411,8.81527 L51.26301,15.23397 Z" id="Fill-12" fill="#FFFFFF" mask="url(#mask-2)"></path>
                    <path d="M43.69966,8.27171 L43.69966,21.57041 L37.83156,26.48651 L32.50596,23.99801 L29.47986,19.58391 L42.48296,8.69011 L42.54776,8.63591 C42.83656,8.40601 43.20206,8.26871 43.59966,8.26871 C43.63326,8.26871 43.66656,8.26961 43.69966,8.27171" id="Fill-13" fill="#FFFFFF" mask="url(#mask-2)"></path>
                    <path d="M35.5325,28.41258 L22.6127,39.23628 L22.6118,39.23728 L22.5748,39.26828 L22.425,39.39378 L22.387,39.42568 L22.3859,39.42638 C22.1117,39.61858 21.7779,39.73138 21.4176,39.73138 C21.3824,39.73138 21.3475,39.73018 21.3127,39.72808 L21.3127,26.42608 L27.1808,21.50978 L32.506,23.99798 L35.5325,28.41258 Z" id="Fill-14" fill="#FFFFFF" mask="url(#mask-2)"></path>
                    <path d="M32.50596,23.99803 L27.18086,21.50983 L21.31276,18.76803 L21.31276,8.62943 C21.75706,8.69283 22.14556,8.92943 22.40806,9.26863 L22.40836,9.26883 L22.51716,9.42773 L22.51826,9.42953 L29.47986,19.58393 L32.50596,23.99803 Z" id="Fill-15" fill="#FFFFFF" mask="url(#mask-2)"></path>
                    <path d="M43.69966,29.22826 L43.69966,39.36576 C43.24356,39.29996 42.84646,39.05226 42.58416,38.69846 L42.58366,38.69776 L42.51746,38.60116 L42.51606,38.59936 L42.51586,38.59896 L42.51426,38.59636 L35.53246,28.41256 L32.50596,23.99806 L37.83156,26.48656 L43.69966,29.22826 Z" id="Fill-16" fill="#FFFFFF" mask="url(#mask-2)"></path>
                    <path d="M18.22036,16.93548 C18.22036,17.33668 17.87766,17.65778 17.46896,17.62208 C17.12306,17.59178 16.84176,17.26658 16.84176,16.91938 L16.84176,15.23008 C16.84176,14.88288 17.12306,14.55758 17.46896,14.52728 C17.87766,14.49158 18.22036,14.81268 18.22036,15.21398 L18.22036,16.93548 Z M21.07076,8.61208 C20.61996,8.61208 20.21046,8.78848 19.90736,9.07628 C19.90646,9.07698 13.74936,15.23398 13.74936,15.23398 L13.74936,32.76228 L16.84176,35.85468 L16.84176,19.94798 C16.84176,19.60078 17.12306,19.27548 17.46896,19.24528 C17.87766,19.20948 18.22036,19.53068 18.22036,19.93178 L18.22036,37.23328 L20.19116,39.20418 C20.19216,39.20528 20.19306,39.20618 20.19426,39.20738 L20.25136,39.26458 C20.25256,39.26568 20.25366,39.26668 20.25466,39.26758 C20.53406,39.53268 20.90366,39.70308 21.31276,39.72808 L21.31276,8.62938 C21.23376,8.61788 21.15296,8.61208 21.07076,8.61208 Z" id="Fill-17" fill="#FFFFFF" mask="url(#mask-2)"></path>
                </g>
            </g>
        </g>
    </g>
</svg>