<?xml version="1.0" encoding="UTF-8"?>
<svg width="24px" height="24px" viewBox="0 0 24 24" version="1.1" xmlns="http://www.w3.org/2000/svg" xmlns:xlink="http://www.w3.org/1999/xlink">
    <!-- Generator: Sketch 52.4 (67378) - http://www.bohemiancoding.com/sketch -->
    <title>ico_多种视频授课方式</title>
    <desc>Created with Sketch.</desc>
    <g id="Page-1" stroke="none" stroke-width="1" fill="none" fill-rule="evenodd">
        <g id="ImClass微课堂" transform="translate(-1026.000000, -1635.000000)" fill="#333333">
            <g id="功能特点" transform="translate(360.000000, 1389.000000)">
                <g id="功能简洁实用" transform="translate(650.000000, 221.000000)">
                    <g id="ico_实时屏幕共享-2" transform="translate(16.000000, 25.000000)">
                        <g id="ico_多种视频授课方式">
                            <g id="Group-6" transform="translate(3.000000, 3.000000)">
                                <path d="M1.8,6.3 L6.3,6.3 L6.3,1.8 L1.8,1.8 L1.8,6.3 Z M7.2,8.1 L0.9,8.1 C0.36,8.1 0,7.74 0,7.2 L0,0.9 C0,0.36 0.36,0 0.9,0 L7.2,0 C7.74,0 8.1,0.36 8.1,0.9 L8.1,7.2 C8.1,7.74 7.74,8.1 7.2,8.1 Z" id="Fill-1"></path>
                                <path d="M17.1,0 L10.8,0 C10.26,0 9.9,0.36 9.9,0.9 L9.9,7.2 C9.9,7.74 10.26,8.1 10.8,8.1 L17.1,8.1 C17.64,8.1 18,7.74 18,7.2 L18,0.9 C18,0.36 17.64,0 17.1,0" id="Fill-3"></path>
                                <path d="M7.2,9.9 L0.9,9.9 C0.36,9.9 0,10.26 0,10.8 L0,17.1 C0,17.64 0.36,18 0.9,18 L7.2,18 C7.74,18 8.1,17.64 8.1,17.1 L8.1,10.8 C8.1,10.26 7.74,9.9 7.2,9.9" id="Fill-4"></path>
                                <path d="M11.7,16.2 L16.2,16.2 L16.2,11.7 L11.7,11.7 L11.7,16.2 Z M17.1,18 L10.8,18 C10.26,18 9.9,17.64 9.9,17.1 L9.9,10.8 C9.9,10.26 10.26,9.9 10.8,9.9 L17.1,9.9 C17.64,9.9 18,10.26 18,10.8 L18,17.1 C18,17.64 17.64,18 17.1,18 Z" id="Fill-5"></path>
                            </g>
                        </g>
                    </g>
                </g>
            </g>
        </g>
    </g>
</svg>