<?xml version="1.0" encoding="UTF-8"?>
<svg width="64px" height="64px" viewBox="0 0 64 64" version="1.1" xmlns="http://www.w3.org/2000/svg" xmlns:xlink="http://www.w3.org/1999/xlink">
    <!-- Generator: Sketch 51.2 (57519) - http://www.bohemiancoding.com/sketch -->
    <title>ico_android</title>
    <desc>Created with Sketch.</desc>
    <defs></defs>
    <g id="设计稿" stroke="none" stroke-width="1" fill="none" fill-rule="evenodd">
        <g id="技术支持" transform="translate(-776.000000, -1101.000000)" fill-rule="nonzero">
            <g id="Group-5" transform="translate(665.000000, 1009.000000)">
                <g id="Android" transform="translate(79.000000, 92.000000)">
                    <g id="ico_android" transform="translate(32.000000, 0.000000)">
                        <rect id="Rectangle-path" fill="#000000" opacity="0" x="0" y="0" width="64" height="64"></rect>
                        <path d="M25.40625,19.09375 C25.7395833,19.09375 26.0260417,18.9739583 26.265625,18.734375 C26.5052083,18.4947917 26.625,18.2083333 26.625,17.875 C26.625,17.5416667 26.5052083,17.2552083 26.265625,17.015625 C26.0260417,16.7760417 25.7395833,16.65625 25.40625,16.65625 C25.0729167,16.65625 24.7916667,16.7760417 24.5625,17.015625 C24.3333333,17.2552083 24.21875,17.5416667 24.21875,17.875 C24.21875,18.2083333 24.3333333,18.4947917 24.5625,18.734375 C24.7916667,18.9739583 25.0729167,19.09375 25.40625,19.09375 Z M38.59375,19.09375 C38.9270833,19.09375 39.2083333,18.9739583 39.4375,18.734375 C39.6666667,18.4947917 39.78125,18.2083333 39.78125,17.875 C39.78125,17.5416667 39.6666667,17.2552083 39.4375,17.015625 C39.2083333,16.7760417 38.9270833,16.65625 38.59375,16.65625 C38.2604167,16.65625 37.9739583,16.7760417 37.734375,17.015625 C37.4947917,17.2552083 37.375,17.5416667 37.375,17.875 C37.375,18.2083333 37.4947917,18.4947917 37.734375,18.734375 C37.9739583,18.9739583 38.2604167,19.09375 38.59375,19.09375 Z M13.21875,24.84375 C14.09375,24.84375 14.84375,25.15625 15.46875,25.78125 C16.09375,26.40625 16.40625,27.15625 16.40625,28.03125 L16.40625,41.46875 C16.40625,42.3645833 16.0989583,43.125 15.484375,43.75 C14.8697917,44.375 14.1145833,44.6875 13.21875,44.6875 C12.3229167,44.6875 11.5625,44.375 10.9375,43.75 C10.3125,43.125 10,42.3645833 10,41.46875 L10,28.03125 C10,27.15625 10.3125,26.40625 10.9375,25.78125 C11.5625,25.15625 12.3229167,24.84375 13.21875,24.84375 Z M46.34375,25.4375 L46.34375,46.25 C46.34375,47.2083333 46.0104167,48.0208333 45.34375,48.6875 C44.6770833,49.3541667 43.875,49.6875 42.9375,49.6875 L40.59375,49.6875 L40.59375,56.78125 C40.59375,57.6770833 40.28125,58.4375 39.65625,59.0625 C39.03125,59.6875 38.2708333,60 37.375,60 C36.4791667,60 35.71875,59.6875 35.09375,59.0625 C34.46875,58.4375 34.15625,57.6770833 34.15625,56.78125 L34.15625,49.6875 L29.84375,49.6875 L29.84375,56.78125 C29.84375,57.6770833 29.53125,58.4375 28.90625,59.0625 C28.28125,59.6875 27.5208333,60 26.625,60 C25.75,60 25,59.6875 24.375,59.0625 C23.75,58.4375 23.4375,57.6770833 23.4375,56.78125 L23.40625,49.6875 L21.09375,49.6875 C20.1354167,49.6875 19.3229167,49.3541667 18.65625,48.6875 C17.9895833,48.0208333 17.65625,47.2083333 17.65625,46.25 L17.65625,25.4375 L46.34375,25.4375 Z M39.09375,12.78125 C41.3229167,13.9270833 43.1041667,15.5260417 44.4375,17.578125 C45.7708333,19.6302083 46.4375,21.875 46.4375,24.3125 L17.53125,24.3125 C17.53125,21.875 18.1979167,19.6302083 19.53125,17.578125 C20.8645833,15.5260417 22.65625,13.9270833 24.90625,12.78125 L22.6875,8.6875 C22.5416667,8.41666667 22.59375,8.20833333 22.84375,8.0625 C23.1145833,7.9375 23.3229167,8 23.46875,8.25 L25.71875,12.375 C27.6979167,11.5 29.7916667,11.0625 32,11.0625 C34.2083333,11.0625 36.3020833,11.5 38.28125,12.375 L40.53125,8.25 C40.6770833,8 40.8854167,7.9375 41.15625,8.0625 C41.40625,8.20833333 41.4583333,8.41666667 41.3125,8.6875 L39.09375,12.78125 Z M54,28.03125 L54,41.46875 C54,42.3645833 53.6875,43.125 53.0625,43.75 C52.4375,44.375 51.6770833,44.6875 50.78125,44.6875 C49.90625,44.6875 49.15625,44.375 48.53125,43.75 C47.90625,43.125 47.59375,42.3645833 47.59375,41.46875 L47.59375,28.03125 C47.59375,27.1354167 47.90625,26.3802083 48.53125,25.765625 C49.15625,25.1510417 49.90625,24.84375 50.78125,24.84375 C51.6770833,24.84375 52.4375,25.1510417 53.0625,25.765625 C53.6875,26.3802083 54,27.1354167 54,28.03125 Z" id="Shape" fill="#D95043"></path>
                    </g>
                </g>
            </g>
        </g>
    </g>
</svg>