<?xml version="1.0" encoding="UTF-8"?>
<svg width="24px" height="24px" viewBox="0 0 24 24" version="1.1" xmlns="http://www.w3.org/2000/svg" xmlns:xlink="http://www.w3.org/1999/xlink">
    <!-- Generator: Sketch 51.2 (57519) - http://www.bohemiancoding.com/sketch -->
    <title>ico_用户名</title>
    <desc>Created with Sketch.</desc>
    <defs></defs>
    <g id="设计稿" stroke="none" stroke-width="1" fill="none" fill-rule="evenodd">
        <g id="教务登录" transform="translate(-1016.000000, -409.000000)" fill-rule="nonzero">
            <g id="账号输入框" transform="translate(1000.000000, 399.000000)">
                <g id="联系人" transform="translate(16.000000, 10.000000)">
                    <rect id="Rectangle-path" fill="#000000" opacity="0" x="0" y="0" width="24" height="24"></rect>
                    <path d="M14.548692,12.6299809 C16.4878253,11.6802008 17.8371744,9.70533178 17.8371744,7.40490748 C17.8371744,4.18535433 15.2188696,1.56707353 12.0006116,1.56707353 C8.78105843,1.56707353 6.16277763,4.18535433 6.16277763,7.40490748 C6.16277763,9.70533178 7.51212677,11.6802008 9.45255516,12.6299809 C5.51555245,13.7444333 2.62023548,17.3610132 2.62023548,21.6490899 C2.62023548,22.0818525 2.97255661,22.4329265 3.4053192,22.4329265 C3.83808178,22.4329265 4.19042688,22.0818525 4.19042688,21.6490899 C4.19042688,17.3418742 7.69339587,13.836363 12.0006116,13.836363 C16.3078513,13.836363 19.8107963,17.3418742 19.8107963,21.6490899 C19.8107963,22.0818525 20.1618463,22.4329265 20.5946328,22.4329265 C21.0286905,22.4329265 21.3797165,22.0818525 21.3797165,21.6490899 C21.3797166,17.3610132 18.4844236,13.7444333 14.548692,12.6299809 Z M7.7317219,7.40490748 C7.7317219,5.0508795 9.6466076,3.13472266 12.0006356,3.13472266 C14.3533924,3.13472266 16.2682781,5.0508795 16.2682781,7.40490748 C16.2682781,9.7576643 14.3533684,11.67255 12.0006356,11.67255 C9.64658362,11.67255 7.7317219,9.7576643 7.7317219,7.40490748 Z" id="Shape" fill="#666666"></path>
                </g>
            </g>
        </g>
    </g>
</svg>