<?xml version="1.0" encoding="UTF-8"?>
<svg width="24px" height="24px" viewBox="0 0 24 24" version="1.1" xmlns="http://www.w3.org/2000/svg" xmlns:xlink="http://www.w3.org/1999/xlink">
    <!-- Generator: Sketch 52.4 (67378) - http://www.bohemiancoding.com/sketch -->
    <title>ico_多种视频授课方式 2</title>
    <desc>Created with Sketch.</desc>
    <g id="Page-1" stroke="none" stroke-width="1" fill="none" fill-rule="evenodd">
        <g id="ImClass微课堂" transform="translate(-1026.000000, -1711.000000)" fill="#444444">
            <g id="功能特点" transform="translate(360.000000, 1389.000000)">
                <g id="移动教学场景" transform="translate(650.000000, 295.000000)">
                    <g id="ico_多种视频授课方式-2" transform="translate(16.000000, 27.000000)">
                        <g id="ico_云授课">
                            <g transform="translate(2.000000, 3.000000)" id="分组">
                                <g>
                                    <path d="M5,10 C3.3,10 2,11.3 2,13 C2,14.7 3.3,16 5,16 L13,16 C15.8,16 18,13.8 18,11 C18,8.2 15.8,6 13,6 C10.7,6 8.7,7.6 8.1,9.9 C8,10.2 7.8,10.5 7.5,10.6 C7.2,10.7 6.9,10.7 6.6,10.5 C6.1,10.2 5.6,10 5,10 M13,18 L5,18 C2.2,18 0,15.8 0,13 C0,10.2 2.2,8 5,8 C5.5,8 6.1,8.1 6.6,8.3 C7.7,5.7 10.2,4 13,4 C16.9,4 20,7.1 20,11 C20,14.9 16.9,18 13,18" id="Fill-1"></path>
                                    <path d="M2,7 C1.4,7 1,6.6 1,6 C1,2.7 3.7,0 7,0 C8.3,0 9.6,0.4 10.6,1.2 C11,1.5 11.1,2.2 10.8,2.6 C10.5,3 9.8,3.1 9.4,2.8 C8.7,2.3 7.9,2 7,2 C4.8,2 3,3.8 3,6 C3,6.6 2.6,7 2,7" id="Fill-3"></path>
                                </g>
                            </g>
                        </g>
                    </g>
                </g>
            </g>
        </g>
    </g>
</svg>