<?xml version="1.0" encoding="UTF-8"?>
<svg width="64px" height="64px" viewBox="0 0 64 64" version="1.1" xmlns="http://www.w3.org/2000/svg" xmlns:xlink="http://www.w3.org/1999/xlink">
    <!-- Generator: Sketch 51.2 (57519) - http://www.bohemiancoding.com/sketch -->
    <title>ico_iOS</title>
    <desc>Created with Sketch.</desc>
    <defs></defs>
    <g id="设计稿" stroke="none" stroke-width="1" fill="none" fill-rule="evenodd">
        <g id="技术支持" transform="translate(-471.000000, -1101.000000)" fill-rule="nonzero">
            <g id="Group-2" transform="translate(360.000000, 1009.000000)">
                <g id="iOS" transform="translate(79.000000, 92.000000)">
                    <g id="ico_iOS" transform="translate(32.000000, 0.000000)">
                        <rect id="Rectangle-path" fill="#000000" opacity="0" x="0" y="0" width="64" height="64"></rect>
                        <path d="M53.53125,41.96875 C52.71875,44.5729167 51.4375,47.1770833 49.6875,49.78125 C47,53.8645833 44.3229167,55.90625 41.65625,55.90625 C40.6354167,55.90625 39.1770833,55.5729167 37.28125,54.90625 C35.4895833,54.2395833 33.9166667,53.90625 32.5625,53.90625 C31.2916667,53.90625 29.8125,54.25 28.125,54.9375 C26.4375,55.6458333 25.0625,56 24,56 C20.8333333,56 17.6979167,53.3020833 14.59375,47.90625 C11.53125,42.46875 10,37.2291667 10,32.1875 C10,27.4375 11.1770833,23.5416667 13.53125,20.5 C15.8645833,17.5 18.8229167,16 22.40625,16 C23.90625,16 25.75,16.3125 27.9375,16.9375 C30.1041667,17.5625 31.5416667,17.875 32.25,17.875 C33.1875,17.875 34.6770833,17.5208333 36.71875,16.8125 C38.84375,16.1041667 40.6458333,15.75 42.125,15.75 C44.6041667,15.75 46.8229167,16.4270833 48.78125,17.78125 C49.8645833,18.53125 50.9479167,19.5729167 52.03125,20.90625 C50.3854167,22.3020833 49.1979167,23.53125 48.46875,24.59375 C47.1145833,26.5520833 46.4375,28.7083333 46.4375,31.0625 C46.4375,33.6458333 47.15625,35.96875 48.59375,38.03125 C50.03125,40.09375 51.6770833,41.40625 53.53125,41.96875 Z M41.78125,5.3125 C41.78125,6.58333333 41.4791667,8 40.875,9.5625 C40.25,11.125 39.28125,12.5625 37.96875,13.875 C36.84375,15 35.71875,15.75 34.59375,16.125 C33.8229167,16.3541667 32.7395833,16.53125 31.34375,16.65625 C31.40625,13.5520833 32.21875,10.875 33.78125,8.625 C35.3229167,6.39583333 37.9270833,4.85416667 41.59375,4 C41.6145833,4.0625 41.640625,4.17708333 41.671875,4.34375 C41.703125,4.51041667 41.7291667,4.625 41.75,4.6875 C41.75,4.77083333 41.8020833,4.875 41.90625,5 C42.0104167,5.125 42.0625,5.22916667 42.0625,5.3125 L41.78125,5.3125 Z" id="Shape" fill="#D95043"></path>
                    </g>
                </g>
            </g>
        </g>
    </g>
</svg>