<?xml version="1.0" encoding="UTF-8"?>
<svg width="26px" height="26px" viewBox="0 0 26 26" version="1.1" xmlns="http://www.w3.org/2000/svg" xmlns:xlink="http://www.w3.org/1999/xlink">
    <!-- Generator: Sketch 52.4 (67378) - http://www.bohemiancoding.com/sketch -->
    <title>ico_android</title>
    <desc>Created with Sketch.</desc>
    <g id="Page-1" stroke="none" stroke-width="1" fill="none" fill-rule="evenodd">
        <g id="ImClass微课堂" transform="translate(-1327.000000, -3332.000000)" fill-rule="nonzero">
            <g id="家长端" transform="translate(1160.000000, 2952.000000)">
                <g id="分组-2-copy-3" transform="translate(120.000000, 369.000000)">
                    <g id="分组-4" transform="translate(47.000000, 11.000000)">
                        <g id="ico_android">
                            <rect id="Rectangle-path" fill="#000000" opacity="0" x="0" y="0" width="26" height="26"></rect>
                            <path d="M10.3212891,7.75683594 C10.4567057,7.75683594 10.5730794,7.70817057 10.6704102,7.61083984 C10.7677409,7.51350911 10.8164062,7.39713542 10.8164062,7.26171875 C10.8164062,7.12630208 10.7677409,7.00992839 10.6704102,6.91259766 C10.5730794,6.81526693 10.4567057,6.76660156 10.3212891,6.76660156 C10.1858724,6.76660156 10.0716146,6.81526693 9.97851562,6.91259766 C9.88541667,7.00992839 9.83886719,7.12630208 9.83886719,7.26171875 C9.83886719,7.39713542 9.88541667,7.51350911 9.97851562,7.61083984 C10.0716146,7.70817057 10.1858724,7.75683594 10.3212891,7.75683594 Z M15.6787109,7.75683594 C15.8141276,7.75683594 15.9283854,7.70817057 16.0214844,7.61083984 C16.1145833,7.51350911 16.1611328,7.39713542 16.1611328,7.26171875 C16.1611328,7.12630208 16.1145833,7.00992839 16.0214844,6.91259766 C15.9283854,6.81526693 15.8141276,6.76660156 15.6787109,6.76660156 C15.5432943,6.76660156 15.4269206,6.81526693 15.3295898,6.91259766 C15.2322591,7.00992839 15.1835938,7.12630208 15.1835938,7.26171875 C15.1835938,7.39713542 15.2322591,7.51350911 15.3295898,7.61083984 C15.4269206,7.70817057 15.5432943,7.75683594 15.6787109,7.75683594 Z M5.37011719,10.0927734 C5.72558594,10.0927734 6.03027344,10.2197266 6.28417969,10.4736328 C6.53808594,10.7275391 6.66503906,11.0322266 6.66503906,11.3876953 L6.66503906,16.8466797 C6.66503906,17.210612 6.54020182,17.5195312 6.29052734,17.7734375 C6.04085286,18.0273438 5.73404948,18.1542969 5.37011719,18.1542969 C5.0061849,18.1542969 4.69726562,18.0273438 4.44335938,17.7734375 C4.18945312,17.5195312 4.0625,17.210612 4.0625,16.8466797 L4.0625,11.3876953 C4.0625,11.0322266 4.18945312,10.7275391 4.44335938,10.4736328 C4.69726562,10.2197266 5.0061849,10.0927734 5.37011719,10.0927734 Z M18.8271484,10.3339844 L18.8271484,18.7890625 C18.8271484,19.1783854 18.6917318,19.5084635 18.4208984,19.7792969 C18.1500651,20.0501302 17.8242188,20.1855469 17.4433594,20.1855469 L16.4912109,20.1855469 L16.4912109,23.0673828 C16.4912109,23.4313151 16.3642578,23.7402344 16.1103516,23.9941406 C15.8564453,24.2480469 15.547526,24.375 15.1835938,24.375 C14.8196615,24.375 14.5107422,24.2480469 14.2568359,23.9941406 C14.0029297,23.7402344 13.8759766,23.4313151 13.8759766,23.0673828 L13.8759766,20.1855469 L12.1240234,20.1855469 L12.1240234,23.0673828 C12.1240234,23.4313151 11.9970703,23.7402344 11.7431641,23.9941406 C11.4892578,24.2480469 11.1803385,24.375 10.8164062,24.375 C10.4609375,24.375 10.15625,24.2480469 9.90234375,23.9941406 C9.6484375,23.7402344 9.52148438,23.4313151 9.52148438,23.0673828 L9.50878906,20.1855469 L8.56933594,20.1855469 C8.18001302,20.1855469 7.8499349,20.0501302 7.57910156,19.7792969 C7.30826823,19.5084635 7.17285156,19.1783854 7.17285156,18.7890625 L7.17285156,10.3339844 L18.8271484,10.3339844 Z M15.8818359,5.19238281 C16.7874349,5.6578776 17.5110677,6.30745443 18.0527344,7.14111328 C18.594401,7.97477214 18.8652344,8.88671875 18.8652344,9.87695312 L7.12207031,9.87695312 C7.12207031,8.88671875 7.39290365,7.97477214 7.93457031,7.14111328 C8.47623698,6.30745443 9.20410156,5.6578776 10.1181641,5.19238281 L9.21679688,3.52929688 C9.15755208,3.41927083 9.17871094,3.33463542 9.28027344,3.27539062 C9.39029948,3.22460938 9.4749349,3.25 9.53417969,3.3515625 L10.4482422,5.02734375 C11.2522786,4.671875 12.1028646,4.49414062 13,4.49414062 C13.8971354,4.49414062 14.7477214,4.671875 15.5517578,5.02734375 L16.4658203,3.3515625 C16.5250651,3.25 16.6097005,3.22460938 16.7197266,3.27539062 C16.8212891,3.33463542 16.8424479,3.41927083 16.7832031,3.52929688 L15.8818359,5.19238281 Z M21.9375,11.3876953 L21.9375,16.8466797 C21.9375,17.210612 21.8105469,17.5195312 21.5566406,17.7734375 C21.3027344,18.0273438 20.9938151,18.1542969 20.6298828,18.1542969 C20.2744141,18.1542969 19.9697266,18.0273438 19.7158203,17.7734375 C19.4619141,17.5195312 19.3349609,17.210612 19.3349609,16.8466797 L19.3349609,11.3876953 C19.3349609,11.023763 19.4619141,10.7169596 19.7158203,10.4672852 C19.9697266,10.2176107 20.2744141,10.0927734 20.6298828,10.0927734 C20.9938151,10.0927734 21.3027344,10.2176107 21.5566406,10.4672852 C21.8105469,10.7169596 21.9375,11.023763 21.9375,11.3876953 Z" id="Shape" fill="#FFFFFF"></path>
                        </g>
                    </g>
                </g>
            </g>
        </g>
    </g>
</svg>