<?xml version="1.0" encoding="UTF-8"?>
<svg width="16px" height="16px" viewBox="0 0 16 16" version="1.1" xmlns="http://www.w3.org/2000/svg" xmlns:xlink="http://www.w3.org/1999/xlink">
    <!-- Generator: Sketch 51.2 (57519) - http://www.bohemiancoding.com/sketch -->
    <title>ico_退出登录</title>
    <desc>Created with Sketch.</desc>
    <defs></defs>
    <g id="Page-1" stroke="none" stroke-width="1" fill="none" fill-rule="evenodd">
        <g id="弹窗" transform="translate(-234.000000, -3601.000000)">
            <g id="3-copy" transform="translate(221.000000, 3543.000000)">
                <g id="pop">
                    <g id="ico_退出登录" transform="translate(13.000000, 58.000000)">
                        <rect id="Rectangle-2" fill-rule="nonzero" x="0" y="0" width="16" height="16"></rect>
                        <path d="M3,4 L3,3 C3,2.44771525 3.44771525,2 4,2 L11,2 C12.1045695,2 13,2.8954305 13,4 L13,12 C13,13.1045695 12.1045695,14 11,14 L4,14 C3.44771525,14 3,13.5522847 3,13 L3,12" id="Rectangle-7-Copy" stroke="#979797" stroke-linecap="round" stroke-linejoin="round"></path>
                        <path d="M9.32842712,10 L6.32842712,10 C6.05228475,10 5.82842712,9.77614237 5.82842712,9.5 C5.82842712,9.22385763 6.05228475,9 6.32842712,9 L8.82842712,9 L8.82842712,6.5 C8.82842712,6.22385763 9.05228475,6 9.32842712,6 C9.6045695,6 9.82842712,6.22385763 9.82842712,6.5 L9.82842712,9.5 C9.82842712,9.77614237 9.6045695,10 9.32842712,10 Z" id="Combined-Shape" fill="#979797" transform="translate(7.828427, 8.000000) rotate(-45.000000) translate(-7.828427, -8.000000) "></path>
                        <path d="M9,8.17157288 L3,8.17157288" id="Path-3" stroke="#979797" stroke-linecap="round" stroke-linejoin="round"></path>
                    </g>
                </g>
            </g>
        </g>
    </g>
</svg>