<?xml version="1.0" encoding="UTF-8"?>
<svg width="16px" height="16px" viewBox="0 0 16 16" version="1.1" xmlns="http://www.w3.org/2000/svg" xmlns:xlink="http://www.w3.org/1999/xlink">
    <!-- Generator: Sketch 51.2 (57519) - http://www.bohemiancoding.com/sketch -->
    <title>Group 17</title>
    <desc>Created with Sketch.</desc>
    <defs></defs>
    <g id="设计稿" stroke="none" stroke-width="1" fill="none" fill-rule="evenodd">
        <g id="ImClass官网--功能概述" transform="translate(-1140.000000, -1203.000000)" fill-rule="nonzero">
            <g id="申请试用" transform="translate(0.000000, 900.000000)">
                <g id="list_申请试用全部功能" transform="translate(1010.000000, 67.000000)">
                    <g id="机构名称" transform="translate(115.000000, 224.000000)">
                        <g id="ico_机构名称" transform="translate(15.000000, 12.000000)">
                            <rect id="Rectangle-28" x="0" y="0" width="16" height="16"></rect>
                            <g id="机构" transform="translate(2.000000, 1.000000)" fill="#333333">
                                <path d="M12.3251375,12.9849228 L12.5028437,12.9849228 C12.7715231,12.9849228 12.9894292,13.2108135 12.9894292,13.4895047 C12.9893996,13.7680728 12.7715652,13.9938891 12.5028437,13.9939198 L0.498307502,13.9939198 C0.369242761,13.9939346 0.24545852,13.9407993 0.154185901,13.8462031 C0.0629132818,13.7516069 0.0116288626,13.6232987 0.0116146309,13.4895047 C0.0116146309,13.2107578 0.229520794,12.9849228 0.498307502,12.9849228 L0.668124021,12.9849228 L0.668124021,1.18942206 C0.667978609,0.877165165 0.787572148,0.577653969 1.0005651,0.356853454 C1.21347549,0.13598487 1.50233626,0.0118915267 1.80354393,0.0118972123 L8.44726658,0.0118972123 C8.74848674,0.0118824183 9.03736674,0.135953954 9.25031626,0.356800308 C9.46326577,0.577646661 9.58282887,0.877164585 9.58268648,1.18942206 L9.58268648,3.88247322 L11.1896639,3.88247322 C11.8167077,3.88247322 12.3250838,4.40953299 12.3250838,5.05955296 L12.3250838,12.9854235 L12.3250838,12.9849228 L12.3251375,12.9849228 Z M11.3517517,12.9849228 L11.3517517,5.05905223 C11.3514855,4.96644905 11.2789942,4.89152548 11.1896639,4.89152589 L9.58268648,4.89152589 L9.58268648,12.9849228 L11.3517517,12.9849228 Z M1.64145535,12.9849228 L8.60935516,12.9849228 L8.60935442,1.18942206 C8.60948485,1.14478528 8.5924485,1.1019353 8.56201619,1.07035651 C8.53163614,1.0387088 8.49033595,1.02092658 8.44726658,1.02094988 L1.80354393,1.02094988 C1.76044574,1.02094988 1.71917239,1.03869843 1.68879433,1.07035651 C1.65836201,1.1019353 1.64132566,1.14478528 1.6414561,1.18942206 L1.64145535,12.9849228 Z M3.95179811,6.76836607 C3.77671118,6.7702723 3.61413157,6.67453451 3.52605298,6.51765875 C3.43797438,6.36078299 3.43797438,6.16695213 3.52605298,6.01007638 C3.61413157,5.85320062 3.77671118,5.75746283 3.95179811,5.75936905 L6.44258359,5.75936905 C6.70936801,5.76227362 6.92416526,5.98729235 6.92416526,6.26386756 C6.92416526,6.54044278 6.70936801,6.76546151 6.44258359,6.76836607 L3.95179811,6.76836607 Z M3.95179811,10.4679106 C3.68504267,10.465007 3.47026842,10.2400129 3.47026842,9.96346769 C3.47026842,9.68692252 3.68504267,9.46192842 3.95179811,9.45902481 L6.44258359,9.45902481 C6.61765094,9.45711922 6.7802122,9.55284655 6.86828082,9.70970483 C6.95634945,9.86656311 6.95634945,10.0603723 6.86828082,10.2172305 C6.7802122,10.3740888 6.61765094,10.4698162 6.44258359,10.4679106 L3.95179811,10.4679106 Z" id="Shape"></path>
                            </g>
                        </g>
                    </g>
                </g>
            </g>
        </g>
    </g>
</svg>