<?xml version="1.0" encoding="UTF-8"?>
<svg width="24px" height="24px" viewBox="0 0 24 24" version="1.1" xmlns="http://www.w3.org/2000/svg" xmlns:xlink="http://www.w3.org/1999/xlink">
    <!-- Generator: Sketch 52.4 (67378) - http://www.bohemiancoding.com/sketch -->
    <title>ico_文档 2</title>
    <desc>Created with Sketch.</desc>
    <g id="Page-1" stroke="none" stroke-width="1" fill="none" fill-rule="evenodd">
        <g id="ImClass微课堂" transform="translate(-1026.000000, -1564.000000)" fill="#0E0E0E">
            <g id="功能特点" transform="translate(360.000000, 1389.000000)">
                <g id="同步音频视频" transform="translate(650.000000, 147.000000)">
                    <g id="ico_文档-2" transform="translate(16.000000, 28.000000)">
                        <g id="ico_同步">
                            <g id="icon_同步" transform="translate(4.000000, 5.000000)">
                                <path d="M1,2 L15,2 C15.5522847,2 16,2.44771525 16,3 L16,3 C16,3.55228475 15.5522847,4 15,4 L1,4 C0.44771525,4 6.76271105e-17,3.55228475 0,3 L0,3 C-6.76271105e-17,2.44771525 0.44771525,2 1,2 Z M0.5,2.1339746 L3.96410162,0.133974596 C4.44239424,-0.142167779 5.05398464,0.0217073765 5.33012702,0.5 L5.33012702,0.5 C5.60626939,0.978292623 5.44239424,1.58988303 4.96410162,1.8660254 L1.5,3.8660254 C1.02170738,4.14216778 0.410116971,3.97829262 0.133974596,3.5 L0.133974596,3.5 C-0.142167779,3.02170738 0.0217073765,2.41011697 0.5,2.1339746 Z" id="合并形状" fill-rule="nonzero"></path>
                                <path d="M1,10 L15,10 C15.5522847,10 16,10.4477153 16,11 L16,11 C16,11.5522847 15.5522847,12 15,12 L1,12 C0.44771525,12 6.76353751e-17,11.5522847 0,11 L0,11 C-6.76353751e-17,10.4477153 0.44771525,10 1,10 Z M11.0358984,12.1339746 L14.5,10.1339746 C14.9782926,9.85783222 15.589883,10.0217074 15.8660254,10.5 L15.8660254,10.5 C16.1421678,10.9782926 15.9782926,11.589883 15.5,11.8660254 L12.0358984,13.8660254 C11.5576058,14.1421678 10.9460154,13.9782926 10.669873,13.5 L10.669873,13.5 C10.3937306,13.0217074 10.5576058,12.410117 11.0358984,12.1339746 Z" id="合并形状" fill-rule="nonzero"></path>
                            </g>
                        </g>
                    </g>
                </g>
            </g>
        </g>
    </g>
</svg>