<?xml version="1.0" encoding="UTF-8"?>
<svg width="16px" height="16px" viewBox="0 0 16 16" version="1.1" xmlns="http://www.w3.org/2000/svg" xmlns:xlink="http://www.w3.org/1999/xlink">
    <!-- Generator: Sketch 51.2 (57519) - http://www.bohemiancoding.com/sketch -->
    <title>ico_手机</title>
    <desc>Created with Sketch.</desc>
    <defs></defs>
    <g id="设计稿" stroke="none" stroke-width="1" fill="none" fill-rule="evenodd">
        <g id="ImClass官网--功能概述" transform="translate(-1140.000000, -1139.000000)" fill-rule="nonzero">
            <g id="申请试用" transform="translate(0.000000, 900.000000)">
                <g id="list_申请试用全部功能" transform="translate(1010.000000, 67.000000)">
                    <g id="联系人手机号" transform="translate(115.000000, 160.000000)">
                        <g id="ico_手机" transform="translate(15.000000, 12.000000)">
                            <rect id="Rectangle-path" fill="#000000" opacity="0" x="0" y="0" width="16" height="16"></rect>
                            <path d="M10.1171719,0.947765625 L5.86198437,0.947765625 C4.46195312,0.947765625 3.32296875,2.08675 3.32296875,3.48678125 L3.32296875,12.4540781 C3.32296875,13.8541094 4.46195312,14.9930937 5.86198437,14.9930937 L10.1171719,14.9930937 C11.5172031,14.9930937 12.6561875,13.8541094 12.6561875,12.4540781 L12.6561875,3.48678125 C12.6562031,2.08675 11.5172031,0.947765625 10.1171719,0.947765625 Z M9.95903325,14.1 L5.92690425,14.1 C5.04250478,14.1 4.32296875,13.5410781 4.32296875,12.60775 L4.32296875,3.64045313 C4.32296875,2.707125 5.04250478,1.94776562 5.92690425,1.94776562 L6.75852077,1.94776562 C6.76074165,2.1794375 6.93904883,2.36667187 7.15909378,2.36667187 L8.72681411,2.36667187 C8.94687386,2.36667187 9.12516624,2.1794375 9.12738712,1.94776562 L9.95900364,1.94776562 C10.8434031,1.94776562 11.5629391,2.70710938 11.5629391,3.64045313 L11.5629391,12.60775 C11.5629688,13.5410781 10.8434327,14.1 9.95903325,14.1 Z" id="Shape" fill="#333333"></path>
                            <path d="M8.8168125,12.801625 L7.16235938,12.801625 C6.92867188,12.801625 6.7391875,12.9910937 6.7391875,13.2247969 C6.7391875,13.4585 6.92865625,13.6479687 7.16235937,13.6479687 L8.8168125,13.6479687 C9.0505,13.6479687 9.23998437,13.4585 9.23998437,13.2247969 C9.23998437,12.9910937 9.0505,12.801625 8.8168125,12.801625 Z" id="Shape" fill="#4D4D4D"></path>
                        </g>
                    </g>
                </g>
            </g>
        </g>
    </g>
</svg>