<?xml version="1.0" encoding="UTF-8"?>
<svg width="24px" height="24px" viewBox="0 0 24 24" version="1.1" xmlns="http://www.w3.org/2000/svg" xmlns:xlink="http://www.w3.org/1999/xlink">
    <!-- Generator: Sketch 52.4 (67378) - http://www.bohemiancoding.com/sketch -->
    <title>ico_无边界白板 2</title>
    <desc>Created with Sketch.</desc>
    <g id="Page-1" stroke="none" stroke-width="1" fill="none" fill-rule="evenodd">
        <g id="ImClass微课堂" transform="translate(-1026.000000, -1783.000000)" fill="#000000">
            <g id="功能特点" transform="translate(360.000000, 1389.000000)">
                <g id="使用方便快捷" transform="translate(650.000000, 369.000000)">
                    <g id="ico_无边界白板-2" transform="translate(16.000000, 25.000000)">
                        <g id="ico_快捷">
                            <g transform="translate(2.000000, 2.000000)" id="快捷">
                                <g fill-rule="nonzero">
                                    <path d="M6.5588248,13.4243811 C6.06451684,12.9300731 5.51817575,12.6829182 4.9328103,12.6829182 C3.22874707,12.6829182 1.57671502,14.8292582 0.0417502154,19.0569041 C-0.0493066981,19.304059 0.0157340381,19.5902364 0.19784767,19.7723514 C0.275896397,19.8504001 0.379961302,19.9154407 0.484026987,19.941457 L0.484026987,19.9674732 L0.679148805,19.9674732 C0.757197533,19.9674732 0.83524626,19.9544651 0.913294987,19.9284489 C4.76369236,18.5235718 6.89703725,17.0276313 7.2352419,15.492686 C7.36532317,14.9723605 7.3393068,14.204882 6.55881894,13.4243947 L6.5588248,13.4243811 Z M5.90841939,15.1934862 C5.85638684,15.4406412 5.60923325,15.9739735 4.55557543,16.6894208 C3.87915248,17.1577132 2.98159211,17.6260055 1.88890408,18.0812891 C2.39622081,16.8715339 2.9165463,15.8959248 3.43686985,15.2065009 C3.97020217,14.4780467 4.49052767,14.0747943 4.89378008,14.0617855 L4.91979626,14.0617855 C5.12792685,14.0617855 5.34906426,14.1658504 5.57020167,14.399996 C5.8693878,14.6731666 5.97345407,14.9333284 5.90841217,15.1934921 L5.90841939,15.1934862 Z M18.8905179,-5.85365455e-06 C16.4840219,0.0520266962 14.3376819,0.481295282 12.4905222,1.30080692 C10.8775145,2.01625424 9.49866084,3.01787892 8.37994941,4.27967318 C8.19783578,4.48780377 8.02873014,4.69593241 7.85962391,4.91707177 C7.00108791,4.9951205 6.14255191,5.333331 5.28401591,5.944714 C4.542553,6.46503949 3.78808132,7.19349363 3.05962718,8.091054 C1.88889627,9.54796422 1.14743336,10.9918715 1.05637001,11.147969 C0.900272557,11.4471551 0.99132947,11.8113832 1.2645006,12.006505 C1.52466238,12.2016268 1.91490601,12.1756106 2.14905219,11.9414644 C2.14905219,11.9414644 2.60433579,11.4991877 3.37181624,11.0569129 C3.97019046,10.7187024 4.90677519,10.3024412 6.0514827,10.1983769 C6.40270198,10.9788641 7.20920484,11.8374001 7.66449038,12.3056925 C8.11977398,12.7609761 8.99131875,13.5674809 9.77180602,13.9187002 C9.66774112,15.0634155 9.26448929,16.0000061 8.92627879,16.5983666 C8.48400202,17.3788539 8.0417272,17.8211307 8.0417272,17.8211307 C7.80758102,18.0552769 7.76855665,18.4325117 7.97668666,18.7056823 C8.10676794,18.8877959 8.31489716,18.9918616 8.53603652,18.9918616 C8.64010143,18.9918616 8.74416711,18.9658454 8.84823143,18.9138129 C9.1083932,18.7837316 10.4872547,18.0552769 11.9051464,16.9105557 C12.8027068,16.1821016 13.5311609,15.4406386 14.0514864,14.686167 C14.6628675,13.827631 15.0010799,12.9560862 15.0791286,12.110559 C15.3002661,11.9414533 15.5083966,11.7723485 15.7165272,11.5902335 C16.9783156,10.4715357 17.9799403,9.09267419 18.6953935,7.47966066 C19.5539295,5.52844247 19.9962063,3.23901965 19.9962063,0.663411645 L19.9962063,-5.85365455e-06 L18.8905153,-2.53658364e-06 L18.8905179,-5.85365455e-06 Z M6.25963866,8.59836877 C5.53118452,8.66340931 4.8157372,8.81950618 4.11329866,9.09267673 C4.89378593,8.05202768 5.92142816,6.94633673 7.0791503,6.38698101 C6.57183357,7.37559887 6.35069616,8.18210174 6.25963866,8.59835511 L6.25963866,8.59836877 Z M10.9035243,15.9089394 C11.1767085,15.2065009 11.3458147,14.4910535 11.3978459,13.7625994 C11.8141051,13.6715425 12.6076012,13.4504045 13.60922,12.9430878 C13.0628789,14.1008099 11.9441811,15.1414667 10.9035243,15.9089394 Z M14.9100328,10.4975675 L14.8059679,10.5886244 C12.8157253,12.3447208 10.7734438,12.747979 10.5002732,12.747979 C10.5002732,12.747979 10.3181596,12.7219628 9.84986782,12.3967597 C9.48563978,12.136598 9.05637178,11.7723699 8.64011255,11.3561107 C8.22385332,10.9398515 7.85962528,10.5105835 7.5994635,10.1463554 C7.28726859,9.69107183 7.261253,9.49595001 7.24824423,9.49595001 C7.24824423,9.19676388 7.65149664,7.16750282 9.40759885,5.17726027 C11.4758901,2.82278383 14.6628733,1.52198472 18.604334,1.37888238 C18.4742528,5.28131874 17.1864482,8.41628246 14.9100341,10.4975688 L14.9100328,10.4975675 Z M13.5571888,3.43415766 C12.1002786,3.43415766 10.9165467,4.61789734 10.9165467,6.07479976 C10.9035386,7.53170999 12.1002864,8.71544186 13.5571888,8.71544186 C15.014099,8.71544186 16.1978309,7.53170218 16.1978309,6.07479976 C16.1978309,4.61788953 15.0140912,3.43415766 13.5571888,3.43415766 Z M13.5571888,7.34960865 C12.8547503,7.34960865 12.2823936,6.77725196 12.2823936,6.07481342 C12.2823936,5.37237487 12.8547503,4.80001819 13.5571888,4.80001819 C14.2596274,4.80001819 14.831984,5.37237487 14.831984,6.07481342 C14.831984,6.77725196 14.2596274,7.34960865 13.5571888,7.34960865 Z" id="形状"></path>
                                </g>
                            </g>
                        </g>
                    </g>
                </g>
            </g>
        </g>
    </g>
</svg>