<?xml version="1.0" encoding="UTF-8"?>
<svg width="27px" height="26px" viewBox="0 0 27 26" version="1.1" xmlns="http://www.w3.org/2000/svg" xmlns:xlink="http://www.w3.org/1999/xlink">
    <!-- Generator: Sketch 52.4 (67378) - http://www.bohemiancoding.com/sketch -->
    <title>ico_iOS</title>
    <desc>Created with Sketch.</desc>
    <g id="Page-1" stroke="none" stroke-width="1" fill="none" fill-rule="evenodd">
        <g id="ImClass微课堂" transform="translate(-926.000000, -3332.000000)" fill-rule="nonzero">
            <g id="iPad端" transform="translate(760.000000, 2952.000000)">
                <g id="分组-2-copy-2" transform="translate(120.000000, 369.000000)">
                    <g id="分组-3" transform="translate(47.000000, 11.000000)">
                        <g id="ico_iOS" transform="translate(-0.000000, 0.000000)">
                            <rect id="Rectangle-path" fill="#000000" opacity="0" x="0" y="0" width="26" height="26"></rect>
                            <path d="M21.7470703,17.0498047 C21.4169922,18.1077474 20.8964844,19.1656901 20.1855469,20.2236328 C19.09375,21.882487 18.0061849,22.7119141 16.9228516,22.7119141 C16.508138,22.7119141 15.9156901,22.5764974 15.1455078,22.3056641 C14.4176432,22.0348307 13.7786458,21.8994141 13.2285156,21.8994141 C12.7122396,21.8994141 12.1113281,22.0390625 11.4257812,22.3183594 C10.7402344,22.6061198 10.1816406,22.75 9.75,22.75 C8.46354167,22.75 7.18977865,21.6539714 5.92871094,19.4619141 C4.68457031,17.2529297 4.0625,15.124349 4.0625,13.0761719 C4.0625,11.1464844 4.5406901,9.56380208 5.49707031,8.328125 C6.44498698,7.109375 7.6468099,6.5 9.10253906,6.5 C9.71191406,6.5 10.4609375,6.62695312 11.3496094,6.88085938 C12.2298177,7.13476562 12.8138021,7.26171875 13.1015625,7.26171875 C13.4824219,7.26171875 14.0875651,7.11783854 14.9169922,6.83007812 C15.7802734,6.54231771 16.5123698,6.3984375 17.1132812,6.3984375 C18.1204427,6.3984375 19.0218099,6.6735026 19.8173828,7.22363281 C20.257487,7.52832031 20.6975911,7.9514974 21.1376953,8.49316406 C20.4690755,9.06022135 19.9866536,9.55957031 19.6904297,9.99121094 C19.1402995,10.7867839 18.8652344,11.6627604 18.8652344,12.6191406 C18.8652344,13.6686198 19.1572266,14.6123047 19.7412109,15.4501953 C20.3251953,16.2880859 20.9938151,16.8212891 21.7470703,17.0498047 Z M16.9736328,2.15820312 C16.9736328,2.67447917 16.8509115,3.25 16.6054688,3.88476562 C16.3515625,4.51953125 15.9580078,5.10351562 15.4248047,5.63671875 C14.9677734,6.09375 14.5107422,6.3984375 14.0537109,6.55078125 C13.7405599,6.64388021 13.3004557,6.71582031 12.7333984,6.76660156 C12.7587891,5.50553385 13.0888672,4.41796875 13.7236328,3.50390625 C14.3499349,2.59830729 15.4078776,1.97200521 16.8974609,1.625 C16.9059245,1.65039062 16.9165039,1.6969401 16.9291992,1.76464844 C16.9418945,1.83235677 16.952474,1.87890625 16.9609375,1.90429688 C16.9609375,1.93815104 16.9820964,1.98046875 17.0244141,2.03125 C17.0667318,2.08203125 17.0878906,2.12434896 17.0878906,2.15820312 L16.9736328,2.15820312 Z" id="Shape" fill="#FFFFFF"></path>
                        </g>
                    </g>
                </g>
            </g>
        </g>
    </g>
</svg>