<?xml version="1.0" encoding="UTF-8"?>
<svg width="40px" height="40px" viewBox="0 0 40 40" version="1.1" xmlns="http://www.w3.org/2000/svg" xmlns:xlink="http://www.w3.org/1999/xlink">
    <!-- Generator: Sketch 51.2 (57519) - http://www.bohemiancoding.com/sketch -->
    <title>默认头像</title>
    <desc>Created with Sketch.</desc>
    <defs>
        <circle id="path-1" cx="20" cy="20" r="20"></circle>
        <path d="M26.8296471,4.49889725 C26.8296471,6.14532878 28.7875209,6.64773537 29.7664578,6.89893874 C32.8997424,7.70296569 40.0251351,9.31101961 40.0251351,9.31101961 C41.3306553,9.76988567 42.3903936,10.7573248 42.9411765,12.0165575 L42.9411765,18.6195508 L0,18.6195508 L0,12.0165575 C0.550782884,10.7573248 1.61052121,9.76988567 2.91604136,9.31101961 C2.91604136,9.31101961 10.044061,7.7022916 13.1786591,6.8979276 C14.1562825,6.64706127 16.1115294,6.16004902 16.1115294,4.49889725 C16.1115294,2.83774548 16.1115294,1.82790602e-16 16.1115294,1.82790602e-16 L26.8296471,0 C26.8296471,0 26.8296471,2.85246573 26.8296471,4.49889725 Z" id="path-3"></path>
        <circle id="path-5" cx="20" cy="20" r="20"></circle>
    </defs>
    <g id="Page-1" stroke="none" stroke-width="1" fill="none" fill-rule="evenodd">
        <g id="选择进入教室" transform="translate(-1834.000000, -35.000000)">
            <g id="3-copy" transform="translate(1751.000000, 35.000000)">
                <g id="1" transform="translate(83.000000, 0.000000)">
                    <mask id="mask-2" fill="white">
                        <use xlink:href="#path-1"></use>
                    </mask>
                    <use id="Oval" fill="#D95043" xlink:href="#path-1"></use>
                    <g id="pexels-photo" mask="url(#mask-2)">
                        <g transform="translate(-1.176471, 2.941176)" id="unknown_2-copy">
                            <g>
                                <g id="body" transform="translate(0.000000, 18.559772)">
                                    <mask id="mask-4" fill="white">
                                        <use xlink:href="#path-3"></use>
                                    </mask>
                                    <use id="shoulders" fill="#FFFFFF" xlink:href="#path-3"></use>
                                    <path d="M21.5522955,-20.5803382 C21.5762951,-20.5803754 21.6000723,-20.5803922 21.6236191,-20.5803922 C21.6259939,-20.5803922 21.6283649,-20.580309 21.6307323,-20.5801429 C22.9902498,-20.5754225 25.0100916,-20.496416 26.3378106,-19.7440752 C27.715208,-18.9635846 29.3656012,-17.4328363 29.8416637,-14.7503252 C30.8433222,-9.10619287 28.9776843,-0.196655849 27.2388155,2.7030546 C25.5750885,5.47745974 23.1910213,6.4971928 21.6710953,6.5801435 C21.6588453,6.58385447 21.6464812,6.58572549 21.6340028,6.58572549 C21.607091,6.58572549 21.5798518,6.58541061 21.5522955,6.58477549 C21.5247392,6.58541061 21.4975,6.58572549 21.4705882,6.58572549 C21.4581098,6.58572549 21.4457457,6.58385447 21.4334957,6.5801435 C19.9135697,6.4971928 17.5295025,5.47745974 15.8657755,2.7030546 C14.1269067,-0.196655849 12.2612688,-9.10619287 13.2629273,-14.7503252 C13.7389898,-17.4328363 15.389383,-18.9635846 16.7667804,-19.7440752 C18.0944994,-20.496416 20.1143412,-20.5754225 21.4738587,-20.5801429 C21.4762261,-20.580309 21.4785971,-20.5803922 21.4809719,-20.5803922 C21.5045187,-20.5803922 21.5282959,-20.5803754 21.5522955,-20.5803382 L21.5522955,-20.5803382 Z" id="-" fill="#C9C9C9" mask="url(#mask-4)"></path>
                                </g>
                                <path d="M21.3023945,0.0374188948 C29.1589375,0.0560095811 29.8380587,5.71858368 29.8840278,6.2351945 C30.3214176,11.1506737 28.644118,17.7811371 27.0706217,20.0870218 C25.4068947,22.5251354 23.0228275,23.4212645 21.5029015,23.4941606 C21.4388972,23.499066 21.411658,23.4987892 21.3841017,23.4982311 C21.3565455,23.4987892 21.3293063,23.499066 21.3023945,23.499066 C19.7453759,23.4212645 17.3613087,22.5251354 15.6975818,20.0870218 C14.1191364,17.7738845 12.4362337,11.1089216 12.8883656,6.18886399 C12.9343175,5.68881968 13.4458514,0.0188282086 21.3023945,0.0374188948 Z" id="head" fill="#FFFFFF"></path>
                            </g>
                        </g>
                    </g>
                    <mask id="mask-6" fill="white">
                        <use xlink:href="#path-5"></use>
                    </mask>
                    <circle stroke="#FFFFFF" stroke-width="1.76470588" cx="20" cy="20" r="19.1176471"></circle>
                </g>
            </g>
        </g>
    </g>
</svg>