<?xml version="1.0" encoding="UTF-8"?>
<svg width="133px" height="32px" viewBox="0 0 133 32" version="1.1" xmlns="http://www.w3.org/2000/svg" xmlns:xlink="http://www.w3.org/1999/xlink">
    <!-- Generator: Sketch 51.2 (57519) - http://www.bohemiancoding.com/sketch -->
    <title>imclass_logo_white</title>
    <desc>Created with Sketch.</desc>
    <defs></defs>
    <g id="设计稿" stroke="none" stroke-width="1" fill="none" fill-rule="evenodd">
        <g id="教师、学生登录" transform="translate(-600.000000, -631.000000)" fill="#FFFFFF">
            <g id="Rectangle-2" transform="translate(560.000000, 290.000000)">
                <g id="imclass_logo_white" transform="translate(40.000000, 341.000000)">
                    <path d="M51.00798,10.3784 C51.00798,11.2339 50.31448,11.9274 49.45898,11.9274 C48.60348,11.9274 47.90998,11.2339 47.90998,10.3784 C47.90998,9.5229 48.60348,8.8294 49.45898,8.8294 C50.31448,8.8294 51.00798,9.5229 51.00798,10.3784" id="Fill-1"></path>
                    <polygon id="Fill-3" points="92.4328 27.9596 95.5308 27.9596 95.5308 4.0276 92.4328 4.0276"></polygon>
                    <path d="M68.63845,13.1619 C66.78025,13.1298 65.10495,13.931 63.96135,15.2154 C62.83985,13.9558 61.20705,13.161 59.39175,13.161 C56.01805,13.161 53.27325,15.9057 53.27325,19.2795 L53.27325,27.9596 L56.37125,27.9596 L56.37125,19.2795 C56.37125,17.614 57.72625,16.259 59.39175,16.259 C61.05735,16.259 62.41235,17.614 62.41235,19.2795 L62.41235,27.9596 L65.51035,27.9596 L65.51035,19.2795 C65.51035,17.5768 66.92645,16.1987 68.64275,16.261 C70.27275,16.3202 71.55145,17.6858 71.55145,19.3169 L71.55145,27.9596 L74.64945,27.9596 L74.64945,19.3349 C74.64945,16.0277 71.94515,13.219 68.63845,13.1619" id="Fill-5"></path>
                    <path d="M89.56904,24.86156 C87.20034,24.86156 84.97334,23.93906 83.29844,22.26416 C81.62344,20.58916 80.70104,18.36226 80.70104,15.99356 C80.70104,13.62476 81.62344,11.39786 83.29844,9.72286 C84.97334,8.04796 87.20034,7.12556 89.56904,7.12556 L89.56904,4.02756 C82.96044,4.02756 77.60304,9.38486 77.60304,15.99356 C77.60304,22.60216 82.96044,27.95956 89.56904,27.95956 L89.56904,24.86156 Z" id="Fill-6"></path>
                    <path d="M107.7804,23.60257 C106.9685,24.41447 105.8891,24.86157 104.7409,24.86157 C103.5928,24.86157 102.5133,24.41447 101.7015,23.60257 C100.8795,22.78067 100.4314,21.68447 100.4427,20.52037 C100.4534,19.41247 100.8955,18.34497 101.6714,17.55397 C102.4866,16.72287 103.5785,16.26457 104.7409,16.26457 C105.8891,16.26457 106.9685,16.71177 107.7804,17.52357 C108.5923,18.33547 109.0394,19.41497 109.0394,20.56307 C109.0394,21.71117 108.5923,22.79067 107.7804,23.60257 Z M112.1374,20.56307 C112.1374,15.92437 107.8672,12.28307 103.0434,13.35547 C100.2989,13.96567 98.1436,16.12097 97.5334,18.86547 C96.4609,23.68937 100.1022,27.95957 104.7409,27.95957 C106.344,27.95957 107.8279,27.44937 109.0394,26.58267 L109.0394,27.95957 L112.1374,27.95957 L112.1374,20.56307 Z" id="Fill-7"></path>
                    <polygon id="Fill-8" points="47.91 27.9596 51.008 27.9596 51.008 13.1667 47.91 13.1667"></polygon>
                    <path d="M118.86201,19.01576 C118.07351,19.01576 117.43781,18.34936 117.48841,17.55026 C117.53321,16.84116 118.17671,16.26286 118.88721,16.26286 L121.08311,16.26286 L121.08311,13.16096 L118.90951,13.16096 C116.47461,13.16096 114.44851,15.08586 114.38521,17.51996 C114.31941,20.04776 116.34901,22.11766 118.86201,22.11766 C119.65051,22.11766 120.28621,22.78396 120.23571,23.58306 C120.19081,24.29226 119.54741,24.87056 118.83681,24.87056 L115.38881,24.87056 L115.38881,27.97246 L118.81461,27.97246 C121.24941,27.97246 123.27551,26.04756 123.33881,23.61346 C123.40451,21.08566 121.37501,19.01576 118.86201,19.01576" id="Fill-9"></path>
                    <path d="M128.31089,19.01576 C127.52239,19.01576 126.88669,18.34936 126.93729,17.55026 C126.98209,16.84116 127.62559,16.26286 128.33609,16.26286 L130.53199,16.26286 L130.53199,13.16096 L128.35839,13.16096 C125.92349,13.16096 123.89739,15.08586 123.83409,17.51996 C123.76829,20.04776 125.79789,22.11766 128.31089,22.11766 C129.09939,22.11766 129.73509,22.78396 129.68459,23.58306 C129.63969,24.29226 128.99629,24.87056 128.28569,24.87056 L124.83769,24.87056 L124.83769,27.97246 L128.26349,27.97246 C130.69829,27.97246 132.72439,26.04756 132.78769,23.61346 C132.85339,21.08566 130.82389,19.01576 128.31089,19.01576" id="Fill-10"></path>
                    <path d="M29.58369,30.69779 C29.56059,30.66649 29.53829,30.63429 29.51749,30.60119 L29.58369,30.69779 Z" id="Fill-11"></path>
                    <path d="M38.26301,7.23397 L38.26301,24.76227 L32.10901,30.91637 C31.80571,31.20547 31.39471,31.38307 30.94281,31.38307 C30.86011,31.38307 30.77911,31.37707 30.69961,31.36567 L30.69961,0.27167 C31.10111,0.29507 31.46511,0.45857 31.74321,0.71437 L31.84411,0.81527 L38.26301,7.23397 Z" id="Fill-12"></path>
                    <path d="M30.69966,0.27171 L30.69966,13.57041 L24.83156,18.48651 L19.50596,15.99801 L16.47986,11.58391 L29.48296,0.69011 L29.54776,0.63591 C29.83656,0.40601 30.20206,0.26871 30.59966,0.26871 C30.63326,0.26871 30.66656,0.26961 30.69966,0.27171" id="Fill-13"></path>
                    <path d="M22.5325,20.41258 L9.6127,31.23628 L9.6118,31.23728 L9.5748,31.26828 L9.425,31.39378 L9.387,31.42568 L9.3859,31.42638 C9.1117,31.61858 8.7779,31.73138 8.4176,31.73138 C8.3824,31.73138 8.3475,31.73018 8.3127,31.72808 L8.3127,18.42608 L14.1808,13.50978 L19.506,15.99798 L22.5325,20.41258 Z" id="Fill-14"></path>
                    <path d="M19.50596,15.99803 L14.18086,13.50983 L8.31276,10.76803 L8.31276,0.62943 C8.75706,0.69283 9.14556,0.92943 9.40806,1.26863 L9.40836,1.26883 L9.51716,1.42773 L9.51826,1.42953 L16.47986,11.58393 L19.50596,15.99803 Z" id="Fill-15"></path>
                    <path d="M30.69966,21.22826 L30.69966,31.36576 C30.24356,31.29996 29.84646,31.05226 29.58416,30.69846 L29.58366,30.69776 L29.51746,30.60116 L29.51606,30.59936 L29.51586,30.59896 L29.51426,30.59636 L22.53246,20.41256 L19.50596,15.99806 L24.83156,18.48656 L30.69966,21.22826 Z" id="Fill-16"></path>
                    <path d="M5.22036,8.93548 C5.22036,9.33668 4.87766,9.65778 4.46896,9.62208 C4.12306,9.59178 3.84176,9.26658 3.84176,8.91938 L3.84176,7.23008 C3.84176,6.88288 4.12306,6.55758 4.46896,6.52728 C4.87766,6.49158 5.22036,6.81268 5.22036,7.21398 L5.22036,8.93548 Z M8.07076,0.61208 C7.61996,0.61208 7.21046,0.78848 6.90736,1.07628 C6.90646,1.07698 0.74936,7.23398 0.74936,7.23398 L0.74936,24.76228 L3.84176,27.85468 L3.84176,11.94798 C3.84176,11.60078 4.12306,11.27548 4.46896,11.24528 C4.87766,11.20948 5.22036,11.53068 5.22036,11.93178 L5.22036,29.23328 L7.19116,31.20418 C7.19216,31.20528 7.19306,31.20618 7.19426,31.20738 L7.25136,31.26458 C7.25256,31.26568 7.25366,31.26668 7.25466,31.26758 C7.53406,31.53268 7.90366,31.70308 8.31276,31.72808 L8.31276,0.62938 C8.23376,0.61788 8.15296,0.61208 8.07076,0.61208 Z" id="Fill-17"></path>
                </g>
            </g>
        </g>
    </g>
</svg>