<?xml version="1.0" encoding="UTF-8"?>
<svg width="44px" height="44px" viewBox="0 0 44 44" version="1.1" xmlns="http://www.w3.org/2000/svg" xmlns:xlink="http://www.w3.org/1999/xlink">
    <!-- Generator: Sketch 51.2 (57519) - http://www.bohemiancoding.com/sketch -->
    <title>ImClass_logo_red</title>
    <desc>Created with Sketch.</desc>
    <defs>
        <polygon id="path-1" points="0.0122671779 0.0165452586 8.83405087 0.0165452586 8.83405087 10.7357315 0.0122671779 10.7357315"></polygon>
    </defs>
    <g id="设计稿" stroke="none" stroke-width="1" fill="none" fill-rule="evenodd">
        <g id="教师、学生登录" transform="translate(-938.000000, -518.000000)">
            <g id="Rectangle-2" transform="translate(560.000000, 290.000000)">
                <g id="ImClass_logo_red" transform="translate(378.000000, 228.000000)">
                    <circle id="Oval-7-Copy" fill="#FFFFFF" fill-rule="nonzero" cx="22" cy="22" r="22"></circle>
                    <g id="Group-20" opacity="0.954352679" transform="translate(11.000000, 13.000000)">
                        <path d="M16.6976089,17.4181364 C16.5781431,17.4181364 16.460382,17.3652032 16.3839736,17.2654274 C16.3645406,17.2400179 16.346351,17.2143563 16.3299262,17.1891019 C16.2168177,17.0153282 16.2682981,16.785964 16.445722,16.6731731 C16.6231258,16.5603821 16.8612552,16.6056343 16.9813227,16.7749856 L17.0188049,16.8278024 C17.1390128,16.9973476 17.0966572,17.2287679 16.9235852,17.3480955 C16.8550383,17.3953649 16.7759225,17.4181364 16.6976089,17.4181364" id="Fill-1" fill="#D95043"></path>
                        <path d="M17.7182826,0.979710129 L17.7182826,16.9816713 C17.7672361,16.9580657 17.8128204,16.9274386 17.8535716,16.8903912 L21.2161021,13.6382101 L21.2161021,4.36262392 L17.7182826,0.979710129 Z M17.4659344,17.7929903 C17.4018997,17.7929903 17.3370629,17.7885097 17.2732689,17.7796843 C17.0812252,17.7531304 16.9385962,17.5940593 16.9385962,17.4064364 L16.9385962,0.398085129 C16.9385962,0.294294181 16.9828569,0.195061422 17.0609298,0.123837284 C17.1389827,0.0526131466 17.2440492,0.015643319 17.3511012,0.0216756466 C17.6596427,0.0390549569 17.954928,0.160186422 18.1825488,0.362764009 C18.1865397,0.366294181 18.1904303,0.369921336 18.1942407,0.373606681 L21.8815971,3.93981789 C21.9546964,4.01053772 21.9957885,4.10643427 21.9957885,4.20644289 L21.9957885,13.7943718 C21.9957885,13.8943804 21.9546964,13.9902963 21.8816171,14.0609968 L18.4011449,17.4272295 C18.398959,17.4293438 18.3967329,17.431458 18.3945068,17.433514 C18.1431212,17.6653222 17.8133218,17.7929903 17.4659344,17.7929903 Z" id="Fill-3" fill="#D95043"></path>
                        <path d="M0.779686418,13.6382043 L4.27750593,17.0212345 L4.27750593,1.01884655 C4.22925433,1.0421806 4.18433181,1.07234224 4.14406199,1.10878836 C4.03283865,1.21624526 1.36835187,3.79327112 0.779686418,4.3626181 L0.779686418,13.6382043 Z M3.79328532,17.6193466 C3.79828532,17.6245466 3.80358532,17.6296466 3.80888532,17.6348466 C3.80368532,17.6297466 3.79838532,17.6245466 3.79328532,17.6193466 Z M3.79669462,17.6226052 C3.79679462,17.6228052 3.79689462,17.6228052 3.79699462,17.6229052 C3.79689462,17.6228052 3.79679462,17.6228052 3.79669462,17.6226052 Z M4.66736919,17.9816741 C4.65944758,17.9816741 4.65150593,17.9814414 4.64356427,17.9809759 C4.33006928,17.9624522 4.03163537,17.8372474 3.80289152,17.6283466 C3.7989608,17.6248358 3.79517046,17.621325 3.79144029,17.6177172 L3.75909207,17.5864112 C3.75688605,17.5842776 3.75472015,17.5821246 3.75257429,17.5799716 L0.114171376,14.0609909 C0.0410720146,13.9902905 0,13.8943746 0,13.7943853 L0,4.20643707 C0,4.10642845 0.0410720146,4.0105319 0.114171376,3.93983147 L3.44708113,0.716396121 C3.53923245,0.627288362 3.58142753,0.586478017 3.60445032,0.56514181 L3.60408933,0.564773276 C3.855134,0.334187069 4.18415132,0.207217241 4.5304959,0.207217241 C4.59571376,0.207217241 4.66079125,0.211756034 4.72390337,0.220697845 C4.91532543,0.247853017 5.05719234,0.406652586 5.05719234,0.593751724 L5.05719234,17.6046246 C5.05719234,17.7086289 5.01277119,17.8079974 4.93447767,17.8792409 C4.86195989,17.945228 4.76631905,17.9816741 4.66736919,17.9816741 Z" id="Fill-5" fill="#D95043"></path>
                        <g id="Group-9" transform="translate(8.884230, 0.002851)">
                            <mask id="mask-2" fill="white">
                                <use xlink:href="#path-1"></use>
                            </mask>
                            <g id="Clip-8"></g>
                            <path d="M2.3749351,8.69944267 L5.06549298,9.9153931 L8.05436445,7.49361724 L8.05436445,0.875552586 C8.04915023,0.879257328 8.04395606,0.883059052 8.03882206,0.886957759 L8.00611285,0.913395259 L0.923797448,6.65217543 L2.3749351,8.69944267 Z M5.12539635,10.7357315 C5.0694237,10.7357315 5.01313017,10.7240741 4.96044649,10.7002746 L1.94849207,9.33908276 C1.88542005,9.31056983 1.83137265,9.26624871 1.79200529,9.21067759 L0.0805777575,6.79619483 C-0.032931814,6.6360375 -0.0021278031,6.41867974 0.151771923,6.29397931 L7.50576828,0.335067672 L7.54276919,0.305138793 C7.54513564,0.303237931 7.54752215,0.301337069 7.54992871,0.299494397 C7.78683482,0.117031034 8.08434622,0.0165375 8.38763336,0.0165375 C8.41550939,0.0165375 8.44282388,0.0173521552 8.46881477,0.0189426724 C8.67417484,0.0315116379 8.83405087,0.196246552 8.83405087,0.395235776 L8.83405087,7.66962155 C8.83405087,7.78117112 8.78297156,7.88699871 8.69457046,7.95864957 L5.37581933,10.6477099 C5.30424412,10.7056862 5.21528149,10.7357315 5.12539635,10.7357315 Z" id="Fill-7" fill="#D95043" mask="url(#mask-2)"></path>
                        </g>
                        <path d="M5.05719234,10.5044683 L5.05719234,17.1236968 L5.14711759,17.0508239 C5.14882224,17.0493886 5.15052689,17.0479726 5.15223154,17.0466149 L12.1877593,11.3459295 L10.736381,9.29839073 L8.04606381,8.08257608 L5.05719234,10.5044683 Z M4.72667092,17.9834489 C4.69971741,17.9834489 4.67186144,17.9826343 4.64388514,17.981005 C4.43806381,17.9689791 4.27750593,17.8040502 4.27750593,17.6046343 L4.27750593,10.3284834 C4.27750593,10.2169144 4.32856518,10.1110869 4.41698633,10.0394554 L7.73573747,7.35025927 C7.8518742,7.25616659 8.01385597,7.23568384 8.1511103,7.29767522 L11.162784,8.65875065 C11.2258961,8.68726358 11.2799234,8.7315847 11.3192908,8.78713642 L13.030979,11.2018907 C13.1445087,11.3620481 13.1137046,11.5794058 12.9598049,11.7041256 L5.65756974,17.6209274 C5.65582498,17.6223821 5.65410027,17.6238175 5.65237557,17.625214 L5.52595077,17.7277248 C5.51522151,17.7364532 5.50401094,17.7446192 5.49239927,17.7521644 C5.26678396,17.9034963 5.00216226,17.9834489 4.72667092,17.9834489 Z" id="Fill-10" fill="#D95043"></path>
                        <path d="M5.05719234,5.89954849 L8.15109025,7.29769073 L9.86831358,8.07372737 L8.96480948,6.79904418 L5.05719234,1.28635022 L5.05719234,5.89954849 Z M10.9976135,9.37740841 C10.9419216,9.37740841 10.8856682,9.36586746 10.8327238,9.34193211 L7.82105014,7.98087608 L4.50231905,6.48115409 C4.36514494,6.41918211 4.27750593,6.28598599 4.27750593,6.13956142 L4.27750593,0.593757543 C4.27750593,0.484457974 4.32653965,0.38053125 4.41189243,0.308919181 C4.49726527,0.237287716 4.61055424,0.205050647 4.72245943,0.220490302 C5.06836281,0.268264009 5.37730538,0.441979526 5.59283318,0.709787716 C5.59832817,0.716518319 5.6035825,0.723404095 5.60855606,0.730445043 L5.67010392,0.817322198 C5.67122698,0.818893319 5.67232999,0.820483836 5.673433,0.822074353 L9.60788332,6.37264978 L11.3193108,8.78715194 C11.4187019,8.92736961 11.4087748,9.11458513 11.2950647,9.24425108 C11.2191376,9.33079849 11.1094986,9.37740841 10.9976135,9.37740841 Z" id="Fill-12" fill="#D95043"></path>
                        <path d="M12.1272543,9.92697478 L16.9385962,16.7146235 L16.9385962,12.10127 L13.8446782,10.7031278 L12.1272543,9.92697478 Z M17.3284594,17.7834705 C17.309949,17.7834705 17.2913783,17.7822097 17.2728077,17.77963 C16.9208277,17.7305373 16.5970246,17.5433412 16.3844047,17.2660093 C16.381216,17.261839 16.3781076,17.2575912 16.3750793,17.2533045 L16.3412671,17.2056084 C16.3383191,17.2016321 16.3354913,17.1975976 16.3327238,17.193505 L10.676217,9.21355022 C10.5768259,9.07333254 10.586773,8.88609763 10.7004631,8.75645108 C10.8141732,8.62678513 11.0035497,8.58677004 11.162784,8.65875065 L14.1747384,10.0199231 L17.4934695,11.5196644 C17.6306235,11.5816364 17.7182826,11.7148325 17.7182826,11.8612571 L17.7182826,17.4064403 C17.7182826,17.5158369 17.6691686,17.6198218 17.5836755,17.6914338 C17.512361,17.7511752 17.4215734,17.7834705 17.3284594,17.7834705 Z" id="Fill-14" fill="#D95043"></path>
                        <path d="M2.4851577,16.2399937 C2.26987056,16.2399937 2.09533455,16.0711662 2.09533455,15.8629442 L2.09533455,6.77614461 C2.09533455,6.56792263 2.26987056,6.39909504 2.4851577,6.39909504 C2.70044485,6.39909504 2.87498086,6.56792263 2.87498086,6.77614461 L2.87498086,15.8629442 C2.87498086,16.0711662 2.70044485,16.2399937 2.4851577,16.2399937" id="Fill-16" fill="#D95043"></path>
                        <path d="M2.4851577,5.51419332 C2.2698505,5.51419332 2.09533455,5.34538513 2.09533455,5.13714375 L2.09533455,4.19546056 C2.09533455,3.98721918 2.2698505,3.81841099 2.4851577,3.81841099 C2.7004649,3.81841099 2.87498086,3.98721918 2.87498086,4.19546056 L2.87498086,5.13714375 C2.87498086,5.34538513 2.7004649,5.51419332 2.4851577,5.51419332" id="Fill-18" fill="#D95043"></path>
                    </g>
                </g>
            </g>
        </g>
    </g>
</svg>