<?xml version="1.0" encoding="utf-8"?>
<!-- Generator: Adobe Illustrator 22.1.0, SVG Export Plug-In . SVG Version: 6.00 Build 0)  -->
<svg version="1.1" id="图层_1" xmlns="http://www.w3.org/2000/svg" xmlns:xlink="http://www.w3.org/1999/xlink" x="0px" y="0px"
	 viewBox="0 0 24 24" style="enable-background:new 0 0 24 24;" xml:space="preserve">
<style type="text/css">
	.st0{clip-path:url(#SVGID_2_);}
	.st1{clip-path:url(#SVGID_4_);fill:none;stroke:#333333;stroke-width:4;stroke-miterlimit:10;}
</style>
<title>ico_无边界白板</title>
<desc>Created with Sketch.</desc>
<g>
	<defs>
		<path id="SVGID_1_" d="M8,2h8c0.6,0,1,0.4,1,1s-0.4,1-1,1H8C7.4,4,7,3.6,7,3S7.4,2,8,2z M11,20v-2H3c-0.6,0-1-0.4-1-1V6
			c0-0.6,0.4-1,1-1h18c0.6,0,1,0.4,1,1v11c0,0.6-0.4,1-1,1h-8v2h4c0.6,0,1,0.4,1,1s-0.4,1-1,1H7c-0.6,0-1-0.4-1-1s0.4-1,1-1H11z"/>
	</defs>
	<clipPath id="SVGID_2_">
		<use xlink:href="#SVGID_1_"  style="overflow:visible;"/>
	</clipPath>
	<g class="st0">
		<defs>
			<rect id="SVGID_3_" x="-1026" y="-1923" width="1920" height="4945"/>
		</defs>
		<clipPath id="SVGID_4_">
			<use xlink:href="#SVGID_3_"  style="overflow:visible;"/>
		</clipPath>
		<path class="st1" d="M8,2h8c0.6,0,1,0.4,1,1c0,0.6-0.4,1-1,1H8C7.4,4,7,3.6,7,3C7,2.4,7.4,2,8,2z M11,20v-2H3c-0.6,0-1-0.4-1-1V6
			c0-0.6,0.4-1,1-1h18c0.6,0,1,0.4,1,1v11c0,0.6-0.4,1-1,1h-8v2h4c0.6,0,1,0.4,1,1s-0.4,1-1,1H7c-0.6,0-1-0.4-1-1s0.4-1,1-1H11z"/>
	</g>
</g>
</svg>
