<?xml version="1.0" encoding="UTF-8"?>
<svg width="24px" height="24px" viewBox="0 0 24 24" version="1.1" xmlns="http://www.w3.org/2000/svg" xmlns:xlink="http://www.w3.org/1999/xlink">
    <!-- Generator: Sketch 51.2 (57519) - http://www.bohemiancoding.com/sketch -->
    <title>ico_云通讯录</title>
    <desc>Created with Sketch.</desc>
    <defs></defs>
    <g id="设计稿" stroke="none" stroke-width="1" fill="none" fill-rule="evenodd">
        <g id="ImClass官网--功能概述" transform="translate(-1026.000000, -2978.000000)">
            <g id="智能教务管理" transform="translate(360.000000, 2832.000000)">
                <g id="云通讯录系统" transform="translate(650.000000, 121.000000)">
                    <g id="ico_云通讯录" transform="translate(16.000000, 25.000000)">
                        <rect id="Rectangle-Copy-3" x="0" y="0" width="24" height="24"></rect>
                        <rect id="Rectangle-27" fill="#333333" fill-rule="nonzero" x="15" y="3" width="1" height="18" rx="0.5"></rect>
                        <path d="M4.72727273,4 L4.72727273,20 C4.72727273,20.5522847 5.17498798,21 5.72727273,21 L19,21 C19.5522847,21 20,20.5522847 20,20 L20,4 C20,3.44771525 19.5522847,3 19,3 L5.72727273,3 C5.17498798,3 4.72727273,3.44771525 4.72727273,4 Z" id="Rectangle-10-Copy" stroke="#333333" stroke-width="2"></path>
                        <rect id="Rectangle-11-Copy-3" fill="#333333" x="1.54545455" y="6" width="6" height="2" rx="1"></rect>
                        <rect id="Rectangle-11-Copy-4" fill="#333333" x="1.54545455" y="10.9090909" width="6" height="2" rx="1"></rect>
                        <rect id="Rectangle-11-Copy-5" fill="#333333" x="1.54545455" y="15.8181818" width="6" height="2" rx="1"></rect>
                    </g>
                </g>
            </g>
        </g>
    </g>
</svg>