<?xml version="1.0" encoding="utf-8"?>
<!-- Generator: Adobe Illustrator 22.1.0, SVG Export Plug-In . SVG Version: 6.00 Build 0)  -->
<svg version="1.1" id="图层_1" xmlns="http://www.w3.org/2000/svg" xmlns:xlink="http://www.w3.org/1999/xlink" x="0px" y="0px"
	 viewBox="0 0 24 24" style="enable-background:new 0 0 24 24;" xml:space="preserve">
<style type="text/css">
	.st0{clip-path:url(#SVGID_2_);}
	.st1{clip-path:url(#SVGID_4_);fill:none;stroke:#333333;stroke-width:4;stroke-miterlimit:10;}
	.st2{clip-path:url(#SVGID_6_);}
	.st3{clip-path:url(#SVGID_8_);fill:#333333;}
</style>
<g>
	<g>
		<defs>
			<path id="SVGID_1_" d="M11,19.5v-2H3c-0.6,0-1-0.4-1-1v-13c0-0.6,0.4-1,1-1h18c0.6,0,1,0.4,1,1v13c0,0.6-0.4,1-1,1h-8v2h4
				c0.6,0,1,0.4,1,1s-0.4,1-1,1H7c-0.6,0-1-0.4-1-1s0.4-1,1-1H11z"/>
		</defs>
		<clipPath id="SVGID_2_">
			<use xlink:href="#SVGID_1_"  style="overflow:visible;"/>
		</clipPath>
		<g class="st0">
			<defs>
				<rect id="SVGID_3_" x="-1026" y="-2065.5" width="1920" height="4945"/>
			</defs>
			<clipPath id="SVGID_4_">
				<use xlink:href="#SVGID_3_"  style="overflow:visible;"/>
			</clipPath>
			<path class="st1" d="M11,19.5v-2H3c-0.6,0-1-0.4-1-1v-13c0-0.6,0.4-1,1-1h18c0.6,0,1,0.4,1,1v13c0,0.6-0.4,1-1,1h-8v2h4
				c0.6,0,1,0.4,1,1s-0.4,1-1,1H7c-0.6,0-1-0.4-1-1s0.4-1,1-1H11z"/>
		</g>
	</g>
	<g>
		<defs>
			<path id="SVGID_5_" d="M12.9,7.1c-0.3-0.2-0.5-0.1-0.5,0.4v1.1h0c-1.5,0-4.1,2-4.1,3.8c0,0.1,0.1,0.2,0.2,0
				c0.5-1,2.6-1.5,3.6-1.5h0.4V12c0,0.4,0.2,0.6,0.5,0.4l2.4-2.2c0.3-0.2,0.3-0.6,0-0.9L12.9,7.1z"/>
		</defs>
		<clipPath id="SVGID_6_">
			<use xlink:href="#SVGID_5_"  style="overflow:visible;"/>
		</clipPath>
		<g class="st2">
			<defs>
				<rect id="SVGID_7_" x="-1026" y="-2065.5" width="1920" height="4945"/>
			</defs>
			<clipPath id="SVGID_8_">
				<use xlink:href="#SVGID_7_"  style="overflow:visible;"/>
			</clipPath>
			<rect x="3.2" y="2" class="st3" width="17.3" height="15.5"/>
		</g>
	</g>
</g>
</svg>
