<?xml version="1.0" encoding="UTF-8"?>
<svg width="22px" height="22px" viewBox="0 0 22 22" version="1.1" xmlns="http://www.w3.org/2000/svg" xmlns:xlink="http://www.w3.org/1999/xlink">
    <!-- Generator: Sketch 51.2 (57519) - http://www.bohemiancoding.com/sketch -->
    <title>ico_智能排课</title>
    <desc>Created with Sketch.</desc>
    <defs></defs>
    <g id="设计稿" stroke="none" stroke-width="1" fill="none" fill-rule="evenodd">
        <g id="ImClass官网--功能概述" transform="translate(-1027.000000, -3203.000000)" fill="#000000" fill-rule="nonzero">
            <g id="智能教务管理" transform="translate(360.000000, 2832.000000)">
                <g id="排课" transform="translate(650.000000, 342.000000)">
                    <g id="ico_智能排课" transform="translate(17.000000, 29.000000)">
                        <path d="M9.262,17.138 C9.50547692,17.3818357 9.83591788,17.5188513 10.1805,17.5188513 C10.5250821,17.5188513 10.8555231,17.3818357 11.099,17.138 L15.081,13.2 C15.4547545,12.7635637 15.4296255,12.1129864 15.0233195,11.7066805 C14.6170136,11.3003745 13.9664363,11.2752455 13.53,11.649 L10.23,14.949 L8.481,13.2 C8.04456369,12.8262455 7.39398641,12.8513745 6.98768046,13.2576805 C6.5813745,13.6639864 6.55624552,14.3145637 6.93,14.751 L9.262,17.138 Z M18.931,2.2 L17.75,2.2 L17.75,1.1 C17.75,0.492486793 17.2325132,4.63614923e-08 16.625,4.63614924e-08 C16.0174868,4.63614925e-08 15.5,0.492486793 15.5,1.1 L15.5,2.2 L6.5,2.2 L6.5,1.1 C6.5,0.492486775 5.98251322,3.71994563e-17 5.375,0 C4.76748678,-3.71994563e-17 4.25,0.492486775 4.25,1.1 L4.25,2.2 L3.069,2.2 C1.3740381,2.2 9.60287256e-16,3.5740381 0,5.269 L0,18.931 C2.07572966e-16,20.6259619 1.3740381,22 3.069,22 L18.931,22 C20.6259619,22 22,20.6259619 22,18.931 L22,5.269 C22,3.5740381 20.6259619,2.2 18.931,2.2 Z M20,19.1222222 C20,19.6070055 19.6020931,20 19.11125,20 L2.88875,20 C2.39790693,20 2,19.6070055 2,19.1222222 L2,10 L20,10 L20,19.1222222 Z M20,8 L2,8 L2,5.269 C2,4.78906455 2.39790693,4.4 2.88875,4.4 L4.25,4.4 L4.25,5.5 C4.25,6.10751322 4.75367966,6.6 5.375,6.6 C5.99632034,6.6 6.5,6.10751322 6.5,5.5 L6.5,4.4 L15.5,4.4 L15.5,5.5 C15.5,6.10751321 16.0036797,6.59999995 16.625,6.59999995 C17.2463203,6.59999995 17.75,6.10751321 17.75,5.5 L17.75,4.4 L19.11125,4.4 C19.6020931,4.4 20,4.78906455 20,5.269 L20,8 Z" id="Shape"></path>
                    </g>
                </g>
            </g>
        </g>
    </g>
</svg>