<?xml version="1.0" encoding="UTF-8"?>
<svg width="75px" height="18px" viewBox="0 0 75 18" version="1.1" xmlns="http://www.w3.org/2000/svg" xmlns:xlink="http://www.w3.org/1999/xlink">
    <!-- Generator: Sketch 51.2 (57519) - http://www.bohemiancoding.com/sketch -->
    <title>Group 18</title>
    <desc>Created with Sketch.</desc>
    <defs>
        <polygon id="path-1" points="0 18 75 18 75 0 0 0"></polygon>
    </defs>
    <g id="Page-1" stroke="none" stroke-width="1" fill="none" fill-rule="evenodd">
        <g id="主界面-激活态" transform="translate(-528.000000, -35.000000)">
            <g id="bar_top" transform="translate(509.000000, 18.000000)">
                <g id="Group-18" transform="translate(19.000000, 17.000000)">
                    <path d="M28.5758817,5.76758 C28.5758817,6.2594925 28.1888839,6.658255 27.7114844,6.658255 C27.2340848,6.658255 26.8470871,6.2594925 26.8470871,5.76758 C26.8470871,5.2756675 27.2340848,4.876905 27.7114844,4.876905 C28.1888839,4.876905 28.5758817,5.2756675 28.5758817,5.76758" id="Fill-1" fill="#FFFFFF"></path>
                    <mask id="mask-2" fill="white">
                        <use xlink:href="#path-1"></use>
                    </mask>
                    <g id="Clip-4"></g>
                    <polygon id="Fill-3" fill="#FFFFFF" mask="url(#mask-2)" points="51.6924107 15.87677 53.4212054 15.87677 53.4212054 2.11587 51.6924107 2.11587"></polygon>
                    <path d="M38.4143136,7.3680925 C37.3773717,7.349635 36.4424944,7.810325 35.8043248,8.548855 C35.1784877,7.824585 34.267327,7.367575 33.2543248,7.367575 C31.3716797,7.367575 29.8399833,8.9457775 29.8399833,10.8857125 L29.8399833,15.87677 L31.5687779,15.87677 L31.5687779,10.8857125 C31.5687779,9.92805 32.3249163,9.148925 33.2543248,9.148925 C34.1837891,9.148925 34.9399275,9.92805 34.9399275,10.8857125 L34.9399275,15.87677 L36.6687221,15.87677 L36.6687221,10.8857125 C36.6687221,9.90666 37.4589565,9.1142525 38.4167132,9.150075 C39.3263114,9.184115 40.0398717,9.969335 40.0398717,10.9072175 L40.0398717,15.87677 L41.7686663,15.87677 L41.7686663,10.9175675 C41.7686663,9.0159275 40.2595703,7.400925 38.4143136,7.3680925" id="Fill-5" fill="#FFFFFF" mask="url(#mask-2)"></path>
                    <path d="M50.0943304,14.095397 C48.7725112,14.095397 47.5297656,13.5649595 46.5951116,12.601892 C45.6604018,11.638767 45.1456696,10.3582995 45.1456696,8.996297 C45.1456696,7.634237 45.6604018,6.3537695 46.5951116,5.3906445 C47.5297656,4.427577 48.7725112,3.897197 50.0943304,3.897197 L50.0943304,2.115847 C46.4064955,2.115847 43.416875,5.1962945 43.416875,8.996297 C43.416875,12.796242 46.4064955,15.876747 50.0943304,15.876747 L50.0943304,14.095397 Z" id="Fill-6" fill="#FFFFFF" mask="url(#mask-2)"></path>
                    <path d="M60.2569196,13.3714777 C59.8038504,13.8383202 59.2015067,14.0954027 58.5607701,14.0954027 C57.9200893,14.0954027 57.3176897,13.8383202 56.8646763,13.3714777 C56.405971,12.8988852 56.1559152,12.2685702 56.162221,11.5992127 C56.168192,10.9621702 56.4148996,10.3483577 56.8478795,9.89353275 C57.3027902,9.41565025 57.9121094,9.15212775 58.5607701,9.15212775 C59.2015067,9.15212775 59.8038504,9.40926775 60.2569196,9.87605275 C60.7099888,10.3428952 60.9594866,10.9636077 60.9594866,11.6237652 C60.9594866,12.2839227 60.7099888,12.9046352 60.2569196,13.3714777 Z M62.6882812,11.6237652 C62.6882812,8.95651275 60.3053571,6.86276525 57.6135045,7.47939525 C56.0819754,7.83026025 54.8792411,9.06955775 54.5387277,10.6476452 C53.9402344,13.4213877 55.9722098,15.8767527 58.5607701,15.8767527 C59.4553571,15.8767527 60.2834263,15.5833877 60.9594866,15.0850352 L60.9594866,15.8767527 L62.6882812,15.8767527 L62.6882812,11.6237652 Z" id="Fill-7" fill="#FFFFFF" mask="url(#mask-2)"></path>
                    <polygon id="Fill-8" fill="#FFFFFF" mask="url(#mask-2)" points="26.8470982 15.87677 28.5758929 15.87677 28.5758929 7.3708525 26.8470982 7.3708525"></polygon>
                    <path d="M66.4408538,10.734062 C66.0008426,10.734062 65.6460993,10.350882 65.6743359,9.8913995 C65.6993359,9.483667 66.0584319,9.1511445 66.4549163,9.1511445 L67.6803069,9.1511445 L67.6803069,7.367552 L66.4673605,7.367552 C65.1085993,7.367552 63.9779632,8.4743695 63.9426395,9.873977 C63.9059208,11.327462 65.03851,12.5176545 66.4408538,12.5176545 C66.880865,12.5176545 67.2356083,12.900777 67.2074275,13.3602595 C67.1823717,13.7680495 66.8233315,14.100572 66.4267913,14.100572 L64.5026842,14.100572 L64.5026842,15.8841645 L66.4144029,15.8841645 C67.7731083,15.8841645 68.9037444,14.777347 68.9390681,13.3777395 C68.975731,11.9242545 67.8431975,10.734062 66.4408538,10.734062" id="Fill-9" fill="#FFFFFF" mask="url(#mask-2)"></path>
                    <path d="M71.7136663,10.734062 C71.2736551,10.734062 70.9189118,10.350882 70.9471484,9.8913995 C70.9721484,9.483667 71.3312444,9.1511445 71.7277288,9.1511445 L72.9531194,9.1511445 L72.9531194,7.367552 L71.740173,7.367552 C70.3814118,7.367552 69.2507757,8.4743695 69.215452,9.873977 C69.1787333,11.327462 70.3113225,12.5176545 71.7136663,12.5176545 C72.1536775,12.5176545 72.5084208,12.900777 72.48024,13.3602595 C72.4551842,13.7680495 72.096144,14.100572 71.6996038,14.100572 L69.7754967,14.100572 L69.7754967,15.8841645 L71.6872154,15.8841645 C73.0459208,15.8841645 74.1765569,14.777347 74.2118806,13.3777395 C74.2485435,11.9242545 73.11601,10.734062 71.7136663,10.734062" id="Fill-10" fill="#FFFFFF" mask="url(#mask-2)"></path>
                    <path d="M16.6622303,17.5106843 C16.6347303,17.4734223 16.6081827,17.435089 16.5834208,17.3956843 L16.6622303,17.5106843 Z" id="Fill-11" fill="#FFFFFF" mask="url(#mask-2)"></path>
                    <path d="M21.4637333,3.95953275 L21.4637333,14.0383053 L18.0295815,17.5769128 C17.8603292,17.7431453 17.6309766,17.8452653 17.3788002,17.8452653 C17.3326507,17.8452653 17.2874498,17.8418152 17.2430859,17.8352603 L17.2430859,-0.04378975 C17.4671373,-0.03033475 17.6702623,0.06367775 17.825452,0.21076275 L17.8817578,0.26878025 L21.4637333,3.95953275 Z" id="Fill-12" fill="#FFFFFF" mask="url(#mask-2)"></path>
                    <path d="M17.2431138,-0.04376675 L17.2431138,7.60298575 L13.9685045,10.4297433 L10.9966295,8.99885575 L9.30795759,6.46074825 L16.5641518,0.19681325 L16.6003125,0.16564825 C16.7614732,0.03345575 16.9654353,-0.04549175 17.1873103,-0.04549175 C17.2060603,-0.04549175 17.2246429,-0.04497425 17.2431138,-0.04376675" id="Fill-13" fill="#FFFFFF" mask="url(#mask-2)"></path>
                    <path d="M12.6855469,11.5372335 L5.47583705,17.760861 L5.47533482,17.761436 L5.4546875,17.779261 L5.37109375,17.8514235 L5.34988839,17.869766 L5.34927455,17.8701685 C5.19626116,17.9806835 5.00998884,18.0455435 4.80892857,18.0455435 C4.78928571,18.0455435 4.76981027,18.0448535 4.75039062,18.043646 L4.75039062,10.394996 L8.025,7.5681235 L10.9966518,8.9988385 L12.6855469,11.5372335 Z" id="Fill-14" fill="#FFFFFF" mask="url(#mask-2)"></path>
                    <path d="M10.9966295,8.99886725 L8.02503348,7.56815225 L4.75042411,5.99161725 L4.75042411,0.16192225 C4.99835937,0.19837725 5.21515625,0.33442225 5.36164062,0.52946225 L5.36180804,0.52957725 L5.42252232,0.62094475 L5.42313616,0.62197975 L9.30795759,6.46075975 L10.9966295,8.99886725 Z" id="Fill-15" fill="#FFFFFF" mask="url(#mask-2)"></path>
                    <path d="M17.2431138,12.0062495 L17.2431138,17.835312 C16.9885937,17.797477 16.7669978,17.6550495 16.620625,17.4516145 L16.620346,17.451212 L16.583404,17.395667 L16.5826228,17.394632 L16.5825112,17.394402 L16.5816183,17.392907 L12.6855246,11.537222 L10.9966295,8.9988845 L13.9685045,10.429772 L17.2431138,12.0062495 Z" id="Fill-16" fill="#FFFFFF" mask="url(#mask-2)"></path>
                    <path d="M3.02475446,4.937901 C3.02475446,5.168591 2.83351562,5.3532235 2.60544643,5.332696 C2.41242187,5.3152735 2.25544643,5.1282835 2.25544643,4.9286435 L2.25544643,3.957296 C2.25544643,3.757656 2.41242187,3.5706085 2.60544643,3.553186 C2.83351562,3.5326585 3.02475446,3.717291 3.02475446,3.9480385 L3.02475446,4.937901 Z M4.61537946,0.151946 C4.36381696,0.151946 4.13530134,0.253376 3.96616071,0.418861 C3.96565848,0.4192635 0.529776786,3.9595385 0.529776786,3.9595385 L0.529776786,14.038311 L2.25544643,15.816441 L2.25544643,6.6700885 C2.25544643,6.4704485 2.41242187,6.283401 2.60544643,6.266036 C2.83351562,6.245451 3.02475446,6.430141 3.02475446,6.6607735 L3.02475446,16.609136 L4.12453125,17.7424035 C4.12508929,17.743036 4.12559152,17.7435535 4.12626116,17.7442435 L4.158125,17.7771335 C4.15879464,17.777766 4.15940848,17.778341 4.15996652,17.7788585 C4.3158817,17.931291 4.5221317,18.029271 4.75042411,18.043646 L4.75042411,0.1618935 C4.70633929,0.155281 4.66125,0.151946 4.61537946,0.151946 Z" id="Fill-17" fill="#FFFFFF" mask="url(#mask-2)"></path>
                </g>
            </g>
        </g>
    </g>
</svg>