<?xml version="1.0" encoding="UTF-8"?>
<svg width="120px" height="36px" viewBox="0 0 120 36" version="1.1" xmlns="http://www.w3.org/2000/svg" xmlns:xlink="http://www.w3.org/1999/xlink">
    <!-- Generator: Sketch 51.2 (57519) - http://www.bohemiancoding.com/sketch -->
    <title>logo_响应式</title>
    <desc>Created with Sketch.</desc>
    <defs>
        <polygon id="path-1" points="0 36 120 36 120 0 0 0"></polygon>
    </defs>
    <g id="设计稿" stroke="none" stroke-width="1" fill="none" fill-rule="evenodd">
        <g id="响应式首页" transform="translate(-5.000000, -7.000000)">
            <g id="Group-7">
                <g id="logo_响应式" transform="translate(5.000000, 7.000000)">
                    <path d="M48.005985,13.7838075 C48.005985,14.4254325 47.48586,14.9455575 46.844235,14.9455575 C46.20261,14.9455575 45.682485,14.4254325 45.682485,13.7838075 C45.682485,13.1421825 46.20261,12.6220575 46.844235,12.6220575 C47.48586,12.6220575 48.005985,13.1421825 48.005985,13.7838075" id="Fill-1" fill="#D95043"></path>
                    <mask id="mask-2" fill="white">
                        <use xlink:href="#path-1"></use>
                    </mask>
                    <g id="Clip-4"></g>
                    <polygon id="Fill-3" fill="#555656" mask="url(#mask-2)" points="79.0746 26.969625 81.3981 26.969625 81.3981 9.020625 79.0746 9.020625"></polygon>
                    <path d="M61.2288375,15.871425 C59.8351875,15.84735 58.5787125,16.44825 57.7210125,17.41155 C56.8798875,16.46685 55.6552875,15.87075 54.2938125,15.87075 C51.7635375,15.87075 49.7049375,17.929275 49.7049375,20.459625 L49.7049375,26.9697 L52.0284375,26.9697 L52.0284375,20.459625 C52.0284375,19.2105 53.0446875,18.194175 54.2938125,18.194175 C55.5430125,18.194175 56.5592625,19.2105 56.5592625,20.459625 L56.5592625,26.9697 L58.8827625,26.9697 L58.8827625,20.459625 C58.8827625,19.1826 59.9448375,18.149025 61.2320625,18.19575 C62.4545625,18.24015 63.4135875,19.26435 63.4135875,20.487675 L63.4135875,26.9697 L65.7370875,26.9697 L65.7370875,20.501175 C65.7370875,18.020775 63.7088625,15.91425 61.2288375,15.871425" id="Fill-5" fill="#555656" mask="url(#mask-2)"></path>
                    <path d="M76.92678,24.64617 C75.150255,24.64617 73.480005,23.954295 72.22383,22.69812 C70.96758,21.44187 70.27578,19.771695 70.27578,17.99517 C70.27578,16.21857 70.96758,14.548395 72.22383,13.292145 C73.480005,12.03597 75.150255,11.34417 76.92678,11.34417 L76.92678,9.02067 C71.97033,9.02067 67.95228,13.038645 67.95228,17.99517 C67.95228,22.95162 71.97033,26.96967 76.92678,26.96967 L76.92678,24.64617 Z" id="Fill-6" fill="#555656" mask="url(#mask-2)"></path>
                    <path d="M90.5853,23.701935 C89.976375,24.31086 89.166825,24.646185 88.305675,24.646185 C87.4446,24.646185 86.634975,24.31086 86.026125,23.701935 C85.409625,23.08551 85.07355,22.26336 85.082025,21.390285 C85.09005,20.55936 85.421625,19.758735 86.00355,19.165485 C86.61495,18.54216 87.433875,18.198435 88.305675,18.198435 C89.166825,18.198435 89.976375,18.533835 90.5853,19.142685 C91.194225,19.75161 91.52955,20.561235 91.52955,21.42231 C91.52955,22.283385 91.194225,23.09301 90.5853,23.701935 Z M93.85305,21.42231 C93.85305,17.943285 90.6504,15.21231 87.03255,16.01661 C84.974175,16.47426 83.3577,18.090735 82.90005,20.14911 C82.095675,23.767035 84.82665,26.969685 88.305675,26.969685 C89.508,26.969685 90.620925,26.587035 91.52955,25.93701 L91.52955,26.96961 L93.85305,26.969685 L93.85305,21.42231 Z" id="Fill-7" fill="#555656" mask="url(#mask-2)"></path>
                    <polygon id="Fill-8" fill="#555656" mask="url(#mask-2)" points="45.6825 26.969625 48.006 26.969625 48.006 15.87495 45.6825 15.87495"></polygon>
                    <path d="M98.8965075,20.26182 C98.3051325,20.26182 97.8283575,19.76202 97.8663075,19.162695 C97.8999075,18.63087 98.3825325,18.197145 98.9154075,18.197145 L100.562333,18.197145 L100.562333,15.87072 L98.9321325,15.87072 C97.1059575,15.87072 95.5863825,17.314395 95.5389075,19.13997 C95.4895575,21.03582 97.0117575,22.588245 98.8965075,22.588245 C99.4878825,22.588245 99.9646575,23.08797 99.9267825,23.687295 C99.8931075,24.219195 99.4105575,24.65292 98.8776075,24.65292 L96.2916075,24.65292 L96.2916075,26.979345 L98.8609575,26.979345 C100.687058,26.979345 102.206633,25.535595 102.254108,23.710095 C102.303383,21.814245 100.781258,20.26182 98.8965075,20.26182" id="Fill-9" fill="#555656" mask="url(#mask-2)"></path>
                    <path d="M105.983168,20.26182 C105.391793,20.26182 104.915018,19.76202 104.952968,19.162695 C104.986568,18.63087 105.469193,18.197145 106.002068,18.197145 L107.648993,18.197145 L107.648993,15.87072 L106.018793,15.87072 C104.192618,15.87072 102.673043,17.314395 102.625568,19.13997 C102.576218,21.03582 104.098418,22.588245 105.983168,22.588245 C106.574543,22.588245 107.051318,23.08797 107.013443,23.687295 C106.979768,24.219195 106.497218,24.65292 105.964268,24.65292 L103.378268,24.65292 L103.378268,26.979345 L105.947618,26.979345 C107.773718,26.979345 109.293293,25.535595 109.340768,23.710095 C109.390043,21.814245 107.867918,20.26182 105.983168,20.26182" id="Fill-10" fill="#555656" mask="url(#mask-2)"></path>
                    <path d="M31.6678725,29.0976075 C31.5150975,29.0976075 31.3645725,29.0276325 31.2668475,28.8957825 C31.2420225,28.8621825 31.2186975,28.8282075 31.1976975,28.7948325 C31.0530975,28.5651075 31.1189475,28.2618825 31.3458225,28.1127825 C31.5726225,27.9636075 31.8771225,28.0234575 32.0306475,28.2474075 L32.0785725,28.3171575 C32.2322475,28.5413325 32.1780975,28.8472575 31.9568475,29.0050575 C31.8691725,29.0675325 31.7679975,29.0976075 31.6678725,29.0976075" id="Fill-11" fill="#D95043" mask="url(#mask-2)"></path>
                    <path d="M32.9729775,7.365375 L32.9729775,28.520625 C33.0355275,28.489425 33.0938775,28.448925 33.1459275,28.399875 L37.4454525,24.100425 L37.4454525,11.8377 L32.9729775,7.365375 Z M32.6503275,29.5932 C32.5684275,29.5932 32.4855525,29.587275 32.4039525,29.57565 C32.1584025,29.540475 31.9760025,29.330175 31.9760025,29.08215 L31.9760025,6.596475 C31.9760025,6.459225 32.0326275,6.32805 32.1324525,6.23385 C32.2322775,6.139725 32.3666025,6.090825 32.5034775,6.098775 C32.8979775,6.1218 33.2755275,6.281925 33.5666025,6.54975 C33.5717025,6.5544 33.5766525,6.5592 33.5816025,6.564075 L38.2964025,11.278725 C38.3899275,11.37225 38.4424275,11.499 38.4424275,11.631225 L38.4424275,24.3069 C38.4424275,24.43905 38.3899275,24.565875 38.2964025,24.659325 L33.8461275,29.109675 C33.8432775,29.11245 33.8405025,29.115225 33.8376525,29.117925 C33.5162025,29.42445 33.0944775,29.5932 32.6503275,29.5932 Z" id="Fill-12" fill="#D95043" mask="url(#mask-2)"></path>
                    <path d="M11.314365,24.1004025 L15.78684,28.5728775 L15.78684,7.4171025 C15.72519,7.4479275 15.667665,7.4878275 15.616215,7.5360525 C15.474015,7.6781025 12.067065,11.0849775 11.314365,11.8377525 L11.314365,24.1004025 Z M15.167715,29.3636775 C15.169755,29.3657175 15.171915,29.3677575 15.174075,29.3699175 C15.171915,29.3678775 15.169875,29.3657175 15.167715,29.3636775 Z M15.172065,29.3679525 C15.172185,29.3679525 15.172185,29.3680725 15.172185,29.3680725 C15.172185,29.3680725 15.172185,29.3679525 15.172065,29.3679525 Z M16.285365,29.8426275 C16.27524,29.8426275 16.265115,29.8423275 16.254915,29.8417275 C15.854115,29.8172025 15.472515,29.6516775 15.180015,29.3755275 C15.17499,29.3708775 15.170115,29.3662275 15.165315,29.3614275 L15.12399,29.3201025 C15.12114,29.3172525 15.118365,29.3144775 15.115665,29.3115525 L10.463415,24.6593775 C10.36989,24.5658525 10.31739,24.4391025 10.31739,24.3068775 L10.31739,11.6312025 C10.31739,11.4989775 10.36989,11.3722275 10.463415,11.2787025 L14.725065,7.0172775 C14.84289,6.8994525 14.896815,6.8455275 14.926215,6.8172525 L14.925765,6.8168025 C15.246765,6.5119275 15.667515,6.3440775 16.11039,6.3440775 C16.19379,6.3440775 16.276965,6.3500775 16.357665,6.3619275 C16.60239,6.3977775 16.783815,6.6077775 16.783815,6.8551275 L16.783815,29.3441775 C16.783815,29.4816525 16.72704,29.6130525 16.626915,29.7072525 C16.53414,29.7944775 16.41189,29.8426275 16.285365,29.8426275 Z" id="Fill-13" fill="#D95043" mask="url(#mask-2)"></path>
                    <path d="M24.713985,17.57493 L28.15431,19.18248 L31.97601,15.980805 L31.97601,7.231455 C31.969335,7.23633 31.96266,7.241355 31.956135,7.24653 L31.91436,7.28148 L22.858485,14.86833 L24.713985,17.57493 Z M28.230885,20.26698 C28.159335,20.26698 28.087335,20.251605 28.019985,20.220105 L24.168735,18.420555 C24.088035,18.38283 24.01896,18.324255 23.968635,18.25083 L21.780285,15.058755 C21.63516,14.84703 21.674535,14.55963 21.871335,14.394855 L31.274535,6.51693 L31.32186,6.47733 C31.32486,6.474855 31.327935,6.472305 31.33101,6.46983 C31.633935,6.22863 32.014335,6.095805 32.40216,6.095805 C32.437785,6.095805 32.472735,6.096855 32.50596,6.098955 C32.768535,6.11553 32.972985,6.33333 32.972985,6.59643 L32.972985,16.213455 C32.972985,16.360905 32.90766,16.500855 32.794635,16.59558 L28.55106,20.150655 C28.45956,20.227305 28.345785,20.26698 28.230885,20.26698 Z" id="Fill-14" fill="#D95043" mask="url(#mask-2)"></path>
                    <path d="M16.7838,19.9575 L16.7838,28.70835 L16.898775,28.61205 C16.90095,28.610175 16.9032,28.6083 16.905375,28.606425 L25.901325,21.069975 L24.045525,18.363 L20.605575,16.755675 L16.7838,19.9575 Z M16.361175,29.844975 C16.32675,29.844975 16.291125,29.843925 16.25535,29.84175 C15.992175,29.82585 15.7869,29.607825 15.7869,29.3442 L15.7869,19.724775 C15.7869,19.577325 15.85215,19.437375 15.965175,19.342725 L20.20875,15.7875 C20.35725,15.663075 20.564325,15.636 20.7399,15.717975 L24.590775,17.517375 C24.6714,17.555025 24.74055,17.613675 24.790875,17.6871 L26.979525,20.879475 C27.124725,21.091275 27.085275,21.3786 26.88855,21.54345 L17.5515,29.365725 C17.54925,29.367675 17.547075,29.36955 17.544825,29.371425 L17.3832,29.50695 C17.369475,29.518425 17.35515,29.529225 17.3403,29.5392 C17.051775,29.7393 16.71345,29.844975 16.361175,29.844975 Z" id="Fill-15" fill="#D95043" mask="url(#mask-2)"></path>
                    <path d="M16.7838,13.8696075 L20.7399,15.7179825 L22.9356,16.7439825 L21.7803,15.0587325 L16.7838,7.7707575 L16.7838,13.8696075 Z M24.379575,18.4674825 C24.308325,18.4674825 24.2364,18.4521825 24.16875,18.4206075 L20.3178,16.6212075 L16.0743,14.6385075 C15.89895,14.5565325 15.7869,14.3805075 15.7869,14.1868575 L15.7869,6.8551575 C15.7869,6.7106325 15.849525,6.5732325 15.958725,6.4785825 C16.06785,6.3838575 16.212675,6.3412575 16.355775,6.3616575 C16.79805,6.4248075 17.19315,6.6544575 17.4687,7.0085325 C17.47575,7.0173825 17.482425,7.0265325 17.4888,7.0358325 L17.567475,7.1507325 C17.568975,7.1527575 17.570325,7.1548575 17.57175,7.1569575 L22.6026,14.4950325 L24.790875,17.6871075 C24.918,17.8725075 24.90525,18.1200075 24.7599,18.2914575 C24.662775,18.4058325 24.5226,18.4674825 24.379575,18.4674825 Z" id="Fill-16" fill="#D95043" mask="url(#mask-2)"></path>
                    <path d="M25.8239925,19.1940225 L31.9760175,28.1675475 L31.9760175,22.0685475 L28.0199925,20.2200975 L25.8239925,19.1940225 Z M32.4745425,29.5806225 C32.4508425,29.5806225 32.4271425,29.5789725 32.4033675,29.5755225 C31.9532925,29.5106475 31.5392925,29.2631475 31.2674175,28.8965475 C31.2632925,28.8909975 31.2593175,28.8853725 31.2554925,28.8797475 L31.2122175,28.8166725 C31.2084675,28.8113475 31.2048675,28.8060975 31.2013425,28.8006225 L23.9686425,18.2508225 C23.8415175,18.0654225 23.8541925,17.8179225 23.9996175,17.6465475 C24.1450425,17.4750975 24.3871425,17.4222225 24.5907675,17.5173975 L28.4420175,19.3169475 L32.6855175,21.2996475 C32.8608675,21.3815475 32.9729925,21.5576475 32.9729925,21.7512225 L32.9729925,29.0821725 C32.9729925,29.2267725 32.9101425,29.3642475 32.8008675,29.4589725 C32.7096675,29.5378725 32.5935675,29.5806225 32.4745425,29.5806225 Z" id="Fill-17" fill="#D95043" mask="url(#mask-2)"></path>
                    <path d="M13.4950725,27.540075 C13.2197475,27.540075 12.9966225,27.316875 12.9966225,27.041625 L12.9966225,15.0285 C12.9966225,14.753175 13.2197475,14.53005 13.4950725,14.53005 C13.7703225,14.53005 13.9935225,14.753175 13.9935225,15.0285 L13.9935225,27.041625 C13.9935225,27.316875 13.7703225,27.540075 13.4950725,27.540075" id="Fill-18" fill="#D95043" mask="url(#mask-2)"></path>
                    <path d="M13.4950725,13.3601325 C13.2197475,13.3601325 12.9966225,13.1369325 12.9966225,12.8616825 L12.9966225,11.6166825 C12.9966225,11.3414325 13.2197475,11.1182325 13.4950725,11.1182325 C13.7703975,11.1182325 13.9935225,11.3414325 13.9935225,11.6166825 L13.9935225,12.8616825 C13.9935225,13.1369325 13.7703975,13.3601325 13.4950725,13.3601325" id="Fill-19" fill="#D95043" mask="url(#mask-2)"></path>
                </g>
            </g>
        </g>
    </g>
</svg>