<?xml version="1.0" encoding="UTF-8"?>
<svg width="120px" height="121px" viewBox="0 0 120 121" version="1.1" xmlns="http://www.w3.org/2000/svg" xmlns:xlink="http://www.w3.org/1999/xlink">
    <!-- Generator: Sketch 51.2 (57519) - http://www.bohemiancoding.com/sketch -->
    <title>pic_英语辅导</title>
    <desc>Created with Sketch.</desc>
    <defs></defs>
    <g id="设计稿" stroke="none" stroke-width="1" fill="none" fill-rule="evenodd">
        <g id="ImClass官网--功能概述" transform="translate(-500.000000, -3442.000000)" fill-rule="nonzero">
            <g id="ImClass满足了教学市场的不同场景" transform="translate(0.000000, 3248.000000)">
                <g id="英语双师" transform="translate(425.000000, 194.000000)">
                    <g id="pic_英语辅导" transform="translate(75.000000, 0.000000)">
                        <circle id="Oval-2" fill="#48B6FF" cx="60" cy="60" r="60"></circle>
                        <g id="英语教学" transform="translate(27.567568, 36.486486)" fill="#FFFFFF">
                            <path d="M56.4364228,0.049114524 L8.42844208,0.049114524 C3.80853852,0.049114524 0.0665052632,3.81754054 0.0665053407,8.47002869 L0.0665053407,42.0108065 C0.0665053407,46.6632946 3.80853852,50.4317207 8.42844208,50.4317206 L23.5473204,50.4317206 L31.2796734,55.4146157 C31.9092572,56.04864 32.9467403,56.04864 33.5763241,55.4146157 L40.8298387,50.9139363 C41.1401969,50.6013891 41.5480963,50.4406505 41.9825977,50.4406505 L56.4364228,50.4406505 C61.0563263,50.4406505 64.7983596,46.6722245 64.7983595,42.0197364 L64.7983595,8.47895863 C64.7983595,3.82647056 61.0563263,0.0491146021 56.4364228,0.049114524 Z M30.0737101,34.625763 C29.6746781,34.9918897 29.1071659,35.179418 28.3889084,35.179418 L18.0495464,35.179418 C17.0918697,35.179418 16.3647447,34.9472401 15.9125085,34.4739544 C15.4602723,34.0095986 15.2208531,33.2862751 15.2208531,32.3307737 L15.2208531,18.1054119 C15.2208531,17.4892475 15.3272617,16.9623822 15.5046092,16.542676 C15.7174262,16.0872501 16.0543865,15.7479131 16.5066228,15.542525 C16.9145222,15.3549967 17.4376974,15.2656975 18.0406791,15.2656975 L28.0874176,15.2656975 C28.8234099,15.2656975 29.390922,15.4442959 29.7722193,15.8014926 C30.1712512,16.1676193 30.375201,16.649835 30.3752009,17.2302798 C30.3752009,17.8196545 30.1712512,18.3108 29.7722193,18.6679968 C29.3820547,19.0251936 28.8145425,19.203792 28.0874176,19.203792 L20.0003695,19.203792 L20.0003695,22.8561291 L27.3957621,22.8561291 C28.1051523,22.8561291 28.6460623,23.0347275 29.0273596,23.3829943 C29.4175241,23.7401912 29.6214739,24.2134768 29.6214739,24.7849917 C29.6214739,25.3565066 29.4263915,25.8297923 29.0450943,26.195919 C28.6726645,26.5620457 28.1140197,26.7406441 27.4046295,26.740644 L20.0181042,26.740644 L20.0181042,31.1252346 L28.3889084,31.1252346 C29.1160333,31.1252346 29.6835454,31.3127629 30.0737101,31.6788896 C30.4816094,32.0539462 30.6855591,32.5629516 30.6855591,33.1612562 C30.6855591,33.7595608 30.4816094,34.2507064 30.0737101,34.625763 Z M51.7278454,32.5450918 C51.7278454,33.6434719 51.3997525,35.4830353 49.227245,35.4830353 C48.8370805,35.4830353 48.4735179,35.4294558 48.1542923,35.3044369 C47.8261994,35.179418 47.5247085,34.9918897 47.2320851,34.741852 C46.9749312,34.509674 46.7266446,34.2239167 46.5049602,33.9202994 C46.3010106,33.634542 46.0970609,33.3398547 45.8931111,33.0362374 L39.7568861,23.5615927 L39.7568861,32.8129894 C39.7568861,33.6434718 39.5529364,34.3042859 39.1450371,34.7507819 C38.7282703,35.2151377 38.1784929,35.4562455 37.5311744,35.4562456 C36.8661211,35.4562456 36.3074763,35.2151378 35.8995769,34.7329221 C35.500545,34.2774962 35.3054626,33.625612 35.3054626,32.8040594 L35.3054626,18.4804685 C35.3054626,17.8107245 35.3764017,17.2749294 35.5360145,16.873083 L35.5448819,16.864153 C35.7399642,16.3997972 36.0769245,16.0068807 36.5202933,15.7121934 C36.9636622,15.426436 37.4602354,15.2746274 37.9834106,15.2746274 C38.3824426,15.2746274 38.746005,15.3460667 39.0563633,15.4800156 C39.3401194,15.6139644 39.6150081,15.8014927 39.8278251,16.0247406 C40.0317748,16.2301287 40.2357245,16.4980263 40.4396741,16.8284334 C40.625889,17.1320507 40.8209714,17.435668 41.024921,17.757145 L47.3296263,27.3657384 L47.3296263,17.9089536 C47.3296263,17.0784712 47.5247086,16.4176571 47.9060058,15.9711611 C48.3050377,15.5068053 48.8459478,15.2567676 49.5110011,15.2567676 C50.1937892,15.2567676 50.7435665,15.4889455 51.1425985,15.9711611 C51.5327631,16.4176571 51.7278454,17.0784712 51.7278454,17.9089536 L51.7278454,32.5450918 Z" id="Shape"></path>
                        </g>
                    </g>
                </g>
            </g>
        </g>
    </g>
</svg>