<?xml version="1.0" encoding="UTF-8"?>
<svg width="120px" height="121px" viewBox="0 0 120 121" version="1.1" xmlns="http://www.w3.org/2000/svg" xmlns:xlink="http://www.w3.org/1999/xlink">
    <!-- Generator: Sketch 51.2 (57519) - http://www.bohemiancoding.com/sketch -->
    <title>pic_直播</title>
    <desc>Created with Sketch.</desc>
    <defs></defs>
    <g id="设计稿" stroke="none" stroke-width="1" fill="none" fill-rule="evenodd">
        <g id="ImClass官网--功能概述" transform="translate(-1300.000000, -3442.000000)" fill-rule="nonzero">
            <g id="ImClass满足了教学市场的不同场景" transform="translate(0.000000, 3248.000000)">
                <g id="直播公开课" transform="translate(1225.000000, 194.000000)">
                    <g id="pic直播" transform="translate(75.000000, 0.000000)">
                        <circle id="Oval-2-Copy-2" fill="#9FE157" cx="60" cy="60" r="60"></circle>
                        <path d="M35.6756757,36.4864865 L84.3243243,36.4864865 C88.8023088,36.4864865 92.4324324,40.1166101 92.4324324,44.5945946 L92.4324324,78.6486486 C92.4324324,83.1266331 88.8023088,86.7567568 84.3243243,86.7567568 L35.6756757,86.7567568 C31.1976912,86.7567568 27.5675676,83.1266331 27.5675676,78.6486486 L27.5675676,44.5945946 C27.5675676,40.1166101 31.1976912,36.4864865 35.6756757,36.4864865 Z M40.4559237,54.8905983 C40.4559237,54.1531927 40.2877816,53.6041985 39.9514922,53.2435991 C39.6152029,52.8829997 39.1756023,52.7027027 38.6326774,52.7027027 C38.0978558,52.7027027 37.6663585,52.8850255 37.3381725,53.2496766 C37.0099866,53.6143277 36.845896,54.1612961 36.845896,54.8905983 L36.845896,68.6135654 C36.845896,69.3914877 37.0180898,69.9546626 37.3624825,70.3031069 C37.7068752,70.6515513 38.2720759,70.8257709 39.0581015,70.8257709 L47.7732188,70.8257709 C48.3647639,70.8257709 48.8144935,70.6900417 49.1224211,70.4185792 C49.4303487,70.1471167 49.5843102,69.7926002 49.5843102,69.3550189 C49.5843102,68.9255409 49.4283229,68.5689986 49.1163436,68.285381 C48.8043643,68.0017635 48.3566606,67.8599569 47.7732188,67.8599569 L40.4559237,67.8599569 L40.4559237,54.8905983 Z M55.0418941,59.5216439 C55.0418941,58.9300988 54.883881,58.4682143 54.56785,58.1359767 C54.2518191,57.803739 53.8507089,57.6376227 53.3645075,57.6376227 C52.878306,57.6376227 52.4832733,57.803739 52.1793974,58.1359767 C51.8755215,58.4682143 51.7235858,58.9625117 51.7235858,59.6188837 L51.7235858,69.1119194 C51.7235858,69.760188 51.8755215,70.258537 52.1793974,70.6069813 C52.4832733,70.9554257 52.878306,71.1296453 53.3645075,71.1296453 C53.8507089,71.1296453 54.2518191,70.9594773 54.56785,70.6191363 C54.883881,70.2787953 55.0418941,69.7763947 55.0418941,69.1119194 L55.0418941,59.5216439 Z M53.4009724,56.0939408 C53.8466571,56.0939408 54.2315608,55.9501084 54.5556951,55.6624392 C54.8798293,55.37477 55.0418941,54.9756856 55.0418941,54.4651741 C55.0418941,53.9384559 54.8757777,53.5373457 54.5435401,53.2618316 C54.2113024,52.9863174 53.8304503,52.8485624 53.4009724,52.8485624 C52.9552877,52.8485624 52.5643066,53.0004981 52.2280173,53.304374 C51.8917279,53.6082499 51.7235858,53.9951794 51.7235858,54.4651741 C51.7235858,54.983789 51.8876763,55.3848992 52.2158623,55.6685167 C52.5440483,55.9521342 52.939081,56.0939408 53.4009724,56.0939408 Z M60.8155073,59.7039685 C60.5643033,58.9584596 60.3353868,58.4276977 60.1287512,58.1116667 C59.9221156,57.7956358 59.5432893,57.6376227 58.992261,57.6376227 C58.7086435,57.6376227 58.4452884,57.708526 58.2021876,57.8503347 C57.9590869,57.9921435 57.7686609,58.1744663 57.6309038,58.3973086 C57.4931467,58.620151 57.4242692,58.8450158 57.4242692,59.0719098 C57.4242692,59.2177702 57.4506047,59.3919898 57.5032766,59.5945737 C57.5559484,59.7971576 57.6207743,59.9956869 57.6977562,60.1901675 C57.7747381,60.3846481 57.849693,60.5791257 57.9226232,60.7736063 L61.0829168,68.5892554 C61.3989477,69.3428677 61.6238125,69.8472941 61.7575179,70.1025499 C61.8912233,70.3578056 62.0978558,70.5927995 62.3774217,70.8075384 C62.6569875,71.0222774 63.0317622,71.1296453 63.5017569,71.1296453 C63.866408,71.1296453 64.1763567,71.0607678 64.4316125,70.9230107 C64.6868682,70.7852536 64.901604,70.5928018 65.0758262,70.3456494 C65.2500484,70.098497 65.4080615,69.800703 65.5498702,69.4522587 C65.691679,69.1038143 65.8071501,68.8161494 65.896287,68.5892554 L69.0808905,60.6885215 C69.1700275,60.4697308 69.249034,60.2752532 69.3179126,60.1050827 C69.3867911,59.9349122 69.4475654,59.7525894 69.5002372,59.5581088 C69.552909,59.3636282 69.5792445,59.1934602 69.5792445,59.0475998 C69.5792445,58.6748454 69.4313605,58.3466643 69.1355879,58.0630468 C68.8398154,57.7794293 68.4812472,57.6376227 68.0598726,57.6376227 C67.614188,57.6376227 67.2819553,57.7693003 67.0631646,58.0326594 C66.844374,58.2960185 66.621535,58.7437223 66.394641,59.3757841 L63.5017569,67.2400532 L60.8155073,59.7039685 Z M81.2237109,65.1980173 C82.0907701,65.1980173 82.7633387,65.074443 83.2414368,64.8272906 C83.7195349,64.5801382 83.9585803,64.0392472 83.9585803,63.2046014 C83.9585803,62.3051287 83.7276381,61.421876 83.2657467,60.5548168 C82.8038554,59.6877575 82.1090029,58.9807502 81.1811685,58.4337736 C80.253334,57.8867969 79.1411649,57.6133127 77.8446277,57.6133127 C76.8479148,57.6133127 75.9403524,57.7733516 75.1219133,58.0934343 C74.3034742,58.4135169 73.6146991,58.8733755 73.0555675,59.4730239 C72.4964358,60.0726724 72.0710159,60.7918346 71.7792951,61.6305321 C71.4875742,62.4692296 71.341716,63.3788178 71.341716,64.359324 C71.341716,66.4418869 71.9332522,68.0908954 73.1163423,69.306399 C74.2994325,70.5219026 75.9565443,71.1296453 78.0877272,71.1296453 C79.0196133,71.1296453 79.8441176,71.0080967 80.5612647,70.764996 C81.2784119,70.5218953 81.8739997,70.2159981 82.3480461,69.8472954 C82.8220925,69.4785926 83.1766091,69.0936889 83.4116064,68.6925727 C83.6466038,68.2914565 83.7641007,67.9409916 83.7641007,67.6411674 C83.7641007,67.3008263 83.6587587,67.0374712 83.4480714,66.851094 C83.2373841,66.6647167 82.961874,66.5715295 82.621533,66.5715295 C82.3055021,66.5715295 82.062405,66.6444587 81.8922345,66.7903191 C81.4789633,67.1792802 81.142679,67.4872032 80.8833716,67.7140972 C80.6240641,67.9409912 80.3404509,68.1537012 80.0325233,68.3522334 C79.7245957,68.5507657 79.4065437,68.6966239 79.0783577,68.7898125 C78.7501718,68.8830011 78.387552,68.9295947 77.9904874,68.9295947 C77.3989424,68.9295947 76.8580514,68.7837365 76.3677982,68.4920156 C75.8775451,68.2002948 75.4845382,67.7667716 75.1887656,67.1914333 C74.8929931,66.6160949 74.7410574,65.9516296 74.7329541,65.1980173 L81.2237109,65.1980173 Z M74.7329541,63.3139961 C74.8464011,62.1957328 75.1685047,61.3509705 75.6992746,60.7796838 C76.2300445,60.2083971 76.9086905,59.922758 77.735233,59.922758 C78.6022922,59.922758 79.3011963,60.2043455 79.8319662,60.7675288 C80.3627361,61.3307122 80.6686333,62.1795261 80.7496668,63.3139961 L74.7329541,63.3139961 Z M73.1611223,26.7567568 C73.9367319,27.2045552 74.2024754,28.1963234 73.754677,28.9719331 L67.6735959,39.5046745 C67.2257975,40.2802841 66.2340292,40.5460276 65.4584196,40.0982292 C64.6828099,39.6504307 64.4170664,38.6586625 64.8648649,37.8830529 L70.9459459,27.3503115 C71.3937444,26.5747018 72.3855126,26.3089583 73.1611223,26.7567568 Z M47.6205817,26.7567568 C48.3961914,26.3089583 49.3879596,26.5747018 49.8357581,27.3503115 L55.9168391,37.8830529 C56.3646376,38.6586625 56.0988941,39.6504307 55.3232844,40.0982292 C54.5476748,40.5460276 53.5559066,40.2802841 53.1081081,39.5046745 L47.027027,28.9719331 C46.5792286,28.1963234 46.8449721,27.2045552 47.6205817,26.7567568 Z" id="Combined-Shape" fill="#FFFFFF"></path>
                    </g>
                </g>
            </g>
        </g>
    </g>
</svg>