<?xml version="1.0" encoding="UTF-8"?>
<svg width="48px" height="48px" viewBox="0 0 48 48" version="1.1" xmlns="http://www.w3.org/2000/svg" xmlns:xlink="http://www.w3.org/1999/xlink">
    <!-- Generator: Sketch 51.2 (57519) - http://www.bohemiancoding.com/sketch -->
    <title>btn_下载</title>
    <desc>Created with Sketch.</desc>
    <defs></defs>
    <g id="设计稿" stroke="none" stroke-width="1" fill="none" fill-rule="evenodd">
        <g id="技术支持-移动端插件hover效果" transform="translate(-1167.000000, -1714.000000)" fill-rule="nonzero">
            <g id="btn_下载" transform="translate(1167.000000, 1714.000000)">
                <circle id="Oval-4" fill="#D95043" cx="24" cy="24" r="24"></circle>
                <rect id="Rectangle-path" fill="#000000" opacity="0" x="12" y="12" width="24" height="24"></rect>
                <path d="M33.556033,28.759525 C33.5292911,28.1184157 33.1101513,27.7643677 32.5571582,27.7775108 C32.0092257,27.79051 31.6477908,28.1508417 31.5963457,28.8061494 C31.5585953,29.287551 31.5909253,29.7741092 31.5804924,30.258149 C31.5543501,31.4728774 31.2912965,31.7535591 30.0769518,31.7775189 C28.9072169,31.8006152 27.7366425,31.7850977 26.5664519,31.7851937 C23.8629089,31.7854095 21.159318,31.7874002 18.455775,31.7836587 C16.5938933,31.7810924 16.4325307,31.6202335 16.4236328,29.8101327 C16.4220259,29.4873836 16.4382868,29.1626437 16.4086429,28.8423169 C16.3455417,28.1605791 16.0259584,27.8058836 15.4848613,27.7752804 C14.9007853,27.7422068 14.4750739,28.1393535 14.4304162,28.8415734 C14.3895719,29.4847453 14.4125243,30.1323063 14.4167694,30.7778766 C14.4306081,32.8677956 15.3565003,33.8055838 17.4470909,33.8175277 C19.6259896,33.8299993 21.8050322,33.8203099 23.9840269,33.8208135 C24.6296451,33.8213411 25.2753114,33.821557 25.9209056,33.8213171 C27.5753519,33.8207415 29.230182,33.8437419 30.8840047,33.8121074 C32.3421201,33.7842383 33.4083651,32.9407781 33.5314737,31.6615575 C33.623835,30.7017282 33.5962777,29.725614 33.556033,28.759525 Z M16.6373039,22.3327944 C18.7175335,24.4141992 20.7980509,26.4953402 22.8785443,28.5765051 C22.9640224,28.6620311 23.0510834,28.7459742 23.1359858,28.8320279 C23.4707748,29.1714457 23.861326,29.362764 24.3344532,29.1835096 C24.4887886,29.1250372 24.6035028,29.036897 24.7015963,28.9368848 C24.7663524,28.8920592 24.8298134,28.8427246 24.8874463,28.7866986 C25.9570251,27.7466438 30.5148469,23.1741679 31.567781,22.1169887 C31.6808884,22.0034257 31.7895827,21.8813724 31.8787782,21.7487663 C32.1650481,21.323031 32.1258347,20.9059777 31.7862969,20.5334383 C31.4389883,20.1524086 31.0015969,20.1364115 30.5704892,20.3484038 C30.3611831,20.451318 30.188788,20.6404538 30.0183835,20.8094912 C29.30964,21.5124066 26.746234,24.0735101 25.0298138,25.7925446 C25.0307011,23.1075411 25.030989,20.4225615 25.0304613,17.7375339 C25.0303174,16.9313205 25.056028,16.1236442 25.0160471,15.3193495 C24.9788483,14.572208 24.6162382,14.1910584 24.032402,14.1719194 C23.433528,14.1522767 23.0701744,14.5171174 22.9885337,15.2537539 C22.9575947,15.5328527 22.9739276,15.8175157 22.9737837,16.0996604 C22.9728244,17.8733299 22.9732801,19.6470473 22.9732801,21.4207647 C22.9732561,22.7471134 22.9732801,24.0734622 22.9732801,25.3998349 C22.8812065,25.4405833 22.7891569,25.4813077 22.6970834,25.522056 C22.1639009,24.9908882 21.6300708,24.4602479 21.0975838,23.9283845 C19.9854099,22.8173138 18.8876741,21.6913732 17.7559774,20.6005928 C17.2450279,20.1080867 16.6527494,20.1000042 16.2459132,20.4871497 C15.8074185,20.9044188 15.8228641,21.401218 16.3004283,21.9860135 C16.4019994,22.1103452 16.5233572,22.2187517 16.6373039,22.3327944 Z" id="Shape" fill="#FFFFFF"></path>
            </g>
        </g>
    </g>
</svg>