<?xml version="1.0" encoding="UTF-8"?>
<svg width="48px" height="48px" viewBox="0 0 48 48" version="1.1" xmlns="http://www.w3.org/2000/svg" xmlns:xlink="http://www.w3.org/1999/xlink">
    <!-- Generator: Sketch 51.2 (57519) - http://www.bohemiancoding.com/sketch -->
    <title>btn_客服</title>
    <desc>Created with Sketch.</desc>
    <defs></defs>
    <g id="设计稿" stroke="none" stroke-width="1" fill="none" fill-rule="evenodd">
        <g id="ImClass官网--功能概述" transform="translate(-1580.000000, -1738.000000)" fill-rule="nonzero">
            <g id="btn_客服" transform="translate(1580.000000, 1738.000000)">
                <circle id="Oval-6" fill="#D95043" cx="24" cy="24" r="24"></circle>
                <g id="客服" transform="translate(8.000000, 8.000000)">
                    <rect id="Rectangle-path" fill="#000000" opacity="0" x="0" y="0" width="32" height="32"></rect>
                    <path d="M27.5872,11.9496 C25.96,6.876 21.4776,3.2144 16.2032,3.2144 C10.9488,3.2144 6.4808,6.8496 4.8384,11.8952 C2.6112,12.064 0.8464,14.0416 0.8464,16.4544 L0.8464,19.7872 C0.8464,22.3096 2.7752,24.3624 5.1456,24.3624 L7.4472,24.3624 C8.1099417,24.3624 8.6472,23.8251417 8.6472,23.1624 L8.6472,13.0784 C8.6472,12.4156583 8.1099417,11.8784 7.4472,11.8784 L7.3912,11.8784 C8.8944,8.1936 12.2752,5.6144 16.2032,5.6144 C20.132,5.6144 23.5136,8.1936 25.016,11.8784 L24.5528,11.8784 C23.8900583,11.8784 23.3528,12.4156583 23.3528,13.0784 L23.3528,23.1616 C23.3528,23.4664 23.4704,23.7416 23.6576,23.9536 C21.8632,26.0288 19.2224,27.2136 15.9752,27.2136 C15.5333722,27.2136 15.1752,27.5717722 15.1752,28.0136 C15.1752,28.4554278 15.5333722,28.8136 15.9752,28.8136 C20.008,28.8136 23.2856,27.168 25.3688,24.3616 L26.8536,24.3616 C29.224,24.3616 31.1528,22.3096 31.1528,19.7864 L31.1528,16.4536 C31.1536,14.1968 29.6096,12.3216 27.5872,11.9496 Z M6.2472,16.9392 L6.2472,21.9624 L5.1456,21.9624 C4.0984,21.9624 3.2464,20.9864 3.2464,19.7872 L3.2464,16.4544 C3.2464,16.2656 3.2736,16.0856 3.3136,15.9112 C3.3232,15.8696 3.3352,15.8288 3.3472,15.788 C3.3912,15.6368 3.4448,15.4912 3.5152,15.3568 C3.5224,15.3424 3.528,15.3272 3.536,15.3128 C3.7128,14.9872 3.9624,14.7232 4.2592,14.5424 C4.38314906,14.4671336 4.51552642,14.406718 4.6536,14.3624 C4.668,14.3584 4.6808,14.352 4.6952,14.348 C4.8392,14.3048 4.9896,14.2792 5.1456,14.2792 L6.2472,14.2792 L6.2472,16.9392 Z M28.7536,19.7864 C28.7536,20.9856 27.9016,21.9616 26.8544,21.9616 L25.7536,21.9616 L25.7536,14.2784 L26.8552,14.2784 C27.376,14.2784 27.8488,14.5208 28.1928,14.912 C28.5604195,15.3412688 28.7599468,15.8892584 28.7544,16.4544 L28.7544,19.7864 L28.7536,19.7864 Z" id="Shape" fill="#FFFFFF"></path>
                </g>
            </g>
        </g>
    </g>
</svg>