<?xml version="1.0" encoding="UTF-8"?>
<svg width="60px" height="60px" viewBox="0 0 60 60" version="1.1" xmlns="http://www.w3.org/2000/svg" xmlns:xlink="http://www.w3.org/1999/xlink">
    <!-- Generator: Sketch 51.2 (57519) - http://www.bohemiancoding.com/sketch -->
    <title>btn_微博</title>
    <desc>Created with Sketch.</desc>
    <defs></defs>
    <g id="设计稿" stroke="none" stroke-width="1" fill="none" fill-rule="evenodd">
        <g id="ImClass官网--功能概述" transform="translate(-1500.000000, -4660.000000)" fill-rule="nonzero">
            <g id="footer" transform="translate(0.000000, 4606.000000)">
                <g id="btn_微博" transform="translate(1500.000000, 54.000000)">
                    <circle id="Oval" stroke="#FFFFFF" cx="30" cy="30" r="29.5"></circle>
                    <g id="微博" transform="translate(14.000000, 14.000000)">
                        <rect id="Rectangle-path" fill="#000000" opacity="0" x="0" y="0" width="32" height="32"></rect>
                        <path d="M20.8552681,4.81465566 C20.4782437,4.88171419 19.6362866,5.20514291 19.6292194,5.90198244 C19.6222801,6.59831031 20.3680464,7.05281816 20.7445592,7.08777047 C22.134241,7.08777047 28.780295,6.727119 27.564895,13.1395394 C27.3964652,13.8429025 27.2676246,14.9197084 28.1020988,15.1463068 C28.8601448,15.3368976 29.3279876,14.5449545 29.5384369,13.9420353 C29.6391687,13.2403351 32.7128607,4.05018197 20.8552681,4.81465566 Z M22.584112,15.547187 C22.584112,15.547187 21.1908166,15.8484547 21.8499217,14.8119415 C22.8846762,12.7847719 21.2001223,9.45819534 16.8334509,11.6688885 C15.3289669,12.4707129 15.3289669,11.9025541 15.379077,10.899778 C15.5143133,5.42413047 5.3650025,9.3282035 2.48948013,16.4474087 C0.868435188,20.7675836 3.46491478,24.4997092 7.48139159,26.1289086 C17.2850487,29.6284559 24.4230891,23.8371504 25.6396723,20.0939283 C27.262476,14.4693258 22.584112,15.547187 22.584112,15.547187 Z M13.182934,24.8340425 C8.54243222,25.4715303 4.42928494,23.4320811 3.99396409,20.2815771 C3.56107359,17.1291864 6.97098569,14.0554944 11.6114874,13.4181345 C16.2519892,12.7801031 20.3645928,14.8176656 20.7999137,17.9700563 C21.2333478,21.1217754 17.8223804,24.1931011 13.182934,24.8340425 Z M24.7965,13.8965302 C25.2632875,14.0130911 25.4450522,13.6301827 25.4962815,13.2806277 C25.5441851,12.9309448 26.3499747,8.19137425 21.174028,8.73791572 C20.7824535,8.78111844 20.5184085,9.01532762 20.5638817,9.35912653 C20.6069245,9.70346906 20.8971278,9.89629834 21.118002,9.87004412 C21.3388763,9.8444295 24.7959883,9.23840837 24.5127244,12.8814424 C24.5645932,13.2129936 24.3315992,13.7799372 24.7965,13.8965302 Z M11.6708392,15.6246705 C9.25209506,16.088516 7.58864687,18.0212536 7.95684525,19.942415 C8.32507559,21.8635445 10.5859107,23.0434485 13.005838,22.5790594 C15.4250938,22.1158854 17.086975,20.1824762 16.7198319,18.262498 C16.3498748,16.3420401 14.0907665,15.1609529 11.6708392,15.6246705 Z M11.3837058,20.8076844 C10.5480164,20.8076844 9.87039587,20.2338334 9.87039587,19.5205571 C9.87039587,18.8102227 10.5480164,18.2334297 11.3837058,18.2334297 C12.2192353,18.2334297 12.8963763,18.8102227 12.8963763,19.5205571 C12.8963762,20.2326183 12.2185638,20.8076844 11.3837058,20.8076844 Z M13.8618017,19.0707181 C13.550109,19.0707181 13.2331079,18.6948769 13.2331079,18.2322785 C13.2331079,17.7701598 13.550109,17.3955338 13.8618017,17.3955338 C14.1736223,17.3955338 14.4916786,17.7701598 14.4916786,18.2322785 C14.4916787,18.6954205 14.1736223,19.0707181 13.8618017,19.0707181 Z" id="Shape" fill="#FFFFFF"></path>
                    </g>
                </g>
            </g>
        </g>
    </g>
</svg>