<?xml version="1.0" encoding="UTF-8"?>
<svg width="48px" height="48px" viewBox="0 0 48 48" version="1.1" xmlns="http://www.w3.org/2000/svg" xmlns:xlink="http://www.w3.org/1999/xlink">
    <!-- Generator: Sketch 51.2 (57519) - http://www.bohemiancoding.com/sketch -->
    <title>btn_预览</title>
    <desc>Created with Sketch.</desc>
    <defs></defs>
    <g id="设计稿" stroke="none" stroke-width="1" fill="none" fill-rule="evenodd">
        <g id="技术支持-移动端插件hover效果" transform="translate(-1101.000000, -1714.000000)" fill-rule="nonzero">
            <g id="btn_预览" transform="translate(1101.000000, 1714.000000)">
                <circle id="Oval-4-Copy" stroke="#D95043" cx="24" cy="24" r="23.5"></circle>
                <rect id="Rectangle-path" fill="#000000" opacity="0" x="12" y="12" width="24" height="24"></rect>
                <path d="M23.9550316,18.2300946 C27.9042821,18.2300946 31.3035228,20.5465677 32.8942911,23.889634 L34.4444464,23.889634 C32.764348,19.743328 28.70436,16.8159018 23.9550269,16.8159018 C19.2063637,16.8159018 15.1463758,19.7434451 13.4663851,23.889634 L15.0165638,23.889634 C16.6073134,20.5465677 20.0065634,18.2300946 23.9550316,18.2300946 Z M23.9550316,29.5493139 C20.006568,29.5493139 16.6073134,27.2329672 15.0165685,23.8896339 L13.4663851,23.8896339 C15.1463804,28.0367972 19.2063637,30.9643264 23.9550269,30.9643264 C28.7043553,30.9643264 32.7643433,28.0367972 34.4444464,23.8896339 L32.8942911,23.889634 C31.3035228,27.2329672 27.9042821,29.5493139 23.9550316,29.5493139 Z M20.1825066,23.8901164 C20.1825066,25.9738724 21.8714724,27.6629413 23.9553782,27.6629413 C26.0391248,27.6629413 27.7281937,25.9738724 27.7281937,23.8901164 C27.7281937,21.8062434 26.0391248,20.1171464 23.9553782,20.1171464 C21.8714724,20.1171464 20.1825066,21.8062387 20.1825066,23.8901164 Z M26.3139073,23.8901164 C26.3139073,25.1923445 25.2576906,26.2485378 23.9553783,26.2485378 C22.6530331,26.2485378 21.5976362,25.1923445 21.5976362,23.8901164 C21.5976362,22.5877947 22.6530331,21.531578 23.9553783,21.531578 C25.2576906,21.5315734 26.3139073,22.5877947 26.3139073,23.8901164 Z" id="Shape" fill="#D95043"></path>
            </g>
        </g>
    </g>
</svg>