<?xml version="1.0" encoding="UTF-8"?>
<svg width="48px" height="48px" viewBox="0 0 48 48" version="1.1" xmlns="http://www.w3.org/2000/svg" xmlns:xlink="http://www.w3.org/1999/xlink">
    <!-- Generator: Sketch 51.2 (57519) - http://www.bohemiancoding.com/sketch -->
    <title>btn_返回顶部</title>
    <desc>Created with Sketch.</desc>
    <defs></defs>
    <g id="设计稿" stroke="none" stroke-width="1" fill="none" fill-rule="evenodd">
        <g id="ImClass官网--功能概述" transform="translate(-1580.000000, -1799.000000)" fill-rule="nonzero">
            <g id="btn_返回顶部" transform="translate(1580.000000, 1799.000000)">
                <circle id="Oval-6-Copy" stroke="#979797" cx="24" cy="24" r="23.5"></circle>
                <g id="上" transform="translate(12.000000, 10.000000)">
                    <rect id="Rectangle-path" fill="#000000" opacity="0" x="0" y="0" width="24" height="24"></rect>
                    <path d="M1.2046875,17.9953125 C0.74296875,17.5335937 0.74296875,16.7835937 1.2046875,16.321875 L11.240625,6.2859375 C11.7023437,5.82421875 12.4523437,5.82421875 12.9140625,6.2859375 C13.3757812,6.74765625 13.3757812,7.49765625 12.9140625,7.959375 L2.878125,17.9953125 C2.41640625,18.4570312 1.66640625,18.4570312 1.2046875,17.9953125 Z M11.240625,6.2859375 C11.7023437,5.82421875 12.4523437,5.82421875 12.9140625,6.2859375 L22.95,16.321875 C23.4117187,16.7835937 23.4117187,17.5335937 22.95,17.9953125 C22.4882812,18.4570312 21.7382812,18.4570312 21.2765625,17.9953125 L11.240625,7.959375 C10.7789062,7.4953125 10.7789062,6.74765625 11.240625,6.2859375 Z" id="Shape" fill="#999999"></path>
                </g>
            </g>
        </g>
    </g>
</svg>