<?xml version="1.0" encoding="UTF-8"?>
<svg width="16px" height="16px" viewBox="0 0 16 16" version="1.1" xmlns="http://www.w3.org/2000/svg" xmlns:xlink="http://www.w3.org/1999/xlink">
    <!-- Generator: Sketch 51.2 (57519) - http://www.bohemiancoding.com/sketch -->
    <title>ico_服务领域</title>
    <desc>Created with Sketch.</desc>
    <defs></defs>
    <g id="设计稿" stroke="none" stroke-width="1" fill="none" fill-rule="evenodd">
        <g id="ImClass官网--功能概述" transform="translate(-1140.000000, -1266.000000)" fill-rule="nonzero">
            <g id="申请试用" transform="translate(0.000000, 900.000000)">
                <g id="list_申请试用全部功能" transform="translate(1010.000000, 67.000000)">
                    <g id="服务领域" transform="translate(115.000000, 287.000000)">
                        <g id="ico_服务领域" transform="translate(15.000000, 12.000000)">
                            <rect id="Rectangle-29" x="0" y="0" width="16" height="16"></rect>
                            <g id="领域" transform="translate(1.000000, 1.000000)" fill="#333333">
                                <path d="M11.8119461,8.68727833 C11.736276,8.72595595 11.5969411,8.78468864 11.5965773,8.78504677 L11.5489196,8.80510183 L11.5420075,8.85452324 C11.5420075,8.85452324 11.5209071,9.00923374 11.506719,9.09769089 C11.3302766,10.2060913 10.9468328,11.0673847 10.2628913,11.8900004 C9.30100761,13.0478222 8.05681614,13.7382894 6.56451397,13.9424213 C3.62356546,14.344597 0.805580919,12.4042696 0.152562287,9.52421912 C-0.373854403,7.20284548 0.593486285,4.83169231 2.61693452,3.48370551 L2.74935724,3.39560648 C2.75408662,3.35513823 2.76572819,3.25271414 2.77154897,3.21797592 C3.0673173,1.53478306 4.35443702,0.293159738 6.05119404,0.0550058399 C6.25168042,0.0264351928 6.45397899,0.0119541534 6.65655503,0.01167258 C7.74467687,0.01167258 8.70474158,0.449660848 9.51674023,1.31883299 C9.5527563,1.35679436 9.6065985,1.41875019 9.63897658,1.45921844 L9.67026327,1.49861232 L9.72155889,1.49324042 C10.0671676,1.45850219 10.1904954,1.46602284 10.3003626,1.47318536 C10.344746,1.47569225 10.3927675,1.47676663 10.4324215,1.47855726 C12.1859311,1.6078408 13.588375,2.83800409 13.9212508,4.5398195 C14.1708167,5.81009292 13.7753675,7.06066939 12.8371308,7.97066792 C12.5377245,8.26146635 12.2594185,8.45592885 11.8119461,8.68727833 Z M0.90754936,7.88956831 C0.827853522,8.79109764 1.01981654,9.68853376 1.47893385,10.5566352 C2.31574012,12.1403661 4.04791178,13.1408147 5.81057576,13.1408146 C6.09505525,13.1408146 6.38022773,13.1145499 6.66297468,13.060656 C8.87817241,12.637691 10.5285692,10.809732 10.6758332,8.61338415 C10.6973165,8.16449554 10.6900399,8.10207409 10.6820703,8.03590055 C10.6766718,7.99119456 10.6743564,7.94617987 10.6751402,7.90116574 C10.5032744,5.45683763 8.57013068,3.56372836 6.07842306,3.4 L5.51708717,3.40034111 C5.46199309,3.40613982 5.40689903,3.41125633 5.35145845,3.41603174 C5.2322612,3.42660586 5.10925241,3.43752108 4.98797613,3.45901043 C2.74540463,3.85912163 1.10574944,5.63932655 0.90754936,7.88956831 Z M6.16178884,0.650211489 C4.95361344,0.814591383 4.03174759,1.54731747 3.56644907,2.7123018 L3.5562627,2.73701252 C3.53962207,2.77298176 3.52528463,2.809941 3.51333446,2.84767349 L3.4776822,2.99271457 L3.62683966,2.95367883 C3.64939518,2.94759069 3.68541124,2.93326564 3.71560653,2.92073123 L3.74725702,2.90783868 C4.29550163,2.7026324 5.10822787,2.5547263 5.52259456,2.54541502 C6.60162144,2.5217787 7.23899672,2.72089683 7.2455451,2.72304559 L7.30520807,2.7423844 L7.34522593,2.69546987 C7.34522593,2.69546987 7.39615773,2.63637906 7.41325629,2.61918901 C7.78776635,2.23835277 8.23925991,1.93908163 8.73857486,1.74070559 L8.98595797,1.64329527 L8.79205327,1.47103661 C8.05463335,0.811368254 7.12148974,0.519853588 6.16178884,0.650211489 Z M10.1650295,2.08844607 C9.43817738,2.08643073 8.73287183,2.33131694 8.16813853,2.78177827 C8.13357766,2.80863774 8.06954909,2.86307291 8.0695491,2.86307291 L7.95204212,2.96227385 L8.09938059,3.01276964 C8.11029454,3.01670903 9.22788409,3.41064778 10.2457928,4.57957151 C11.3884844,5.89210381 11.5485558,7.37474603 11.5641992,7.95132912 C11.5649268,7.97639795 11.566382,7.99143925 11.5671096,7.99537864 L11.5860271,8.10281647 L11.6908011,8.06306447 C11.732638,8.04730692 11.7719282,8.0182987 11.8068529,7.99251363 C11.821041,7.98212797 11.8345016,7.97210043 11.8457794,7.96457979 C13.0379476,7.2207518 13.5825542,5.89461069 13.2671408,4.50400689 C12.9499083,3.10588243 11.6453263,2.0902367 10.1650295,2.08844607 Z M6.42445148,11.4792297 C7.16732838,11.1862825 8.3431257,10.2787909 8.63270945,9.17970178 C8.74257664,8.76212671 8.84189369,8.30945526 8.74294045,7.76796853 C8.71601935,7.62077869 8.73930246,7.49400204 8.80806041,7.41020052 C8.85561597,7.35184194 8.92640419,7.31647772 9.0023289,7.31314833 C9.01178767,7.31243208 9.02124644,7.31243208 9.0303414,7.31243208 C9.23697905,7.31243208 9.35157562,7.43813435 9.37158457,7.6934783 C9.37376735,7.70601271 9.57131004,8.95085918 8.98377518,10.0044663 C8.34785509,11.145098 7.3801506,11.7087886 6.70785065,12.0332509 C6.58670569,12.0919836 6.47465569,12.1070249 6.38115943,12.0773004 C6.30170152,12.0499585 6.23678688,11.9922526 6.20107909,11.917218 C6.1638405,11.848206 6.15879822,11.7666976 6.18725475,11.6937473 C6.22363461,11.6017089 6.3076721,11.525428 6.42445148,11.4792297 Z M8.53994079,6.53637274 C8.51010931,6.27028501 8.29946987,6.00598792 8.12812068,5.83122237 C8.05390575,5.756374 8.01570689,5.6657681 8.01898109,5.57659468 C8.02266592,5.49588667 8.06037446,5.42034761 8.1230275,5.36816527 C8.18028004,5.31593049 8.25524653,5.28656468 8.33330314,5.28579625 C8.42570801,5.28579625 8.52029566,5.32805514 8.59996757,5.41114041 C8.93284336,5.75780652 9.13766201,6.14959652 9.17658847,6.51345266 C9.18487945,6.59324288 9.15949163,6.67288045 9.10637532,6.73370024 C9.04948711,6.79784508 8.96865211,6.83659894 8.88227534,6.84113809 C8.69855701,6.85689564 8.56104111,6.73226774 8.53994079,6.53637274 Z" id="Shape"></path>
                            </g>
                        </g>
                    </g>
                </g>
            </g>
        </g>
    </g>
</svg>