<?xml version="1.0" encoding="UTF-8"?>
<svg width="16px" height="16px" viewBox="0 0 16 16" version="1.1" xmlns="http://www.w3.org/2000/svg" xmlns:xlink="http://www.w3.org/1999/xlink">
    <!-- Generator: Sketch 51.2 (57519) - http://www.bohemiancoding.com/sketch -->
    <title>ico_联系人</title>
    <desc>Created with Sketch.</desc>
    <defs></defs>
    <g id="设计稿" stroke="none" stroke-width="1" fill="none" fill-rule="evenodd">
        <g id="ImClass官网--功能概述" transform="translate(-1140.000000, -1075.000000)" fill-rule="nonzero">
            <g id="申请试用" transform="translate(0.000000, 900.000000)">
                <g id="list_申请试用全部功能" transform="translate(1010.000000, 67.000000)">
                    <g id="联系人名称" transform="translate(115.000000, 96.000000)">
                        <g id="ico_联系人" transform="translate(15.000000, 12.000000)">
                            <rect id="Rectangle-path" fill="#000000" opacity="0" x="0" y="0" width="16" height="16"></rect>
                            <path d="M9.69912798,8.41998725 C10.9918835,7.78680055 11.8914496,6.47022119 11.8914496,4.93660498 C11.8914496,2.79023622 10.1459131,1.04471569 8.00040772,1.04471569 C5.85403895,1.04471569 4.10851842,2.79023622 4.10851842,4.93660498 C4.10851842,6.47022119 5.00808452,7.78680055 6.30170344,8.41998725 C3.67703497,9.16295552 1.74682366,11.5740088 1.74682366,14.4327266 C1.74682366,14.721235 1.98170441,14.9552843 2.2702128,14.9552843 C2.55872119,14.9552843 2.79361792,14.721235 2.79361792,14.4327266 C2.79361792,11.5612495 5.12893058,9.22424197 8.00040772,9.22424197 C10.8719008,9.22424197 13.2071975,11.5612495 13.2071975,14.4327266 C13.2071975,14.721235 13.4412308,14.9552843 13.7297552,14.9552843 C14.019127,14.9552843 14.2531444,14.721235 14.2531444,14.4327266 C14.2531444,11.5740088 12.322949,9.16295552 9.69912798,8.41998725 Z M5.15448127,4.93660498 C5.15448127,3.367253 6.43107173,2.08981511 8.00042372,2.08981511 C9.56892827,2.08981511 10.8455188,3.367253 10.8455188,4.93660498 C10.8455188,6.50510953 9.5689123,7.78170002 8.00042372,7.78170002 C6.43105575,7.7817 5.15448127,6.50510953 5.15448127,4.93660498 Z" id="Shape" fill="#333333"></path>
                        </g>
                    </g>
                </g>
            </g>
        </g>
    </g>
</svg>