<?xml version="1.0" encoding="UTF-8"?>
<svg width="16px" height="16px" viewBox="0 0 16 16" version="1.1" xmlns="http://www.w3.org/2000/svg" xmlns:xlink="http://www.w3.org/1999/xlink">
    <!-- Generator: Sketch 51.2 (57519) - http://www.bohemiancoding.com/sketch -->
    <title>ico_地址</title>
    <desc>Created with Sketch.</desc>
    <defs></defs>
    <g id="设计稿" stroke="none" stroke-width="1" fill="none" fill-rule="evenodd">
        <g id="ImClass官网--功能概述" transform="translate(-1140.000000, -1330.000000)" fill-rule="nonzero">
            <g id="申请试用" transform="translate(0.000000, 900.000000)">
                <g id="list_申请试用全部功能" transform="translate(1010.000000, 67.000000)">
                    <g id="所在地域" transform="translate(115.000000, 351.000000)">
                        <g id="ico_地址" transform="translate(15.000000, 12.000000)">
                            <rect id="Rectangle-path" fill="#000000" opacity="0" x="0" y="0" width="16" height="16"></rect>
                            <path d="M8,0.363636359 C11.2134545,0.363636359 13.8181818,2.97127272 13.8181818,6.18836364 C13.8181818,8.50763638 10.7941818,13.1305455 9.10618181,15.1236364 C8.8312257,15.4494643 8.42633804,15.6371341 8,15.6363636 C7.57366196,15.6371341 7.1687743,15.4494643 6.89381819,15.1236364 C5.20581819,13.1309091 2.18181819,8.50763636 2.18181819,6.18836364 C2.18181819,2.97127273 4.78654545,0.363636359 8,0.363636359 Z M8.27381819,14.4185455 C10.0894545,12.2741818 12.7272727,8.00181819 12.7272727,6.18836364 C12.7272727,3.57818181 10.6065455,1.45454545 8,1.45454545 C5.39345455,1.45454545 3.27272727,3.57818181 3.27272727,6.18836364 C3.27272727,8.00181819 5.91054545,12.2741818 7.72618181,14.4185455 C7.79395646,14.4996171 7.89433162,14.5462722 8,14.5458182 C8.10566838,14.5462722 8.20604354,14.4996171 8.27381819,14.4185455 Z M8,3.28981819 C8.90945082,3.28974693 9.74984851,3.77489224 10.2045945,4.56248788 C10.6593405,5.35008352 10.6593405,6.32046193 10.2045945,7.10805757 C9.74984851,7.89565321 8.90945082,8.38079852 8,8.38072727 C6.59426216,8.38061713 5.45474488,7.24101057 5.45474488,5.83527273 C5.45474488,4.42953488 6.59426216,3.28992832 8,3.28981819 Z M8,7.28981819 C8.80218181,7.28981819 9.45454545,6.63745455 9.45454545,5.83527273 C9.45454545,5.03309092 8.80218181,4.38072728 8,4.38072727 C7.19781819,4.38072725 6.54545455,5.03309091 6.54545455,5.83527273 C6.54545455,6.63745456 7.19781819,7.28981819 8,7.28981819 Z" id="Shape" fill="#333333"></path>
                        </g>
                    </g>
                </g>
            </g>
        </g>
    </g>
</svg>