<?xml version="1.0" encoding="UTF-8"?>
<svg width="72px" height="72px" viewBox="0 0 72 72" version="1.1" xmlns="http://www.w3.org/2000/svg" xmlns:xlink="http://www.w3.org/1999/xlink">
    <!-- Generator: Sketch 51.2 (57519) - http://www.bohemiancoding.com/sketch -->
    <title>ico_apple</title>
    <desc>Created with Sketch.</desc>
    <defs></defs>
    <g id="设计稿" stroke="none" stroke-width="1" fill="none" fill-rule="evenodd">
        <g id="技术支持" transform="translate(-1177.000000, -368.000000)" fill-rule="nonzero">
            <g id="Mac版本" transform="translate(970.000000, 328.000000)">
                <g id="Group" transform="translate(117.000000, 40.000000)">
                    <g id="Group-3">
                        <g id="ico_apple" transform="translate(90.000000, 0.000000)">
                            <rect id="Rectangle-path" fill="#000000" opacity="0" x="0" y="0" width="72" height="72"></rect>
                            <path d="M60.2226562,47.2148438 C59.3085938,50.1445312 57.8671875,53.0742188 55.8984375,56.0039062 C52.875,60.5976562 49.8632812,62.8945312 46.8632812,62.8945312 C45.7148437,62.8945312 44.0742188,62.5195312 41.9414062,61.7695312 C39.9257812,61.0195313 38.15625,60.6445312 36.6328125,60.6445312 C35.203125,60.6445312 33.5390625,61.03125 31.640625,61.8046875 C29.7421875,62.6015625 28.1953125,63 27,63 C23.4375,63 19.9101562,59.9648438 16.4179688,53.8945312 C12.9726562,47.7773438 11.25,41.8828125 11.25,36.2109375 C11.25,30.8671875 12.5742188,26.484375 15.2226562,23.0625 C17.8476562,19.6875 21.1757812,18 25.2070312,18 C26.8945312,18 28.96875,18.3515625 31.4296875,19.0546875 C33.8671875,19.7578125 35.484375,20.109375 36.28125,20.109375 C37.3359375,20.109375 39.0117188,19.7109375 41.3085938,18.9140625 C43.6992188,18.1171875 45.7265625,17.71875 47.390625,17.71875 C50.1796875,17.71875 52.6757812,18.4804688 54.8789062,20.0039062 C56.0976562,20.8476562 57.3164062,22.0195312 58.5351562,23.5195312 C56.6835937,25.0898438 55.3476562,26.4726562 54.5273438,27.6679688 C53.0039063,29.8710938 52.2421875,32.296875 52.2421875,34.9453125 C52.2421875,37.8515625 53.0507812,40.4648438 54.6679688,42.7851562 C56.2851562,45.1054688 58.1367188,46.5820312 60.2226562,47.2148438 Z M47.0039062,5.9765625 C47.0039062,7.40625 46.6640625,9 45.984375,10.7578125 C45.28125,12.515625 44.1914062,14.1328125 42.7148438,15.609375 C41.4492188,16.875 40.1835938,17.71875 38.9179688,18.140625 C38.0507812,18.3984375 36.8320312,18.5976562 35.2617188,18.7382812 C35.3320312,15.2460938 36.2460938,12.234375 38.0039062,9.703125 C39.7382812,7.1953125 42.6679688,5.4609375 46.7929688,4.5 C46.8164062,4.5703125 46.8457031,4.69921875 46.8808594,4.88671875 C46.9160156,5.07421875 46.9453125,5.203125 46.96875,5.2734375 C46.96875,5.3671875 47.0273438,5.484375 47.1445312,5.625 C47.2617188,5.765625 47.3203125,5.8828125 47.3203125,5.9765625 L47.0039062,5.9765625 Z" id="Shape" fill="#D95043"></path>
                        </g>
                    </g>
                </g>
            </g>
        </g>
    </g>
</svg>