<?xml version="1.0" encoding="UTF-8"?>
<svg width="64px" height="64px" viewBox="0 0 64 64" version="1.1" xmlns="http://www.w3.org/2000/svg" xmlns:xlink="http://www.w3.org/1999/xlink">
    <!-- Generator: Sketch 51.2 (57519) - http://www.bohemiancoding.com/sketch -->
    <title>ico_share</title>
    <desc>Created with Sketch.</desc>
    <defs></defs>
    <g id="设计稿" stroke="none" stroke-width="1" fill="none" fill-rule="evenodd">
        <g id="技术支持" transform="translate(-1081.000000, -1101.000000)" fill-rule="nonzero">
            <g id="Group-6" transform="translate(970.000000, 1009.000000)">
                <g id="屏幕共享" transform="translate(78.000000, 92.000000)">
                    <g id="ico_share" transform="translate(33.000000, 0.000000)">
                        <rect id="Rectangle-path" fill="#000000" opacity="0" x="0" y="0" width="64" height="64"></rect>
                        <path d="M55.6,7.968 C58.02,7.968 59.984,9.936 59.984,12.348 L59.984,41.564 C59.984,43.984 58.016,45.948 55.6,45.948 L34.168,45.948 L34.168,52.164 L41.436,52.164 C42.604,52.164 43.548,53.032 43.548,54.1 C43.548,55.168 42.604,56.036 41.436,56.036 L23.024,56.036 C21.856,56.036 20.912,55.168 20.912,54.1 C20.912,53.032 21.856,52.164 23.024,52.164 L30.292,52.164 L30.292,45.948 L8.856,45.948 C6.444,45.948 4.476,43.98 4.476,41.564 L4.476,12.352 C4.476,9.936 6.44,7.968 8.856,7.968 L55.6,7.968 Z M35.436,19.624 C34.612,18.96 33.94,19.444 33.94,20.616 L33.94,23.74 L33.804,23.74 C28.988,23.74 20.796,29.304 20.728,34.252 C20.728,34.648 21.048,34.76 21.356,34.252 C22.912,31.476 29.452,30.036 32.784,30.036 L33.94,30.036 L33.94,33.332 C33.94,34.316 34.668,34.988 35.496,34.324 L43.112,28.212 C43.936,27.552 43.936,26.468 43.112,25.804 L35.436,19.624 Z" id="Shape" fill="#D95043"></path>
                    </g>
                </g>
            </g>
        </g>
    </g>
</svg>