<?xml version="1.0" encoding="UTF-8"?>
<svg width="24px" height="24px" viewBox="0 0 24 24" version="1.1" xmlns="http://www.w3.org/2000/svg" xmlns:xlink="http://www.w3.org/1999/xlink">
    <!-- Generator: Sketch 51.2 (57519) - http://www.bohemiancoding.com/sketch -->
    <title>ico_多种视频授课方式</title>
    <desc>Created with Sketch.</desc>
    <defs></defs>
    <g id="设计稿" stroke="none" stroke-width="1" fill="none" fill-rule="evenodd">
        <g id="ImClass官网--功能概述" transform="translate(-1026.000000, -1848.000000)">
            <g id="实时视频授课" transform="translate(360.000000, 1700.000000)">
                <g id="多种视频授课方式" transform="translate(650.000000, 121.000000)">
                    <g id="ico_多种视频授课方式" transform="translate(16.000000, 27.000000)">
                        <rect id="Rectangle-7" fill-rule="nonzero" x="0" y="0" width="24" height="24"></rect>
                        <g id="Group-6" transform="translate(2.000000, 2.000000)" fill="#333333">
                            <path d="M2,7 L7,7 L7,2 L2,2 L2,7 Z M8,9 L1,9 C0.4,9 0,8.6 0,8 L0,1 C0,0.4 0.4,0 1,0 L8,0 C8.6,0 9,0.4 9,1 L9,8 C9,8.6 8.6,9 8,9 Z" id="Fill-1"></path>
                            <path d="M19,0 L12,0 C11.4,0 11,0.4 11,1 L11,8 C11,8.6 11.4,9 12,9 L19,9 C19.6,9 20,8.6 20,8 L20,1 C20,0.4 19.6,0 19,0" id="Fill-3"></path>
                            <path d="M8,11 L1,11 C0.4,11 0,11.4 0,12 L0,19 C0,19.6 0.4,20 1,20 L8,20 C8.6,20 9,19.6 9,19 L9,12 C9,11.4 8.6,11 8,11" id="Fill-4"></path>
                            <path d="M13,18 L18,18 L18,13 L13,13 L13,18 Z M19,20 L12,20 C11.4,20 11,19.6 11,19 L11,12 C11,11.4 11.4,11 12,11 L19,11 C19.6,11 20,11.4 20,12 L20,19 C20,19.6 19.6,20 19,20 Z" id="Fill-5"></path>
                        </g>
                    </g>
                </g>
            </g>
        </g>
    </g>
</svg>