<?xml version="1.0" encoding="UTF-8"?>
<svg width="24px" height="24px" viewBox="0 0 24 24" version="1.1" xmlns="http://www.w3.org/2000/svg" xmlns:xlink="http://www.w3.org/1999/xlink">
    <!-- Generator: Sketch 51.2 (57519) - http://www.bohemiancoding.com/sketch -->
    <title>ico_智能通知</title>
    <desc>Created with Sketch.</desc>
    <defs></defs>
    <g id="设计稿" stroke="none" stroke-width="1" fill="none" fill-rule="evenodd">
        <g id="ImClass官网--功能概述" transform="translate(-1026.000000, -3052.000000)" fill-rule="nonzero">
            <g id="智能教务管理" transform="translate(360.000000, 2832.000000)">
                <g id="智能通知系统" transform="translate(650.000000, 195.000000)">
                    <g id="ico_智能通知" transform="translate(16.000000, 25.000000)">
                        <rect id="Rectangle-7-Copy-2" x="0" y="0" width="24" height="24"></rect>
                        <g id="通知" transform="translate(3.000000, 2.000000)" fill="#333333">
                            <path d="M16.9101237,13.9332158 C15.6712964,12.8918308 14.7856082,10.1249676 14.7856082,6.8750107 C14.7856082,4.41483519 13.1587883,2.32932239 10.8959813,1.56564311 C10.7438511,0.678150506 9.95559361,0 8.99998828,0 C8.04354142,0 7.2557514,0.678127656 7.10315378,1.56564311 C4.84039347,2.32932241 3.21401772,4.41483519 3.21401772,6.8750107 C3.21401772,10.1242133 2.32912438,12.8910079 1.08985293,13.9328272 C0.397927353,14.5148207 0,15.3601889 0,16.2500357 C0,17.2855466 0.862896658,18.1250179 1.92841531,18.1250179 L7.07117561,18.1250179 C7.07117561,19.1605745 7.93411903,20 8.99996494,20 C10.0650161,20 10.9283335,19.1605516 10.9283335,18.1250179 L16.0711172,18.1250179 C17.1362151,18.1250179 18,17.2855238 18,16.2500357 C18.0000233,15.3605317 17.6020726,14.5147978 16.9101237,13.9332158 Z M1.92843865,16.2500129 C1.92843865,15.9047206 2.08299988,15.5769136 2.35070026,15.3507492 C4.07251968,13.9035253 5.14238624,10.6554426 5.14238624,6.87498785 C5.14238624,4.8069831 6.87304175,3.12497786 8.99996489,3.12497786 C11.126888,3.12497786 12.8567488,4.8069831 12.8567488,6.87498785 C12.8567488,10.6558312 13.9266153,13.9038681 15.6484815,15.3515492 C15.9173507,15.5773479 16.0711171,15.9046978 16.0711171,16.2500129 L1.92843865,16.2500129 Z" id="Shape"></path>
                        </g>
                    </g>
                </g>
            </g>
        </g>
    </g>
</svg>