<?xml version="1.0" encoding="UTF-8"?>
<svg width="120px" height="121px" viewBox="0 0 120 121" version="1.1" xmlns="http://www.w3.org/2000/svg" xmlns:xlink="http://www.w3.org/1999/xlink">
    <!-- Generator: Sketch 51.2 (57519) - http://www.bohemiancoding.com/sketch -->
    <title>pic_MBAico</title>
    <desc>Created with Sketch.</desc>
    <defs></defs>
    <g id="设计稿" stroke="none" stroke-width="1" fill="none" fill-rule="evenodd">
        <g id="ImClass官网--功能概述" transform="translate(-900.000000, -3442.000000)" fill-rule="nonzero">
            <g id="ImClass满足了教学市场的不同场景" transform="translate(0.000000, 3248.000000)">
                <g id="MBA" transform="translate(825.000000, 194.000000)">
                    <g id="pic_MBAico" transform="translate(75.000000, 0.000000)">
                        <circle id="Oval-2-Copy" fill="#FBC264" cx="60" cy="60" r="60"></circle>
                        <g id="答疑" transform="translate(27.567568, 28.378378)" fill="#FFFFFF">
                            <path d="M32.9997765,64.0109879 C25.8251203,64.0109879 19.0615121,61.2198666 13.979464,56.1214183 C8.8600479,51.02297 6.05744783,44.3242788 6.05744783,37.2162231 C6.05744783,30.2942422 8.74794389,23.8188407 13.605784,18.9808971 C13.979464,18.6087476 14.42788,18.1993831 14.913664,17.7528037 L2.39538374,14.6267478 C0.900663702,14.2545983 -0.108272323,12.8776451 0.0785676816,11.4634769 L0.0785676816,11.3518321 C0.228039685,10.2725985 1.05013571,9.37943968 2.17117573,9.00729017 L28.7771924,0.559496262 C29.9729684,0.187346751 31.2061124,0.0012719954 32.4392565,0.0012719954 C33.7097685,0.0012719954 34.9429125,0.187346751 36.1013206,0.559496262 L62.7447052,9.00729017 C63.8657452,9.34222473 64.6878413,10.2725985 64.8373133,11.3518321 L64.8373133,11.4634769 C64.9867853,12.8404301 64.0152172,14.2173833 62.5578652,14.7011777 L49.3295929,17.9760934 C49.8153769,18.3854578 50.4506329,18.9436821 50.9364169,19.3902615 C59.9794731,28.4334947 61.4741932,42.4263163 54.486377,52.7348577 L55.943729,58.2798855 C56.1305691,59.0241845 55.981097,59.8056984 55.495313,60.4011377 C55.009529,61.0337918 54.299537,61.3687264 53.552177,61.3687264 C53.365337,61.3687264 53.178497,61.3315114 52.991657,61.2942965 L47.0501448,59.9545583 C42.8649287,62.5968198 38.0070886,64.0109879 32.9997765,64.0109879 Z M20.3693922,19.055327 C19.0615121,19.8740559 17.8283681,20.8788596 16.7073281,21.9953081 C12.596848,26.0889527 10.3173999,31.5223356 10.3173999,37.290653 C10.3173999,43.1334003 12.596848,48.6039982 16.7446961,52.7348577 C20.8925442,56.8657173 26.4230083,59.1358293 32.2524165,59.1358293 C36.2134246,59.1358293 40.0996967,58.0565957 43.4628167,56.0469884 C43.9486008,55.7864837 44.3970168,55.6748389 44.8828008,55.6748389 C44.9949048,55.6748389 45.1070088,55.6748389 45.2564808,55.7120538 L50.4132649,56.4935678 L50.5253689,56.4935678 C50.7495769,56.4935678 50.9737849,56.3819229 51.1232569,56.1958482 C51.2727289,56.0097734 51.3474649,55.7864837 51.3100969,55.563194 L50.3758969,50.7624653 C50.2637929,50.1670261 50.3758969,49.5343719 50.7122089,49.0133626 C56.093201,40.5283538 54.822689,29.1777937 47.6480328,22.069738 C46.7512008,21.1393642 45.4059528,20.0973456 44.0233368,19.1669718 L33.6724005,21.6975885 C33.2987205,21.7720184 32.8876725,21.8092334 32.5139925,21.8092334 C32.1403125,21.8092334 31.7292645,21.7720184 31.3555844,21.6975885 L20.3693922,19.055327 Z M34.6066005,54.4467455 C33.0371445,54.4467455 31.7666325,53.1814371 31.7666325,51.6184092 C31.7666325,50.0553813 33.0371445,48.7900729 34.6066005,48.7900729 C36.2134246,48.7900729 37.4465686,50.0553813 37.4465686,51.6184092 C37.4465686,53.1814371 36.1760566,54.4467455 34.6066005,54.4467455 Z M34.6813365,47.4503347 C33.9713445,47.4503347 33.3360885,47.18983 32.8503045,46.6688207 C32.3645205,46.1850263 32.1403125,45.5151572 32.1403125,44.8452881 C32.2150485,43.6916246 32.3271525,43.3194751 32.3645205,43.0961854 L32.3645205,43.0217555 C32.5887285,42.3518864 32.9624085,41.4959425 34.0834485,40.5283538 C35.5034325,39.3002604 36.7365766,38.1093819 37.4839366,37.2534381 C38.1191926,36.546354 38.4181366,35.6531952 38.4181366,34.6483915 C38.4181366,33.4575131 38.0070886,32.5643542 37.1849926,31.9317001 C36.3255286,31.2990459 35.0550165,30.9641113 33.4481925,30.9641113 C31.9534725,30.9641113 30.7576964,31.2618309 29.8608644,31.8200552 C28.9266644,32.4154944 28.5529844,33.494728 28.4035124,34.276242 C28.1793044,35.3554756 27.2824723,36.0997746 26.1614323,36.0997746 L25.7130163,36.0997746 C25.0030243,36.0997746 24.3304003,35.76484 23.8819843,35.2066158 C23.4335683,34.6483915 23.3214642,33.9040925 23.5083043,33.2342233 C23.9193523,31.6339804 24.8535523,30.1081675 26.0119603,29.1777937 C27.5440484,27.9124853 30.0850724,26.3494574 33.5976645,26.3494574 C36.6618406,26.3494574 39.5018086,27.2426162 41.3328407,28.8056442 C43.2386087,30.5175319 43.5001847,32.5643542 43.5001847,34.5367466 C43.5001847,36.2858493 42.9396647,37.7372324 41.7812567,39.0397557 L41.6691527,39.1514006 C40.6602167,40.3050641 39.7260166,41.4215126 38.1191926,42.612391 C37.4092006,43.0961854 37.2223606,43.2450452 37.1849926,45.0313629 C37.1476246,46.3711011 36.0265846,47.4503347 34.6813365,47.4503347 Z M32.4392565,3.64833721 C33.0371445,3.64833721 33.6350325,3.72276711 34.1955525,3.90884186 L56.6910891,11.0913274 C56.8779291,11.1657573 56.9526651,11.3518321 56.9526651,11.5006919 C56.9526651,11.5751218 56.9152971,11.7984115 56.6537211,11.8728414 L37.4465686,16.8596449 L35.4660645,17.3434392 L34.1955525,17.6411588 C33.6350325,17.7900186 33.0371445,17.8644485 32.4392565,17.8644485 C31.8413685,17.8644485 31.2434804,17.7900186 30.6829604,17.6411588 L29.4498164,17.3434392 L27.4693124,16.8596449 L8.15005588,11.8728414 C7.92584787,11.7984115 7.85111187,11.6495517 7.85111187,11.5006919 C7.85111187,11.426262 7.85111187,11.2029723 8.11268788,11.1285424 L30.6829604,3.94605681 C31.2434804,3.75998206 31.8413685,3.64833721 32.4392565,3.64833721 Z" id="Shape"></path>
                        </g>
                    </g>
                </g>
            </g>
        </g>
    </g>
</svg>