<?xml version="1.0" encoding="UTF-8"?>
<svg width="24px" height="24px" viewBox="0 0 24 24" version="1.1" xmlns="http://www.w3.org/2000/svg" xmlns:xlink="http://www.w3.org/1999/xlink">
    <!-- Generator: Sketch 52.4 (67378) - http://www.bohemiancoding.com/sketch -->
    <title>icon_24_pic 2</title>
    <desc>Created with Sketch.</desc>
    <g id="迷你教室2.0" stroke="none" stroke-width="1" fill="none" fill-rule="evenodd">
        <g id="1920*1080（实际1920*970）" transform="translate(-868.000000, -902.000000)">
            <g id="分组-copy-2" transform="translate(750.000000, 890.000000)">
                <g id="icon_24_pic-2" transform="translate(118.000000, 12.000000)">
                    <g id="icon_24_pic">
                        <g>
                            <rect id="Rectangle-path" fill-rule="nonzero" x="0" y="0" width="24" height="24"></rect>
                            <path d="M21.5075,4.48750475 C21.18,4.16250158 20.79,4 20.33,4 L3.665,4 C3.2075,4 2.815,4.16250158 2.4875,4.48750475 C2.16,4.81500795 2,5.20751177 2,5.66501624 L2,18.3326398 C2,18.7901442 2.1625,19.1826481 2.4875,19.5101512 C2.815,19.8351544 3.2075,19.997656 3.665,19.997656 L20.335,19.997656 C20.7925,19.997656 21.185,19.8351544 21.5125,19.5101512 C21.8375,19.1826481 22,18.7901442 22,18.3326398 L22,5.66501624 C21.9975,5.20251173 21.835,4.81250792 21.5075,4.48750475 Z" id="Shape" stroke="#666666" stroke-width="2" fill-rule="nonzero"></path>
                            <path d="M4.99997964,17 L4.99999138,16.2353353 C5.00000106,15.2843567 5.27121093,14.353102 5.78180413,13.550821 C6.41650748,12.5535291 7.02203985,12.0548832 7.59840122,12.0548832 C8.81145656,12.0548832 9.0290819,13.3325 9.95344098,13.3325 C10.8778001,13.3325 12.5534914,8 14.634739,8 C15.7152424,8 16.8367343,8.87579942 17.9992145,10.6273983 L17.9992105,10.6274009 C18.6518805,11.6108292 19,12.7649137 19,13.9452142 L19,17 L4.99997964,17 Z" id="Path" stroke="#666666" stroke-width="1.5" fill="#BCBCBC" fill-rule="nonzero" stroke-linecap="round" stroke-linejoin="round"></path>
                            <path d="M6.22290157,7.22119661 C5.90158776,7.54496308 5.75,7.91337193 5.75,8.375 C5.75,8.84046954 5.90116619,9.20911999 6.22034086,9.52624867 C6.54431392,9.84814498 6.91296518,10 7.375,10 C7.83964097,10 8.20655631,9.84934602 8.52624867,9.52965914 C8.84814498,9.20568608 9,8.83703482 9,8.375 C9,7.91296518 8.84814498,7.54431392 8.52795116,7.22204884 C8.20828202,6.90237969 7.83786708,6.75 7.375,6.75 C6.91254457,6.75 6.54237691,6.90210877 6.22290185,7.22119634 Z" id="Path" stroke="#666666" stroke-width="1.5" fill="#BCBCBC" fill-rule="nonzero"></path>
                        </g>
                    </g>
                </g>
            </g>
        </g>
    </g>
</svg>