<?xml version="1.0" encoding="UTF-8"?>
<svg width="32px" height="32px" viewBox="0 0 32 32" version="1.1" xmlns="http://www.w3.org/2000/svg" xmlns:xlink="http://www.w3.org/1999/xlink">
    <!-- Generator: Sketch 52.4 (67378) - http://www.bohemiancoding.com/sketch -->
    <title>btn_邀请</title>
    <desc>Created with Sketch.</desc>
    <g id="迷你教室2.0" stroke="none" stroke-width="1" fill="none" fill-rule="evenodd">
        <g id="1920*1080（实际1920*970）教师" transform="translate(-1500.000000, -401.000000)">
            <g id="分组-7" transform="translate(1500.000000, 401.000000)">
                <g id="btn_邀请">
                    <rect id="矩形-copy" stroke="#FFFFFF" fill-rule="nonzero" x="0.5" y="0.5" width="31" height="31" rx="15.5"></rect>
                    <g id="Group-9" transform="translate(4.000000, 4.000000)">
                        <rect id="bbg" x="0.103448276" y="0.172413793" width="23.1724138" height="23.1724138"></rect>
                        <rect id="Rectangle-23" stroke="#FFFFFF" stroke-width="1.65517241" fill="#FFFFFF" x="11.7931034" y="4.13793103" width="4.13793103" height="6.06896552" rx="2.06896552"></rect>
                        <path d="M4.13793103,9.93103448 L4.13793103,8.27586207 C4.13793103,7.81879883 4.508454,7.44827586 4.96551724,7.44827586 C5.42258048,7.44827586 5.79310345,7.81879883 5.79310345,8.27586207 L5.79310345,9.93103448 L7.44827586,9.93103448 C7.9053391,9.93103448 8.27586207,10.3015574 8.27586207,10.7586207 C8.27586207,11.2156839 7.9053391,11.5862069 7.44827586,11.5862069 L5.79310345,11.5862069 L5.79310345,13.2413793 C5.79310345,13.6984426 5.42258048,14.0689655 4.96551724,14.0689655 C4.508454,14.0689655 4.13793103,13.6984426 4.13793103,13.2413793 L4.13793103,11.5862069 L2.48275862,11.5862069 C2.02569538,11.5862069 1.65517241,11.2156839 1.65517241,10.7586207 C1.65517241,10.3015574 2.02569538,9.93103448 2.48275862,9.93103448 L4.13793103,9.93103448 Z" id="Combined-Shape" fill="#FFFFFF"></path>
                        <path d="M12.1724138,13.7931034 C10.4965152,13.7931034 9.13793103,15.1516877 9.13793103,16.8275862 L9.13793103,19.7241379 C9.13793103,19.8003151 9.19968486,19.862069 9.27586207,19.862069 L19.1724138,19.862069 C19.248591,19.862069 19.3103448,19.8003151 19.3103448,19.7241379 L19.3103448,16.8275862 C19.3103448,15.1516877 17.9517606,13.7931034 16.2758621,13.7931034 L12.1724138,13.7931034 Z" id="Rectangle-23-Copy" stroke="#FFFFFF" stroke-width="1.65517241" fill="#FFFFFF"></path>
                    </g>
                </g>
            </g>
        </g>
    </g>
</svg>