<?xml version="1.0" encoding="UTF-8"?>
<svg width="24px" height="24px" viewBox="0 0 24 24" version="1.1" xmlns="http://www.w3.org/2000/svg" xmlns:xlink="http://www.w3.org/1999/xlink">
    <!-- Generator: Sketch 51.2 (57519) - http://www.bohemiancoding.com/sketch -->
    <title>icon_24_ppt</title>
    <desc>Created with Sketch.</desc>
    <defs>
        <path d="M2,0 L12,0 C15.3137085,-6.08718376e-16 18,2.6862915 18,6 L18,18 C18,19.1045695 17.1045695,20 16,20 L2,20 C0.8954305,20 1.3527075e-16,19.1045695 0,18 L0,2 C-1.3527075e-16,0.8954305 0.8954305,2.02906125e-16 2,0 Z" id="path-1"></path>
    </defs>
    <g id="Page-1" stroke="none" stroke-width="1" fill="none" fill-rule="evenodd">
        <g id="主界面-激活态" transform="translate(-30.000000, -448.000000)">
            <g id="bar_left-side" transform="translate(16.000000, 122.000000)">
                <g id="icon_24_ppt" transform="translate(14.000000, 326.000000)">
                    <g id="Group-6" transform="translate(3.000000, 2.000000)">
                        <mask id="mask-2" fill="white">
                            <use xlink:href="#path-1"></use>
                        </mask>
                        <use id="Rectangle-18" fill="#FFFFFF" xlink:href="#path-1"></use>
                        <rect id="Rectangle-20" fill="#A7A7A7" mask="url(#mask-2)" x="13" y="-4" width="8" height="9" rx="1"></rect>
                        <path d="M3.376,16.0931017 L5.17519592,5.096 L9.35119592,5.096 C11.9751959,5.096 13.994936,5.95330094 13.5499736,8.67301427 C13.1219391,11.2892602 10.7413137,12.4421822 8.2293137,12.4421822 L6.8373137,12.4421822 L6.24,16.0931017 L3.376,16.0931017 Z M7.17829034,10.358054 L8.42629034,10.358054 C9.81829034,10.358054 10.5894396,9.75203097 10.7659736,8.67301427 C10.9473441,7.56443547 10.2422193,7.18012815 8.86621927,7.18012815 L7.69821927,7.18012815 L7.17829034,10.358054 Z" id="P" mask="url(#mask-2)"></path>
                    </g>
                    <rect id="Rectangle-6" fill="#A7A7A7" x="6" y="9" width="7" height="3" rx="1"></rect>
                    <rect id="Rectangle-6-Copy" fill="#A7A7A7" x="6" y="14" width="12" height="3" rx="1"></rect>
                </g>
            </g>
        </g>
    </g>
</svg>