<?xml version="1.0" encoding="UTF-8"?>
<svg width="24px" height="24px" viewBox="0 0 24 24" version="1.1" xmlns="http://www.w3.org/2000/svg" xmlns:xlink="http://www.w3.org/1999/xlink">
    <!-- Generator: Sketch 51.2 (57519) - http://www.bohemiancoding.com/sketch -->
    <title>icon_24_add</title>
    <desc>Created with Sketch.</desc>
    <defs></defs>
    <g id="Page-1" stroke="none" stroke-width="1" fill="none" fill-rule="evenodd">
        <g id="主界面-激活态" transform="translate(-628.000000, -32.000000)" fill="#FFFFFF">
            <g id="bar_top" transform="translate(509.000000, 18.000000)">
                <g id="icon_24_add" transform="translate(119.000000, 14.000000)">
                    <g id="Group-9" transform="translate(0.000000, 4.000000)">
                        <rect id="Rectangle-23" x="12" y="0" width="6" height="8" rx="3"></rect>
                        <rect id="Rectangle-24" x="0" y="7" width="8" height="2" rx="1"></rect>
                        <rect id="Rectangle-24-Copy" transform="translate(4.000000, 8.000000) rotate(-270.000000) translate(-4.000000, -8.000000) " x="0" y="7" width="8" height="2" rx="1"></rect>
                        <path d="M11,10 L19,10 C21.209139,10 23,11.790861 23,14 L23,17 C23,17.5522847 22.5522847,18 22,18 L8,18 C7.44771525,18 7,17.5522847 7,17 L7,14 C7,11.790861 8.790861,10 11,10 Z" id="Rectangle-23-Copy"></path>
                    </g>
                </g>
            </g>
        </g>
    </g>
</svg>