<?xml version="1.0" encoding="UTF-8"?>
<svg width="24px" height="24px" viewBox="0 0 24 24" version="1.1" xmlns="http://www.w3.org/2000/svg" xmlns:xlink="http://www.w3.org/1999/xlink">
    <!-- Generator: Sketch 51.2 (57519) - http://www.bohemiancoding.com/sketch -->
    <title>icon_24_mic off</title>
    <desc>Created with Sketch.</desc>
    <defs></defs>
    <g id="Page-1" stroke="none" stroke-width="1" fill="none" fill-rule="evenodd">
        <g id="主界面-激活态" transform="translate(-1306.000000, -398.000000)">
            <g id="face" transform="translate(1217.000000, 122.000000)">
                <g id="Group-20-Copy-2" transform="translate(0.000000, 212.000000)">
                    <g id="Group-21" transform="translate(50.000000, 64.000000)">
                        <g id="icon_24_mic-off" transform="translate(39.000000, 0.000000)">
                            <g id="Group-16" transform="translate(5.000000, 2.000000)" fill="#9C9D9E">
                                <path d="M5.3054497,15.937191 L5.93718434,15.3054564 C6.24509379,15.1119288 6.60947571,15 7,15 C8.1045695,15 9,15.8954305 9,17 L9,18 C9,19.1045695 8.1045695,20 7,20 C5.8954305,20 5,19.1045695 5,18 L5,17 C5,16.6094756 5.11192886,16.2450936 5.30545647,15.9371841 Z" id="Combined-Shape"></path>
                                <path d="M2.02397863,19.2186621 L3.24264069,18 L11,18 C11.5522847,18 12,18.4477153 12,19 C12,19.5522847 11.5522847,20 11,20 L3,20 C2.52282434,20 2.12370993,19.6657801 2.02397863,19.2186621 Z" id="Combined-Shape"></path>
                                <path d="M4.64769166,16.594949 L6.29233333,14.9503074 C6.5235125,14.9830593 6.75977789,15 7,15 C9.76142375,15 12,12.7614237 12,10 C12,9.44771525 12.4477153,9 13,9 C13.5522847,9 14,9.44771525 14,10 C14,13.8659932 10.8659932,17 7,17 C6.17475546,17 5.38286478,16.8571951 4.64769166,16.594949 Z M0.405050973,12.3523083 C0.142804887,11.6171352 0,10.8252445 0,10 C0,9.44771525 0.44771525,9 1,9 C1.55228475,9 2,9.44771525 2,10 C2,10.2402221 2.01694071,10.4764875 2.04969264,10.7076667 L0.405050973,12.3523083 Z" id="Combined-Shape" fill-rule="nonzero"></path>
                                <path d="M10.5677961,2.18956318 L3,9.75735931 L3,4 C3,1.790861 4.790861,4.05812251e-16 7,0 C8.55752762,-2.86113183e-16 9.90713803,0.890199427 10.5677961,2.18956318 Z M10.9922931,10.2503476 L7.25034764,13.9922931 C9.26007312,13.8681857 10.8681857,12.2600731 10.9922931,10.2503476 Z" id="Combined-Shape"></path>
                            </g>
                            <rect id="Rectangle-8" fill="#DB5144" transform="translate(12.000000, 12.000000) rotate(-315.000000) translate(-12.000000, -12.000000) " x="11" y="0" width="2" height="24" rx="1"></rect>
                        </g>
                    </g>
                </g>
            </g>
        </g>
    </g>
</svg>