<?xml version="1.0" encoding="UTF-8"?>
<svg width="24px" height="24px" viewBox="0 0 24 24" version="1.1" xmlns="http://www.w3.org/2000/svg" xmlns:xlink="http://www.w3.org/1999/xlink">
    <!-- Generator: Sketch 51.2 (57519) - http://www.bohemiancoding.com/sketch -->
    <title>icon_24_live</title>
    <desc>Created with Sketch.</desc>
    <defs></defs>
    <g id="Page-1" stroke="none" stroke-width="1" fill="none" fill-rule="evenodd">
        <g id="主界面-激活态" transform="translate(-690.000000, -32.000000)">
            <g id="bar_top" transform="translate(509.000000, 18.000000)">
                <g id="icon_24_live" transform="translate(181.000000, 14.000000)">
                    <g id="Group-11" transform="translate(2.000000, 0.000000)">
                        <path d="M3.89096229,0.558187135 L3.9102073,0.547076023 C4.43632919,0.243319411 5.10907863,0.423582082 5.41283524,0.949703968 L8.73388788,6.70193586 C9.03764449,7.22805775 8.85738182,7.90080719 8.33125993,8.2045638 L8.31201492,8.21567492 C7.78589304,8.51943153 7.11314359,8.33916886 6.80938698,7.81304697 L3.48833435,2.06081508 C3.18457773,1.53469319 3.36484041,0.861943747 3.89096229,0.558187135 Z M16.0897927,0.547076023 L16.1090377,0.558187135 C16.6351596,0.861943747 16.8154223,1.53469319 16.5116657,2.06081508 L13.190613,7.81304697 C12.8868564,8.33916886 12.214107,8.51943153 11.6879851,8.21567492 L11.6687401,8.2045638 C11.1426182,7.90080719 10.9623555,7.22805775 11.2661121,6.70193586 L14.5871648,0.949703968 C14.8909214,0.423582082 15.5636708,0.243319411 16.0897927,0.547076023 Z" id="Combined-Shape" fill="#A7A7A7"></path>
                        <rect id="Rectangle-26" fill="#FFFFFF" x="0" y="6" width="20" height="16" rx="2.2"></rect>
                        <path d="M13.55831,14.8163416 L8.15590148,17.9034322 C7.76135676,18.1288863 7.28159423,17.9461196 7.08432188,17.4952114 C7.02886938,17.3684628 7,17.2286998 7,17.0869906 L7,10.9128095 C7,10.4086787 7.35759388,10 7.79870828,10 C7.92270382,10 8.04499649,10.0329936 8.15590148,10.0963679 L13.55831,13.1834584 C13.9528547,13.4089125 14.1127755,13.9572126 13.9155032,14.4081208 C13.8382172,14.5847745 13.7128819,14.7280148 13.55831,14.8163416 Z" id="Triangle-2" fill="#A7A7A7"></path>
                    </g>
                </g>
            </g>
        </g>
    </g>
</svg>