<?xml version="1.0" encoding="UTF-8"?>
<svg width="24px" height="24px" viewBox="0 0 24 24" version="1.1" xmlns="http://www.w3.org/2000/svg" xmlns:xlink="http://www.w3.org/1999/xlink">
    <!-- Generator: Sketch 51.2 (57519) - http://www.bohemiancoding.com/sketch -->
    <title>icon_24_mic</title>
    <desc>Created with Sketch.</desc>
    <defs></defs>
    <g id="Page-1" stroke="none" stroke-width="1" fill="none" fill-rule="evenodd">
        <g id="主界面-激活态" transform="translate(-1306.000000, -186.000000)" fill="#FFFFFF">
            <g id="face" transform="translate(1217.000000, 122.000000)">
                <g id="Group-20-Copy-4">
                    <g id="Group-21" transform="translate(50.000000, 64.000000)">
                        <g id="icon_24_mic" transform="translate(39.000000, 0.000000)">
                            <g id="Group-16" transform="translate(5.000000, 2.000000)">
                                <path d="M8.97999646,16.716042 C8.9931801,16.8087977 9,16.9036024 9,17 L9,18 L11,18 C11.5522847,18 12,18.4477153 12,19 C12,19.5522847 11.5522847,20 11,20 L3,20 C2.44771525,20 2,19.5522847 2,19 C2,18.4477153 2.44771525,18 3,18 L5,18 L5,17 C5,16.9036024 5.0068199,16.8087977 5.02000354,16.716042 C2.11824076,15.8619154 0,13.1783285 0,10 C0,9.44771525 0.44771525,9 1,9 C1.55228475,9 2,9.44771525 2,10 C2,12.7614237 4.23857625,15 7,15 C9.76142375,15 12,12.7614237 12,10 C12,9.44771525 12.4477153,9 13,9 C13.5522847,9 14,9.44771525 14,10 C14,13.1783285 11.8817592,15.8619154 8.97999646,16.716042 Z" id="Combined-Shape"></path>
                                <rect id="Rectangle-31" x="3" y="0" width="8" height="14" rx="4"></rect>
                            </g>
                        </g>
                    </g>
                </g>
            </g>
        </g>
    </g>
</svg>