<?xml version="1.0" encoding="UTF-8"?>
<svg width="24px" height="24px" viewBox="0 0 24 24" version="1.1" xmlns="http://www.w3.org/2000/svg" xmlns:xlink="http://www.w3.org/1999/xlink">
    <!-- Generator: Sketch 51.2 (57519) - http://www.bohemiancoding.com/sketch -->
    <title>icon_24_pen</title>
    <desc>Created with Sketch.</desc>
    <defs>
        <path d="M6,2.60514238 L6,20.6623355 C6,20.8073666 5.9684533,20.9506621 5.90754763,21.0822847 L3.91134354,25.3962599 C3.67941202,25.8974846 3.08507146,26.1157899 2.58384674,25.8838584 C2.36907541,25.7844773 2.1965087,25.6121493 2.09683045,25.3975158 L0.0930345432,21.0828148 C0.0317500802,20.9508532 -1.61532388e-14,20.8071077 -1.56541446e-14,20.6616098 L0,2.60514238 C0,1.16636197 0.8954305,0 2,0 L4,0 C5.1045695,-2.89228906e-16 6,1.16636197 6,2.60514238 Z" id="path-1"></path>
    </defs>
    <g id="Page-1" stroke="none" stroke-width="1" fill="none" fill-rule="evenodd">
        <g id="主界面-激活态" transform="translate(-30.000000, -240.000000)">
            <g id="bar_left-side" transform="translate(16.000000, 122.000000)">
                <g id="icon_24_pen" transform="translate(14.000000, 118.000000)">
                    <g id="Group" transform="translate(12.000000, 12.000000) rotate(-315.000000) translate(-12.000000, -12.000000) translate(9.000000, -1.000000)">
                        <mask id="mask-2" fill="white">
                            <use xlink:href="#path-1"></use>
                        </mask>
                        <use id="Combined-Shape" fill="#FFFFFF" xlink:href="#path-1"></use>
                        <rect id="Rectangle-9" fill="#A7A7A7" mask="url(#mask-2)" x="0" y="20" width="6" height="2"></rect>
                        <path d="M2,0 L4,0 C5.1045695,-2.02906125e-16 6,0.8954305 6,2 L6,4 L0,4 L0,2 C-1.3527075e-16,0.8954305 0.8954305,2.02906125e-16 2,0 Z" id="Rectangle-10" fill="#A7A7A7" mask="url(#mask-2)"></path>
                    </g>
                </g>
            </g>
        </g>
    </g>
</svg>