<?xml version="1.0" encoding="UTF-8"?>
<svg width="24px" height="24px" viewBox="0 0 24 24" version="1.1" xmlns="http://www.w3.org/2000/svg" xmlns:xlink="http://www.w3.org/1999/xlink">
    <!-- Generator: Sketch 51.2 (57519) - http://www.bohemiancoding.com/sketch -->
    <title>icon_24_camera ban</title>
    <desc>Created with Sketch.</desc>
    <defs></defs>
    <g id="Page-1" stroke="none" stroke-width="1" fill="none" fill-rule="evenodd">
        <g id="主界面-激活态" transform="translate(-1267.000000, -292.000000)" fill="#FFFFFF">
            <g id="face" transform="translate(1217.000000, 122.000000)">
                <g id="Group-20-Copy" transform="translate(0.000000, 106.000000)">
                    <g id="Group-21" transform="translate(50.000000, 64.000000)">
                        <g id="icon_24_camera-ban">
                            <g id="Group-15" transform="translate(4.000000, 2.000000)">
                                <path d="M9.59758731,12.6450534 L15.0925888,18.3033186 C15.4773553,18.699517 15.4680879,19.3326142 15.0718894,19.7173807 C14.8852642,19.898621 14.6353561,20 14.3752081,20 L2.24264069,20 L9.59758731,12.6450534 Z" id="Combined-Shape"></path>
                                <path d="M6.40221947,15.8404212 L15.8404212,6.40221947 C15.9450691,6.91850731 16,7.45283876 16,8 C16,12.418278 12.418278,16 8,16 C7.45283876,16 6.91850731,15.9450691 6.40221947,15.8404212 Z M1.3334528,12.4239065 C0.490916678,11.1567956 0,9.63572765 0,8 C0,3.581722 3.581722,0 8,0 C9.63572765,0 11.1567956,0.490916678 12.4239065,1.3334528 L1.3334528,12.4239065 Z" id="Combined-Shape"></path>
                            </g>
                            <rect id="Rectangle-7" transform="translate(12.000000, 12.000000) rotate(-315.000000) translate(-12.000000, -12.000000) " x="11" y="0" width="2" height="24" rx="1"></rect>
                        </g>
                    </g>
                </g>
            </g>
        </g>
    </g>
</svg>