<?xml version="1.0" encoding="UTF-8"?>
<svg width="24px" height="24px" viewBox="0 0 24 24" version="1.1" xmlns="http://www.w3.org/2000/svg" xmlns:xlink="http://www.w3.org/1999/xlink">
    <!-- Generator: Sketch 51.2 (57519) - http://www.bohemiancoding.com/sketch -->
    <title>icon_24_setting</title>
    <desc>Created with Sketch.</desc>
    <defs></defs>
    <g id="Page-1" stroke="none" stroke-width="1" fill="none" fill-rule="evenodd">
        <g id="主界面-激活态" transform="translate(-752.000000, -32.000000)">
            <g id="bar_top" transform="translate(509.000000, 18.000000)">
                <g id="icon_24_setting" transform="translate(243.000000, 14.000000)">
                    <g id="Group-13" transform="translate(2.000000, 1.000000)">
                        <path d="M12.2941443,0.777519435 C12.4471057,1.97861589 13.1147123,3.07674401 14.2095486,3.70884801 C15.3043848,4.34095202 16.589195,4.37005227 17.7058557,3.90197249 C18.6129276,4.94828169 19.2784413,6.17450707 19.6811794,7.4925276 C18.6304811,8.21982423 17.9476129,9.39802983 17.9476129,10.7277884 C17.9476129,12.0220246 18.5944849,13.1726967 19.5977696,13.9038039 C19.3639905,14.6180129 19.0524407,15.3207128 18.660254,16 C18.2680674,16.6792872 17.8152863,17.3004471 17.3136527,17.8600103 C16.178853,17.356694 14.8589057,17.3718223 13.7380643,18.0189404 C12.5864596,18.6838197 11.9075377,19.8643038 11.8030295,21.1378835 C10.4602212,21.4481124 9.06552201,21.4848733 7.70585572,21.2224806 C7.55289433,20.0213841 6.88528769,18.923256 5.79045144,18.291152 C4.69561519,17.659048 3.41080501,17.6299477 2.29414428,18.0980275 C1.38707238,17.0517183 0.721558652,15.8254929 0.318820647,14.5074724 C1.36951885,13.7801758 2.05238714,12.6019702 2.05238714,11.2722116 C2.05238714,9.97797537 1.40551506,8.82730334 0.402230438,8.09619611 C0.636009543,7.38198706 0.947559343,6.67928715 1.33974596,6 C1.73193258,5.32071285 2.18471366,4.69955285 2.68634728,4.13998969 C3.82114703,4.64330604 5.14109428,4.62817768 6.2619357,3.98105958 C7.41354043,3.31618028 8.09246227,2.1356962 8.19697052,0.862116545 C9.53977879,0.551887621 10.934478,0.515126726 12.2941443,0.777519435 Z" id="Combined-Shape" fill="#FFFFFF"></path>
                        <circle id="Oval-10" fill="#A7A7A7" cx="10" cy="11" r="4"></circle>
                    </g>
                </g>
            </g>
        </g>
    </g>
</svg>