<?xml version="1.0" encoding="UTF-8"?>
<svg width="24px" height="24px" viewBox="0 0 24 24" version="1.1" xmlns="http://www.w3.org/2000/svg" xmlns:xlink="http://www.w3.org/1999/xlink">
    <!-- Generator: Sketch 51.2 (57519) - http://www.bohemiancoding.com/sketch -->
    <title>ico_密码</title>
    <desc>Created with Sketch.</desc>
    <defs></defs>
    <g id="设计稿" stroke="none" stroke-width="1" fill="none" fill-rule="evenodd">
        <g id="教师、学生登录" transform="translate(-1016.000000, -478.000000)" fill-rule="nonzero">
            <g id="密码" transform="translate(1016.000000, 478.000000)">
                <rect id="Rectangle-path" fill="#000000" opacity="0" x="0" y="0" width="24" height="24"></rect>
                <path d="M19.2265524,8.13343753 C18.9091516,4.46049579 15.8240033,1.56707353 12.0710758,1.56707353 C8.3181483,1.56707353 5.23429514,4.46049579 4.91816548,8.1321664 L4.78359272,8.1321664 C3.74504885,8.1321664 2.89950213,8.97771312 2.89950213,10.016257 L2.89950213,20.5488359 C2.89950213,21.5873798 3.74504885,22.4329265 4.78359272,22.4329265 L19.2164073,22.4329265 C20.2549272,22.4329265 21.1004979,21.5873798 21.1004979,20.5488359 L21.1004979,10.016257 C21.1004739,8.98027936 20.2600117,8.13852209 19.2265524,8.13343753 Z M12.0710758,2.93824786 C15.0647741,2.93824786 17.5100362,5.21972501 17.8249187,8.13219037 L6.31979918,8.13219037 C6.63465771,5.21972503 9.07737755,2.93824786 12.0710758,2.93824786 Z M19.8003873,20.5488359 C19.8003873,20.8649655 19.5338081,21.1328639 19.2163833,21.1328639 L4.78359272,21.1328639 C4.4662159,21.1328639 4.1995647,20.8649656 4.1995647,20.5488359 L4.1995647,10.016257 C4.1995647,9.69377163 4.46110737,9.43222896 4.78359272,9.43222896 L5.5402797,9.43222896 C5.5504488,9.43222896 5.56059391,9.43858465 5.57076302,9.43858465 C5.58220327,9.43858465 5.59107724,9.43222896 5.60249351,9.43222896 L18.5409532,9.43222894 C18.5511223,9.43222894 18.5612914,9.43858463 18.5714126,9.43858463 C18.5828528,9.43858463 18.5917508,9.43222894 18.603167,9.43222894 L19.2163833,9.43222894 C19.5388447,9.43222894 19.8003873,9.69374763 19.8003873,10.016257 L19.8003873,20.5488359 Z M12.0482193,13.0378963 C11.3309136,13.0378963 10.7481567,13.6206292 10.7481567,14.3379589 C10.7481567,14.9003775 11.1112706,15.3688519 11.6127705,15.5504328 C11.6064148,15.579645 11.5949986,15.606291 11.5949986,15.6367743 L11.5949986,16.9368368 C11.5949986,17.1869632 11.7968697,17.3900816 12.0482193,17.3900816 C12.2970985,17.3900816 12.5002168,17.1869393 12.5002168,16.9368368 L12.5002168,15.6367743 C12.5002168,15.606291 12.4887766,15.579645 12.4824689,15.5504328 C12.9839209,15.3688759 13.3483298,14.9003776 13.3483298,14.3379589 C13.3483058,13.6206292 12.7643018,13.0378963 12.0482193,13.0378963 Z" id="Shape" fill="#666666"></path>
            </g>
        </g>
    </g>
</svg>