<?xml version="1.0" encoding="UTF-8"?>
<svg width="24px" height="24px" viewBox="0 0 24 24" version="1.1" xmlns="http://www.w3.org/2000/svg" xmlns:xlink="http://www.w3.org/1999/xlink">
    <!-- Generator: Sketch 51.2 (57519) - http://www.bohemiancoding.com/sketch -->
    <title>ico_手机</title>
    <desc>Created with Sketch.</desc>
    <defs></defs>
    <g id="设计稿" stroke="none" stroke-width="1" fill="none" fill-rule="evenodd">
        <g id="教师、学生登录" transform="translate(-1016.000000, -409.000000)" fill-rule="nonzero">
            <g id="手机" transform="translate(1016.000000, 409.000000)">
                <rect id="Rectangle-path" fill="#000000" opacity="0" x="0" y="0" width="24" height="24"></rect>
                <path d="M15.1757578,1.42164844 L8.79297656,1.42164844 C6.69292969,1.42164844 4.98445312,3.130125 4.98445312,5.23017187 L4.98445312,18.6811172 C4.98445312,20.7811641 6.69292969,22.4896406 8.79297656,22.4896406 L15.1757578,22.4896406 C17.2758047,22.4896406 18.9842812,20.7811641 18.9842812,18.6811172 L18.9842812,5.23017187 C18.9843047,3.130125 17.2758047,1.42164844 15.1757578,1.42164844 Z M14.9385499,21.15 L8.89035638,21.15 C7.56375717,21.15 6.48445312,20.3116172 6.48445312,18.911625 L6.48445312,5.46067969 C6.48445312,4.0606875 7.56375717,2.92164844 8.89035638,2.92164844 L10.1377812,2.92164844 C10.1411125,3.26915625 10.4085732,3.55000781 10.7386407,3.55000781 L13.0902212,3.55000781 C13.4203108,3.55000781 13.6877494,3.26915625 13.6910807,2.92164844 L14.9385055,2.92164844 C16.2651047,2.92164844 17.3444087,4.06066406 17.3444087,5.46067969 L17.3444087,18.911625 C17.3444531,20.3116172 16.2651491,21.15 14.9385499,21.15 Z" id="Shape" fill="#666666"></path>
                <path d="M13.2252187,19.2024375 L10.7435391,19.2024375 C10.3930078,19.2024375 10.1087812,19.4866406 10.1087812,19.8371953 C10.1087812,20.18775 10.3929844,20.4719531 10.7435391,20.4719531 L13.2252187,20.4719531 C13.57575,20.4719531 13.8599766,20.18775 13.8599766,19.8371953 C13.8599766,19.4866406 13.57575,19.2024375 13.2252187,19.2024375 Z" id="Shape" fill="#4D4D4D"></path>
            </g>
        </g>
    </g>
</svg>