<?xml version="1.0" encoding="UTF-8"?>
<svg width="64px" height="64px" viewBox="0 0 64 64" version="1.1" xmlns="http://www.w3.org/2000/svg" xmlns:xlink="http://www.w3.org/1999/xlink">
    <!-- Generator: Sketch 51.2 (57519) - http://www.bohemiancoding.com/sketch -->
    <title>ico_obs</title>
    <desc>Created with Sketch.</desc>
    <defs></defs>
    <g id="设计稿" stroke="none" stroke-width="1" fill="none" fill-rule="evenodd">
        <g id="技术支持" transform="translate(-1390.000000, -1101.000000)" fill-rule="nonzero">
            <g id="Group-7" transform="translate(1275.000000, 1009.000000)">
                <g id="OBS录课软件" transform="translate(44.000000, 92.000000)">
                    <g id="ico_obs" transform="translate(71.000000, 0.000000)">
                        <rect id="Rectangle" x="0" y="0" width="64" height="64"></rect>
                        <path d="M19.9658915,27.2727273 C19.6031008,27.2727273 19.6031008,27.2727273 19.2403101,27.2727273 C13.0728682,12.7272727 25.4077519,7.27272727 25.4077519,7.27272727 C25.4077519,7.27272727 14.1612403,8.72727273 7.99379845,21.8181818 C3.64031008,32.3636364 6.90542636,40.3636364 9.44496124,44 C9.80775194,44.7272727 10.1705426,45.4545455 10.896124,45.8181818 C13.0728682,48.7272727 16.3379845,50.1818182 19.9658915,50.1818182 C26.496124,50.1818182 31.5751938,45.0909091 31.5751938,38.5454545 C31.5751938,32 26.496124,27.2727273 19.9658915,27.2727273 Z" id="Shape" fill="#D95043"></path>
                        <path d="M33.751938,44.7272727 C24.6821705,57.8181818 13.7984496,49.8181818 13.7984496,49.8181818 C13.7984496,49.8181818 20.6914729,58.5454545 35.2031008,57.4545455 C46.4496124,56 51.8914729,49.0909091 53.7054264,45.4545455 C54.0682171,44.7272727 54.4310078,44 54.7937984,43.2727273 C56.2449612,40 55.8821705,36.3636364 53.7054264,33.0909091 C50.8031008,27.6363636 43.5472868,25.4545455 38.1054264,28.7272727 C32.6635659,32 30.4868217,39.2727273 33.751938,44.7272727 Z" id="Shape" fill="#D95043"></path>
                        <path d="M41.7333333,24 C58.0589147,25.4545455 56.2449612,38.9090909 56.2449612,38.9090909 C56.2449612,38.9090909 60.5984496,28.3636364 51.8914729,16.3636364 C44.6356589,7.63636364 36.2914729,6.18181818 31.9379845,6.18181818 C31.2124031,6.18181818 30.4868217,6.18181818 29.7612403,6.18181818 C26.8589147,6.90909091 23.5937984,8.72727273 21.779845,12 C18.5147287,17.4545455 20.6914729,24.7272727 26.1333333,28 C31.5751938,31.2727273 38.8310078,29.4545455 41.7333333,24 Z" id="Shape" fill="#D95043"></path>
                    </g>
                </g>
            </g>
        </g>
    </g>
</svg>