<?xml version="1.0" encoding="UTF-8"?>
<svg width="24px" height="24px" viewBox="0 0 24 24" version="1.1" xmlns="http://www.w3.org/2000/svg" xmlns:xlink="http://www.w3.org/1999/xlink">
    <!-- Generator: Sketch 52.2 (67145) - http://www.bohemiancoding.com/sketch -->
    <title>icon_24_delete_disable</title>
    <desc>Created with Sketch.</desc>
    <g id="Page-1" stroke="none" stroke-width="1" fill="none" fill-rule="evenodd">
        <g id="主界面0928" transform="translate(-30.000000, -605.000000)">
            <g id="icon_24_delete_disable" transform="translate(30.000000, 605.000000)">
                <path d="M4,7 L20,7 L20,20 C20,21.1045695 19.1045695,22 18,22 L6,22 C4.8954305,22 4,21.1045695 4,20 L4,7 Z" id="Rectangle-63-Copy-2" fill="#D7D7D7"></path>
                <rect id="Rectangle-64" fill="#C5C5C5" x="8" y="10" width="3" height="8" rx="1"></rect>
                <rect id="Rectangle-64-Copy" fill="#C5C5C5" x="13" y="10" width="3" height="8" rx="1"></rect>
                <path d="M9,2 L15,2 C15.5522847,2 16,2.44771525 16,3 L16,5 L8,5 L8,3 C8,2.44771525 8.44771525,2 9,2 Z" id="Rectangle-63" fill="#C5C5C5"></path>
                <rect id="Rectangle-63-Copy" fill="#C5C5C5" x="3" y="4" width="18" height="3" rx="1"></rect>
            </g>
        </g>
    </g>
</svg>