<?xml version="1.0" encoding="UTF-8"?>
<svg width="24px" height="24px" viewBox="0 0 24 24" version="1.1" xmlns="http://www.w3.org/2000/svg" xmlns:xlink="http://www.w3.org/1999/xlink">
    <!-- Generator: Sketch 51.2 (57519) - http://www.bohemiancoding.com/sketch -->
    <title>ico_举手答疑</title>
    <desc>Created with Sketch.</desc>
    <defs></defs>
    <g id="设计稿" stroke="none" stroke-width="1" fill="none" fill-rule="evenodd">
        <g id="ImClass官网--功能概述" transform="translate(-376.000000, -2636.000000)" fill-rule="nonzero">
            <g id="教室辅助功能" transform="translate(360.000000, 2266.000000)">
                <g id="一键举手答疑" transform="translate(0.000000, 342.000000)">
                    <g id="Group-7">
                        <g id="ico_举手答疑" transform="translate(16.000000, 28.000000)">
                            <rect id="Rectangle-7-Copy-3" x="0" y="0" width="24" height="24"></rect>
                            <path d="M14.762918,6.55633542 C14.7630121,6.55596366 14.7632947,6.55578669 14.7638106,6.55584848 C14.764006,6.55587143 14.7640077,6.55603477 14.7638423,6.55636103 Z M6.00676194,9.69093161 C6.00679094,9.69051194 6.0070842,9.69019462 6.0076918,9.68998231 C6.00778842,9.68994837 6.00777082,9.69014145 6.00767625,9.69056233 Z M15.6268446,19.6280979 C14.4243219,20.5081409 12.9693067,20.9885947 11.4642298,21 C9.09579652,20.9996256 6.99280892,19.4968071 6.2356288,17.2022409 L6.25652406,17.272232 L6.24590896,17.2403141 L6.20915869,17.1244875 L4.11797256,10.3940449 C3.74189695,9.35009362 4.29256008,8.17264837 5.34668863,7.80237243 C5.7631961,7.65697126 6.19519721,7.65998854 6.58767774,7.7803691 L6.46921345,6.93123199 C6.27077925,5.84192312 7.0000002,4.76832317 8.09625,4.57480552 C8.58195579,4.48805572 9.0583234,4.587773 9.4553558,4.82015152 C9.5474188,3.79689947 10.4145535,3 11.4638054,3 C12.5740176,3 13.4803362,3.89218722 13.4793165,4.9555332 L13.4824004,5.02381658 C13.8920715,4.68408486 14.4326204,4.50324223 15.0010169,4.56996916 C16.1076579,4.70443315 16.8979961,5.73449134 16.7583268,6.82977679 L16.0144723,12.8567911 L17.0236106,11.862623 C17.9441739,10.9584093 19.3453399,11.0099956 20.2624255,11.9107934 L20.2632115,11.9115663 C21.1871098,12.8210591 21.2744039,14.2532759 20.3687551,15.1519749 C20.3343771,15.1883374 20.2720259,15.2539639 20.1839919,15.3460977 C20.0378213,15.4990754 19.8740197,15.6693922 19.69634,15.8527503 C19.1883901,16.3769337 18.6703629,16.9012682 18.1718486,17.3917482 C18.0771669,17.4849039 17.9839227,17.5761057 17.8922386,17.6652112 C16.8758935,18.6529707 16.1215025,19.3210796 15.6268446,19.6280979 Z" id="Shape" stroke="#333333" stroke-width="2"></path>
                        </g>
                    </g>
                </g>
            </g>
        </g>
    </g>
</svg>