<?xml version="1.0" encoding="utf-8"?>
<!-- Generator: Adobe Illustrator 22.1.0, SVG Export Plug-In . SVG Version: 6.00 Build 0)  -->
<svg version="1.1" xmlns="http://www.w3.org/2000/svg" xmlns:xlink="http://www.w3.org/1999/xlink" x="0px" y="0px"
	 viewBox="0 0 24 24" style="enable-background:new 0 0 24 24;" xml:space="preserve">
<style type="text/css">
	.st0{clip-path:url(#SVGID_2_);}
	.st1{clip-path:url(#SVGID_4_);fill:none;stroke:#333333;stroke-width:4;stroke-miterlimit:10;}
	.st2{clip-path:url(#SVGID_6_);}
	.st3{clip-path:url(#SVGID_8_);}
	.st4{clip-path:url(#SVGID_10_);fill:#333333;}
	.st5{clip-path:url(#SVGID_12_);}
	.st6{clip-path:url(#SVGID_14_);}
	.st7{clip-path:url(#SVGID_16_);fill:#333333;}
	.st8{fill:none;}
	.st9{clip-path:url(#SVGID_22_);}
	.st10{clip-path:url(#SVGID_24_);fill:#333333;}
	.st11{fill:#333333;}
</style>
<g id="图层_1">
	<g>
		<g>
			<g>
				<g>
					<defs>
						<path id="SVGID_1_" d="M22,11c0-4.4-4.5-8-10-8S2,6.6,2,11s4.5,8,10,8v2C18.7,18.4,22,15.1,22,11z"/>
					</defs>
					<clipPath id="SVGID_2_">
						<use xlink:href="#SVGID_1_"  style="overflow:visible;"/>
					</clipPath>
					<g class="st0">
						<g>
							<g>
								<g>
									<defs>
										<rect id="SVGID_3_" x="-376" y="-2562" width="1920" height="4945"/>
									</defs>
									<clipPath id="SVGID_4_">
										<use xlink:href="#SVGID_3_"  style="overflow:visible;"/>
									</clipPath>
									<path class="st1" d="M22,11c0-4.4-4.5-8-10-8S2,6.6,2,11s4.5,8,10,8v2C18.7,18.4,22,15.1,22,11z"/>
								</g>
							</g>
							<g>
								<g>
									<defs>
										<path id="SVGID_5_" d="M22,11c0-4.4-4.5-8-10-8S2,6.6,2,11s4.5,8,10,8v2C18.7,18.4,22,15.1,22,11z"/>
									</defs>
									<clipPath id="SVGID_6_">
										<use xlink:href="#SVGID_5_"  style="overflow:visible;"/>
									</clipPath>
									<g class="st2">
										<g>
											<g>
												<g>
													<defs>
														<circle id="SVGID_7_" cx="8" cy="11" r="1"/>
													</defs>
													<clipPath id="SVGID_8_">
														<use xlink:href="#SVGID_7_"  style="overflow:visible;"/>
													</clipPath>
													<g class="st3">
														<g>
															<g>
																<g>
																	<defs>
																		<rect id="SVGID_9_" x="-376" y="-2562" width="1920" height="4945"/>
																	</defs>
																	<clipPath id="SVGID_10_">
																		<use xlink:href="#SVGID_9_"  style="overflow:visible;"/>
																	</clipPath>
																	<rect x="2" y="5" class="st4" width="12" height="12"/>
																</g>
															</g>
															<g>
																<g>
																	<defs>
																		<circle id="SVGID_11_" cx="8" cy="11" r="1"/>
																	</defs>
																	<clipPath id="SVGID_12_">
																		<use xlink:href="#SVGID_11_"  style="overflow:visible;"/>
																	</clipPath>
																	<g class="st5">
																		<g>
																			<g>
																				<g>
																					<defs>
																						<circle id="SVGID_13_" cx="12" cy="11" r="1"/>
																					</defs>
																					<clipPath id="SVGID_14_">
																						<use xlink:href="#SVGID_13_"  style="overflow:visible;"/>
																					</clipPath>
																					<g class="st6">
																						<g>
																							<g>
																								<g>
																									<defs>
																										<rect id="SVGID_15_" x="-376" y="-2562" width="1920" height="4945"/>
																									</defs>
																									<clipPath id="SVGID_16_">
																										<use xlink:href="#SVGID_15_"  style="overflow:visible;"/>
																									</clipPath>
																									<rect x="6" y="5" class="st7" width="12" height="12"/>
																								</g>
																							</g>
																							<g>
																								<g>
																									<defs>
																										<circle id="SVGID_17_" cx="12" cy="11" r="1"/>
																									</defs>
																									<clipPath id="SVGID_18_">
																										<use xlink:href="#SVGID_17_"  style="overflow:visible;"/>
																									</clipPath>
																								</g>
																							</g>
																							<g>
																								<g>
																									<defs>
																										<path id="SVGID_19_" d="M22,11c0-4.4-4.5-8-10-8S2,6.6,2,11s4.5,8,10,8v2C18.7,18.4,22,15.1,22,11z"/>
																									</defs>
																									<clipPath id="SVGID_20_">
																										<use xlink:href="#SVGID_19_"  style="overflow:visible;"/>
																									</clipPath>
																								</g>
																							</g>
																						</g>
																					</g>
																				</g>
																			</g>
																		</g>
																	</g>
																</g>
															</g>
														</g>
														<rect x="-372" y="-2562" class="st8" width="1920" height="4945"/>
														<circle class="st8" cx="20" cy="11" r="1"/>
													</g>
													<g class="st3">
														<g>
															<g id="图层_2_1_">
																<defs>
																	<path id="SVGID_21_" d="M16,12c-0.6,0-1-0.4-1-1s0.4-1,1-1s1,0.4,1,1S16.6,12,16,12z M12,12c-0.6,0-1-0.4-1-1
																		s0.4-1,1-1s1,0.4,1,1S12.6,12,12,12z M8,12c-0.6,0-1-0.4-1-1s0.4-1,1-1s1,0.4,1,1S8.6,12,8,12z"/>
																</defs>
																<clipPath id="SVGID_22_">
																	<use xlink:href="#SVGID_21_"  style="overflow:visible;"/>
																</clipPath>
																<g class="st9">
																	<g>
																		<defs>
																			<rect id="SVGID_23_" x="-376" y="-2562" width="1920" height="4945"/>
																		</defs>
																		<clipPath id="SVGID_24_">
																			<use xlink:href="#SVGID_23_"  style="overflow:visible;"/>
																		</clipPath>
																		<rect x="2" y="5" class="st10" width="20" height="12"/>
																	</g>
																</g>
															</g>
														</g>
													</g>
												</g>
											</g>
										</g>
									</g>
								</g>
							</g>
						</g>
					</g>
				</g>
			</g>
		</g>
	</g>
	<circle class="st11" cx="16" cy="11" r="1"/>
	<circle class="st11" cx="12" cy="11" r="1"/>
</g>
<g id="图层_2">
</g>
</svg>
