<?xml version="1.0" encoding="UTF-8"?>
<svg width="24px" height="24px" viewBox="0 0 24 24" version="1.1" xmlns="http://www.w3.org/2000/svg" xmlns:xlink="http://www.w3.org/1999/xlink">
    <!-- Generator: Sketch 52.2 (67145) - http://www.bohemiancoding.com/sketch -->
    <title>icon_24_pic</title>
    <desc>Created with Sketch.</desc>
    <g id="Page-1" stroke="none" stroke-width="1" fill="none" fill-rule="evenodd">
        <g id="主界面0928" transform="translate(-30.000000, -477.000000)" fill-rule="nonzero">
            <g id="bar_left-side" transform="translate(16.000000, 201.000000)">
                <g id="icon_24_pic" transform="translate(14.000000, 276.000000)">
                    <g id="图片">
                        <rect id="Rectangle-path" fill="#000000" opacity="0" x="0" y="0" width="24" height="24"></rect>
                        <path d="M22.4015625,4.05390625 C22.0433594,3.6984375 21.6167969,3.52070312 21.1136719,3.52070312 L2.88632813,3.52070312 C2.3859375,3.52070312 1.95664063,3.6984375 1.5984375,4.05390625 C1.24023438,4.41210937 1.06523438,4.84140625 1.06523438,5.34179687 L1.06523438,19.196875 C1.06523438,19.6972656 1.24296875,20.1265625 1.5984375,20.4847656 C1.95664063,20.8402344 2.3859375,21.0179687 2.88632813,21.0179687 L21.1191406,21.0179687 C21.6195313,21.0179687 22.0488281,20.8402344 22.4070313,20.4847656 C22.7625,20.1265625 22.9402344,19.6972656 22.9402344,19.196875 L22.9402344,5.34179687 C22.9375,4.8359375 22.7597656,4.409375 22.4015625,4.05390625 Z" id="Shape" fill="#FFFFFF"></path>
                        <path d="M3.28007813,18.1003906 L3.28007813,15.9128906 C4.43074497,13.7654096 5.50985964,12.6916691 6.51742215,12.6916691 C8.0287659,12.6916691 8.29990496,14.0890625 9.4515625,14.0890625 C10.60322,14.0890625 12.6909613,8.25664063 15.2839844,8.25664063 C17.0126664,8.25664063 18.8255571,9.83619792 20.7226563,12.9953125 L20.7226563,18.1003906 L3.28007813,18.1003906 Z" id="Path" fill="#A7A7A7"></path>
                        <path d="M4.61445313,7.06992187 C5.03828125,6.64609375 5.55507813,6.4328125 6.16484375,6.4328125 C6.77460938,6.4328125 7.29140625,6.64609375 7.71523438,7.06992187 C8.1390625,7.49648437 8.35234375,8.01054687 8.35234375,8.6203125 C8.35234375,9.23007812 8.1390625,9.74414062 7.71523438,10.1707031 C7.28867188,10.5972656 6.77460938,10.8078125 6.16484375,10.8078125 C5.55507813,10.8078125 5.04101563,10.5945312 4.61445313,10.1707031 C4.18789063,9.746875 3.97734375,9.23007812 3.97734375,8.6203125 C3.97734375,8.01054687 4.190625,7.49648437 4.61445313,7.06992187 Z" id="Path" fill="#A7A7A7"></path>
                    </g>
                </g>
            </g>
        </g>
    </g>
</svg>